<svg xmlns="http://www.w3.org/2000/svg" viewBox="0 0 596.31 596.35"><path d="M496.31,304.92v-8.61l-7.54,8.15V285.23h-5.68v19.13l-7.45-8.05v8.61L486,316.09Zm-60.7,137.59,6.1-6.09-11.08.37,13.59-13.55-4.05-4.05-13.49,13.5.37-11-6.1,6.14-.56,15.22ZM295.37,496.83H304l-8.15-7.54H315.1v-5.72H296l8.06-7.45h-8.66L284.24,486.5ZM157.82,436.09l6.1,6.1-.42-11.08,13.59,13.59,4-4.05-13.46-13.5,10.94.37-6.09-6.09-15.23-.56ZM103.5,295.89v8.61l7.54-8.14v19.22h5.73V296.5l7.45,8v-8.61l-10.38-11.17ZM164.25,158.3l-6.15,6.1,11.13-.38-13.59,13.55,4,4.05,13.5-13.5-.42,11,6.1-6.15.56-15.22ZM304.44,104h-8.61l8.15,7.59H284.76v5.68h19.08l-8,7.44h8.61l11.18-10.33ZM442,164.72l-6.15-6.09.42,11.07-13.59-13.59-4,4,13.49,13.5-11-.37,6.14,6.1,15.22.55ZM490.82,254l-2.24-8.33-5.21,9.82-4.93-18.57-5.54,1.49,5,18.48L468.57,251l2.23,8.34,12.9,8.14Zm-23,148.58,4.28-7.45-10.61,3.26,9.63-16.62-4.93-2.84-9.59,16.53-2.42-10.71-4.33,7.5,3.4,14.84Zm-121.4,88.76,8.33-2.18-9.82-5.22,18.58-5L362,473.42l-18.48,4.93,5.86-9.31L341,471.28l-8.1,12.94Zm-148.62-23,7.49,4.29L202,462l16.61,9.59,2.84-4.94-16.52-9.54,10.7-2.47-7.49-4.32-14.85,3.39ZM109,346.86l2.23,8.33,5.21-9.82,4.94,18.57,5.54-1.49L122,344l9.26,5.82L129,341.51l-12.89-8.1Zm23.08-148.58-4.33,7.5,10.62-3.31-9.59,16.67,4.93,2.79,9.54-16.48,2.47,10.66,4.28-7.49-3.35-14.85Zm121.4-88.76-8.38,2.23,9.82,5.17-18.53,5,1.49,5.49,18.44-4.93-5.82,9.31,8.33-2.24,8.1-12.89Zm148.57,23-7.49-4.33,3.3,10.66-16.66-9.64-2.79,4.94,16.47,9.59-10.65,2.42,7.44,4.33,14.85-3.4Zm70.24,73.54L468,198.66l-2.46,10.79-9.59-16.61L451,195.68l9.55,16.57L450,209l4.28,7.44L468.89,221Zm16.2,149.56,2.23-8.38-9.4,5.91,4.94-18.53-5.5-1.49-4.93,18.44-5.17-9.68-2.19,8.37,7.13,13.41,12.89-8Zm-94.3,117.11,7.49-4.33L390.83,466l16.67-9.64-2.84-4.88L388.09,461l3.21-10.47-7.45,4.33-4.51,14.52ZM244.68,489,253,491.2l-5.86-9.4,18.52,5,1.49-5.49-18.43-5,9.68-5.12L250.08,469l-13.5,7.12Zm-117.16-94.3,4.33,7.45,2.47-10.8L143.91,408l5-2.84-9.59-16.53,10.52,3.21-4.33-7.49-14.57-4.47ZM111.37,245.2l-2.23,8.33,9.4-5.91-5,18.57,5.49,1.45,5-18.43,5.12,9.68,2.19-8.34-7.08-13.45ZM205.63,128l-7.45,4.33,10.8,2.47-16.62,9.59,2.84,4.93,16.52-9.54-3.21,10.52L216,146l4.46-14.57ZM568.22,316.37H581.3L569,304.92h29.09v-8.61H569.11L581.3,285H568.22l-16.94,15.69Zm-89.88,185,9.27,9.27L487,493.81l20.57,20.62,6.1-6.1-20.48-20.48,16.62.6-9.26-9.26-23.09-.84ZM284,568.65v13.13l11.45-12.33v29.13H304v-29l11.35,12.2V568.65l-15.73-16.89Zm-185-89.83-9.26,9.26,16.8-.6L85.91,508.05l6.1,6.1,20.48-20.48-.61,16.61,9.26-9.21.84-23.14ZM31.64,284.44H18.51l12.33,11.45H1.75v8.61h29L18.51,315.86H31.64l16.89-15.73Zm89.88-185-9.27-9.26.61,16.8L92.29,86.39l-6.1,6.09L106.67,113,90,112.36l9.27,9.26,23.08.84ZM315.9,32.11V19L304.44,31.37V2.23h-8.65v29L284.48,19V32.11L300.21,49Zm185,89.88,9.26-9.31-16.8.66L514,92.76l-6.14-6.1-20.48,20.49.6-16.67-9.22,9.26-.83,23.09,23-.84ZM563.2,246.37,575.86,243,561,235.15l28.07-7.59-2.24-8.28-28,7.49,8.84-14.1-12.61,3.39-12.29,19.55Zm-38.92,202,11.36,6.56-4.93-16.1,25.18,14.56,4.28-7.49-25-14.48,16.2-3.72L540,421.15l-22.48,5.16ZM353.92,563.67l3.4,12.66,7.87-14.84,7.54,28.11,8.33-2.23-7.49-28,14.1,8.85-3.35-12.62-19.6-12.28ZM152,524.76l-6.56,11.31,16-4.93-14.52,25.23,7.45,4.32,14.52-25.08,3.72,16.19,6.52-11.31L174,518ZM36.62,354.4,24,357.8l14.85,7.86-28.11,7.55L13,381.54,41,374,32.1,388.15l12.66-3.35,12.29-19.6Zm38.91-202-11.31-6.56,4.93,16.06L44,147.41l-4.33,7.49,25.09,14.48-16.2,3.72,11.31,6.56,22.48-5.16ZM245.89,37.09l-3.4-12.61-7.87,14.85-7.49-28.12-8.38,2.28,7.5,28-14.11-8.85,3.4,12.62,19.55,12.29Zm202,39,6.56-11.36-16.1,5,14.57-25.23-7.5-4.33L431,65.21,427.23,49l-6.56,11.36,5.17,22.53Zm92.35,104,11.36-6.56-16.39-3.72,25.18-14.57-4.32-7.5L531,162.26l4.88-15.92-11.35,6.51-6.75,22.07Zm14.66,205.18,12.66,3.4-8.93-14.24,28.11,7.49,2.23-8.33-28-7.5,14.71-7.77-12.66-3.4-20.39,10.8ZM420.25,540.73l6.52,11.35,3.77-16.43,14.57,25.23,7.45-4.33-14.48-25.09L454,536.35,447.44,525l-22.07-6.75ZM215.08,555.39l-3.4,12.66,14.24-8.89-7.54,28.07,8.33,2.23,7.5-28,7.82,14.7,3.39-12.61-10.84-20.43ZM59.61,420.73l-11.36,6.56,16.39,3.77L39.46,445.58,43.74,453l25.09-14.47-4.89,15.87L75.3,448l6.79-22.11ZM44.9,215.51l-12.66-3.36,8.94,14.25-28.07-7.54-2.23,8.38,28,7.49L24.09,242.5l12.67,3.4,20.38-10.8ZM179.61,60.09,173,48.73l-3.77,16.38L154.75,39.93l-7.49,4.33,14.52,25.09-16-4.89,6.57,11.31,22.06,6.8ZM384.78,45.38l3.4-12.62L373.94,41.7l7.54-28.16-8.38-2.19-7.49,28-7.82-14.71-3.35,12.61,10.79,20.44ZM446,273.08l-6.84.89,7.26,5.16-15.27,2,.61,4.51,15.17-2-5.63,6.75,6.89-.89,7.77-9.35Zm66.24-5.72L513.62,278l8-11.31,3.17,23.83,7.07-.93-3.12-23.69,10.57,8.75L537.92,264l-14.71-12.15Zm-89.7,117L417,380.14l1.49,8.8-12.2-9.36-2.79,3.63,12.15,9.31-8.75.84,5.49,4.19,12.15-1.16Zm50.88,42.77-6.56,8.52,13.68-2.28-14.62,19,5.64,4.33,14.57-18.95,1.3,13.69,6.56-8.57L492.17,424ZM327.25,446.52l-.93-6.89-5.12,7.26-2-15.27-4.52.61,2,15.17-6.8-5.59.93,6.85,9.36,7.72ZM333,512.7l-10.71,1.4,11.36,8-23.83,3.16.93,7,23.69-3.07-8.75,10.57,10.71-1.45,12.14-14.61ZM216,423l4.19-5.49-8.75,1.53,9.35-12.19-3.63-2.79-9.31,12.14-.83-8.75-4.19,5.45L204,425.06Zm-42.78,50.92-8.56-6.61L167,481l-19-14.62-4.33,5.68,18.94,14.52-13.68,1.31,8.56,6.56,19-1.77-3.22-18.76ZM153.87,327.78l6.84-.94-7.26-5.12,15.22-2-.61-4.52-15.12,2,5.58-6.75-6.84.89-7.77,9.4ZM87.63,333.5l-1.4-10.7-8,11.31L75,310.32l-7,.93,3.12,23.65-10.57-8.75,1.4,10.7,14.66,12.2Zm89.65-117.06,5.49,4.19-1.49-8.71,12.2,9.31,2.79-3.63-12.15-9.31,8.75-.79-5.49-4.19-12.1,1.12ZM126.4,173.66,133,165.1l-13.73,2.37,14.62-19.08-5.63-4.29-14.53,19-1.3-13.73-6.56,8.61,1.77,18.94Zm146.16-19.32.93,6.85,5.12-7.27,2.05,15.23,4.51-.56-2-15.18,6.75,5.59-.88-6.84-9.4-7.73Zm-5.73-66.23,10.71-1.4-11.31-8L290,75.54l-.94-7-23.64,3.07L274.19,61l-10.71,1.44L251.33,77.08ZM383.9,177.8l-4.24,5.5,8.75-1.49L379.11,194l3.58,2.8,9.36-12.1.79,8.7,4.19-5.49-1.12-12.11Zm42.78-50.87,8.51,6.56-2.32-13.68L452,134.42l4.28-5.63-18.94-14.57,13.73-1.3-8.61-6.52-19,1.72Zm7.26,109.29-6.38,2.61,8.33,3.07-14.19,5.91,1.72,4.23,14.15-5.86-3.68,8,6.38-2.66,5.12-11.08Zm62.51-22.67,4.1,10,4.84-13,9.17,22.15,6.56-2.7L512,207.87l12.47,5.68-4.1-10-17.31-7.91ZM440.08,349.79l-6.38-2.65,3.68,8.05-14.2-5.86-1.72,4.23,14.15,5.82-8.24,3.07,6.38,2.66,11.45-4.24Zm60.23,28.12-4.14,10,12.61-5.77-9.17,22.2,6.57,2.7,9.12-22.07,4.79,12.85,4.15-9.91L517.63,370ZM364.12,434.46,361.46,428l-3.07,8.33-5.86-14.2-4.24,1.77,5.87,14.1-8-3.63,2.65,6.38,11.08,5.07Zm22.67,62.47-10,4.09,13,4.84L367.65,515l2.7,6.61,22.11-9.17L386.74,525l10-4.14,8-17.31ZM250.54,440.56l2.66-6.38-8.1,3.72L251,423.71,246.77,422l-5.86,14.1-3-8.24-2.65,6.38,4.24,11.4Zm-28.16,60.23-9.91-4.14,5.77,12.66L196,500.09l-2.7,6.61,22.06,9.12-12.89,4.75,10,4.14,17.87-6.61Zm-56.5-136.2,6.42-2.65L164,358.87,178.12,353l-1.72-4.23-14.11,5.86,3.63-8-6.37,2.61-5.08,11.08Zm-62.47,22.72-4.14-10-4.8,13-9.21-22.2-6.57,2.75,9.13,22.06-12.48-5.72,4.15,10,17.31,7.92ZM159.73,251l6.42,2.65-3.72-8,14.2,5.87,1.72-4.24-14.1-5.82,8.24-3.07-6.38-2.65-11.41,4.23ZM99.55,222.91l4.09-10L91,218.72l9.21-22.21-6.56-2.7-9.17,22.07L79.72,203l-4.1,10,6.61,17.83ZM235.7,166.35l2.65,6.43,3.12-8.34,5.86,14.2,4.19-1.77-5.82-14.1,8,3.63L251,160.07,240,155ZM213,103.93l10-4.14L210,95l22.16-9.17-2.7-6.56L207.4,88.34l5.67-12.52-10,4.14-8,17.32Zm136.24,56.32-2.61,6.38,8-3.72-5.86,14.19,4.19,1.77,5.86-14.15L362,173l2.6-6.38-4.19-11.4ZM377.43,100l10,4.15-5.77-12.62,22.15,9.17,2.75-6.56L384.46,85l12.84-4.85-10-4.09-17.82,6.61Zm35.33,103.66-5.49,4.24,8.89.84-12.25,9.35,2.8,3.63,12.15-9.35L417.37,221l5.49-4.18,2.05-12Zm54.46-38.07,6.61,8.56,1.25-13.78,14.62,19,5.68-4.29-14.57-18.94,13.54,2.23-6.56-8.52L469,146.66Zm-19.13,146.2-6.85-.88,5.68,6.84-15.26-2-.61,4.56,15.18,2-7.13,5.08,6.85.88,9.91-7Zm65.44,11.59-1.39,10.71,10.7-8.85-3.16,23.79,7.07.93,3.12-23.69,8,11.21,1.4-10.7-11-15.55ZM396.61,413.28l-4.19-5.49-.84,8.84-9.36-12.19-3.63,2.74L388,419.33l-8.71-1.44,4.24,5.45,12,2Zm38.07,54.46-8.52,6.56,13.78,1.31-19,14.61,4.33,5.64,18.95-14.53-2.28,13.5,8.56-6.56,3.21-18.76ZM288.53,448.56l.88-6.84-6.84,5.68,2-15.22-4.52-.61-2,15.18L273,439.58l-.93,6.84,7.07,9.92ZM276.89,514l-10.66-1.4,8.84,10.66-23.83-3.07-.88,7L274,530.35l-11.17,8,10.71,1.39,15.54-11ZM187.05,397.13l5.5-4.24-8.85-.79,12.2-9.4-2.79-3.58L181,388.43l1.45-8.66L177,384,175,396ZM132.59,435.2,126,426.64l-1.3,13.82-14.62-19.08-5.63,4.38L119,444.7l-13.54-2.33,6.61,8.57,18.76,3.21ZM151.73,289l6.88.89L152.94,283l15.22,2,.6-4.47-15.17-2,7.17-5.12-6.85-.89-9.91,7Zm-65.4-11.59,1.39-10.7L77,275.6l3.12-23.83-7-.94L70,274.53l-8-11.22L60.63,274l11,15.55Zm116.88-89.83,4.23,5.44.79-8.84,9.36,12.19,3.63-2.79-9.31-12.1,8.66,1.44-4.19-5.44-12-2Zm-38.08-54.51,8.57-6.52-13.83-1.3,19-14.61L174.58,105l-18.94,14.48,2.28-13.55-8.52,6.61-3.26,18.76Zm146.2,19.18-.93,6.84,6.84-5.68-2,15.22,4.56.61,2-15.13,5.12,7.12.88-6.84-7-9.91ZM322.92,86.8l10.71,1.4-8.84-10.66,23.78,3.07.89-7-23.65-3.12,11.17-8-10.66-1.4-15.55,11Zm32.21,25-8.33-2.24,5.91,9.4-18.57-5-1.44,5.54,18.43,4.94-9.73,5.16,8.38,2.24,13.45-7.17Z" transform="translate(-1.75 -2.23)" style="fill:#8bc041"/></svg>