<svg id="Layer_1" data-name="Layer 1" xmlns="http://www.w3.org/2000/svg" viewBox="0 0 521.92 521.92"><defs><style>.cls-1{fill:#ff0098;}</style></defs><path class="cls-1" d="M178.42,146.33a6.76,6.76,0,0,1,6.84-6.63,6.84,6.84,0,0,1,3,.8L388.75,254.69a6.64,6.64,0,0,1,0,11.77l-200.52,114a6.69,6.69,0,0,1-3,.74,6.55,6.55,0,0,1-2.05-.32,6.65,6.65,0,0,1-3.91-3.31h0a6.7,6.7,0,0,1-.74-2.74v-.16ZM506.93,3.47H15A10.43,10.43,0,0,0,4.56,13.9V508A10.43,10.43,0,0,0,15,518.45H260.06c146.33-2.19,257.29-113.4,257.29-257.68V13.89A10.41,10.41,0,0,0,506.93,3.47ZM477.46,261.3c-.42,119.24-97.79,216.25-217,216.25h-.85c-119.65-.43-216.67-98.14-216.25-217.84C43.74,140.44,141.11,43.4,260.36,43.4H468.84A8.63,8.63,0,0,1,477.46,52Z"/></svg>