<?xml version="1.0" encoding="utf-8"?>
<!-- Generator: Adobe Illustrator 24.3.0, SVG Export Plug-In . SVG Version: 6.00 Build 0)  -->
<svg version="1.1" id="Layer_1" xmlns="http://www.w3.org/2000/svg" xmlns:xlink="http://www.w3.org/1999/xlink" x="0px" y="0px"
	 viewBox="0 0 110 54" style="enable-background:new 0 0 110 54;" xml:space="preserve">
<style type="text/css">
	.st0{fill:#1E85C7;}
</style>
<g>
	<path class="st0" d="M33.9,0.6H5.5C3.5,0.7,2,2.4,2.1,4.4c0.1,1.9,1.6,3.4,3.5,3.5h16.1c1.4,0,2.6,1.2,2.5,2.6c0,0.5-0.2,1-0.4,1.4
		L0.8,47.8l-0.2,0.4c-0.3,0.6-0.5,1.2-0.5,1.8c0,2,1.6,3.6,3.6,3.7h30.2c2-0.1,3.6-1.8,3.5-3.8c-0.1-1.9-1.6-3.4-3.5-3.5H16.1
		c-1.4,0-2.6-1.1-2.6-2.5c0,0,0-0.1,0-0.1c0-0.4,0.1-0.8,0.3-1.2L37,6.1l0,0c0.4-0.6,0.6-1.2,0.6-1.9C37.6,2.2,35.9,0.6,33.9,0.6z"
		/>
	<path class="st0" d="M72.3,0.6H44c-2,0-3.7,1.6-3.7,3.7c0,2,1.6,3.7,3.7,3.7h6.4c2,0,3.6,1.6,3.6,3.6c0,0,0,0,0,0v37.9l0,0
		c-0.1,2.3,1.6,4.2,3.9,4.3c2.3,0.1,4.2-1.6,4.3-3.9c0-0.1,0-0.3,0-0.4l0,0V11.6c0-2,1.6-3.6,3.6-3.7c0,0,0,0,0,0h6.4
		c2,0.1,3.7-1.4,3.8-3.5c0.1-2-1.4-3.7-3.5-3.8C72.5,0.6,72.4,0.6,72.3,0.6L72.3,0.6z"/>
	<path class="st0" d="M106.2,46.3H90.6c-2,0-3.6-1.6-3.7-3.6v-8.3c0-2,1.6-3.7,3.7-3.7h12.9c2,0,3.7-1.6,3.7-3.7
		c0-2-1.6-3.7-3.7-3.7h-13c-2,0-3.6-1.6-3.6-3.7v-8.3c0-2,1.7-3.6,3.7-3.6h15.7c2-0.1,3.6-1.8,3.5-3.8c-0.1-1.9-1.6-3.4-3.5-3.5
		H82.3c-2,0-3.7,1.6-3.7,3.7V50c0,2,1.6,3.6,3.6,3.7h23.9c2,0,3.7-1.6,3.7-3.7C109.9,48,108.2,46.3,106.2,46.3L106.2,46.3z"/>
</g>
</svg>
