<?xml version="1.0" encoding="utf-8"?>
<!-- Generator: Adobe Illustrator 24.3.0, SVG Export Plug-In . SVG Version: 6.00 Build 0)  -->
<svg version="1.1" id="Layer_1" xmlns="http://www.w3.org/2000/svg" xmlns:xlink="http://www.w3.org/1999/xlink" x="0px" y="0px"
	 viewBox="0 0 245 86" style="enable-background:new 0 0 245 86;" xml:space="preserve">
<style type="text/css">
	.st0{fill:#E85624;}
	.st1{fill:#FFFFFF;}
	.st2{fill:#010101;}
	.st3{fill:#888888;}
</style>
<path class="st0" d="M243,15.1c0,8-6.5,14.5-14.5,14.5c-8,0-14.4-6.5-14.4-14.5c0-8,6.5-14.4,14.4-14.4C236.5,0.6,243,7.1,243,15.1
	C243,15.1,243,15.1,243,15.1z"/>
<path class="st1" d="M218.7,13.2c-1.1,0-1.9,0.9-1.9,1.9c0,1.1,0.9,1.9,1.9,1.9c1.1,0,1.9-0.9,1.9-1.9v0
	C220.7,14,219.8,13.2,218.7,13.2C218.7,13.2,218.7,13.2,218.7,13.2z M232.5,21.9c-0.9,0.5-1.2,1.7-0.7,2.6c0.5,0.9,1.7,1.2,2.6,0.7
	c0.9-0.5,1.2-1.7,0.7-2.6C234.6,21.7,233.4,21.4,232.5,21.9L232.5,21.9z M222.9,15.1c0-1.8,0.9-3.6,2.4-4.6l-1.4-2.4
	c-1.7,1.1-2.9,2.9-3.5,4.9c0.6,0.5,1,1.3,1,2.1c0,0.8-0.4,1.6-1,2.1c0.5,2,1.8,3.7,3.5,4.9l1.4-2.4
	C223.8,18.6,222.9,16.9,222.9,15.1z M228.5,9.5c2.9,0,5.4,2.2,5.6,5.1h2.8c-0.1-2.1-1-4-2.5-5.4c-0.8,0.3-1.6,0.2-2.3-0.2
	c-0.7-0.4-1.2-1.1-1.3-1.9c-0.7-0.2-1.5-0.3-2.2-0.3c-1.3,0-2.6,0.3-3.7,0.9l1.3,2.4C226.9,9.7,227.7,9.5,228.5,9.5L228.5,9.5z
	 M228.5,20.7c-0.8,0-1.6-0.2-2.4-0.5l-1.3,2.4c1.2,0.6,2.4,0.9,3.7,0.9c0.8,0,1.5-0.1,2.2-0.3c0.2-1.5,1.6-2.5,3.1-2.2
	c0.2,0,0.4,0.1,0.5,0.1c1.5-1.4,2.4-3.4,2.5-5.4h-2.8C233.9,18.5,231.4,20.7,228.5,20.7z M232.5,8.3c0.9,0.5,2.1,0.2,2.6-0.7
	c0.5-0.9,0.2-2.1-0.7-2.6c-0.9-0.5-2.1-0.2-2.6,0.7C231.3,6.5,231.6,7.7,232.5,8.3L232.5,8.3z"/>
<path class="st2" d="M30.5,53c-1.5,0.4-3.4,0.8-5.8,1.2c-2.8,0.4-5.6,0.7-8.4,0.6c-2.4,0.1-4.7-0.3-6.9-1.2
	c-1.8-0.7-3.3-1.9-4.5-3.4c-1.2-1.5-2-3.3-2.5-5.2c-0.5-2.2-0.8-4.4-0.8-6.6V18.3H8V37c0,4.4,0.7,7.5,2.1,9.4s3.7,2.8,6.9,2.8
	c0.7,0,1.4,0,2.1-0.1s1.4-0.1,2.1-0.2l1.8-0.2c0.4,0,0.8-0.1,1.1-0.2V18.3h6.4L30.5,53z"/>
<path class="st2" d="M46.1,19.8c1.1-0.7,2.3-1.2,3.5-1.6c1.8-0.6,3.6-0.9,5.5-0.8c2.4,0,4.7,0.4,6.8,1.4c2,0.9,3.7,2.2,5.1,3.9
	c1.4,1.7,2.5,3.8,3.1,5.9c0.7,2.5,1.1,5,1.1,7.6c0,2.7-0.4,5.3-1.3,7.8c-0.8,2.2-2,4.2-3.6,5.9c-1.6,1.6-3.5,2.9-5.6,3.7
	c-2.4,0.9-4.9,1.4-7.4,1.3c-2.6,0-5.3-0.2-7.9-0.6c-2.3-0.4-4.2-0.8-5.6-1.2V1.7l6.4-1.1V19.8z M46.1,48.5c0.9,0.2,1.8,0.4,2.7,0.5
	c1.4,0.2,2.9,0.3,4.4,0.2c3.1,0.1,6.1-1.1,8.3-3.4c2.1-2.3,3.1-5.5,3.1-9.7c0-1.7-0.2-3.5-0.6-5.2c-0.3-1.5-0.9-2.9-1.8-4.2
	c-0.8-1.2-1.9-2.1-3.2-2.8c-1.5-0.7-3.1-1-4.7-1c-1.6,0-3.3,0.3-4.8,0.9c-1.2,0.5-2.3,1.1-3.4,1.9V48.5z"/>
<path class="st2" d="M106.9,53c-1.5,0.4-3.4,0.8-5.8,1.2c-2.8,0.4-5.6,0.7-8.4,0.6c-2.4,0.1-4.8-0.3-7-1.2c-1.8-0.7-3.3-1.9-4.5-3.4
	c-1.2-1.5-2-3.3-2.5-5.2c-0.5-2.2-0.8-4.4-0.8-6.6V18.3h6.4V37c0,4.4,0.7,7.5,2.1,9.4c1.4,1.9,3.7,2.8,6.9,2.8c0.7,0,1.4,0,2.1-0.1
	s1.4-0.1,2.1-0.2l1.8-0.2c0.4,0,0.8-0.1,1.1-0.2V18.3h6.4V53z"/>
<path class="st2" d="M116.1,19.3c1.5-0.4,3.4-0.8,5.8-1.2c2.8-0.4,5.6-0.6,8.4-0.6c2.4-0.1,4.8,0.3,7.1,1.2c1.8,0.7,3.3,1.9,4.5,3.4
	c1.2,1.5,2,3.3,2.4,5.2c0.5,2.2,0.7,4.4,0.7,6.7V54h-6.4V35.3c0-1.9-0.1-3.8-0.5-5.6c-0.2-1.4-0.7-2.6-1.5-3.8
	c-0.7-1-1.7-1.7-2.8-2.1c-1.4-0.5-2.8-0.7-4.3-0.6c-0.7,0-1.4,0-2.1,0.1c-0.7,0.1-1.4,0.1-2.1,0.2s-1.3,0.1-1.8,0.2l-1.1,0.2V54
	h-6.4L116.1,19.3z"/>
<path class="st2" d="M159.8,18.3h13.5v5.4h-13.5v16.5c0,1.5,0.1,3,0.4,4.4c0.2,1,0.6,1.9,1.2,2.8c0.5,0.7,1.3,1.1,2.1,1.4
	c0.9,0.3,1.9,0.4,2.9,0.4c1.6,0.1,3.2-0.2,4.7-0.6c1.2-0.4,1.9-0.8,2.3-0.9l1.4,5.2c-1.1,0.5-2.2,0.9-3.4,1.2
	c-1.8,0.5-3.7,0.8-5.5,0.8c-2,0.1-4.1-0.3-6-0.9c-1.5-0.6-2.8-1.5-3.8-2.8c-1-1.4-1.7-2.9-2-4.6c-0.4-2.1-0.6-4.2-0.6-6.3V8.3
	l6.4-1.1L159.8,18.3z"/>
<path class="st2" d="M208.2,53c-1.5,0.4-3.4,0.8-5.8,1.2c-2.8,0.4-5.6,0.7-8.4,0.6c-2.4,0.1-4.7-0.3-7-1.2c-1.8-0.7-3.3-1.9-4.5-3.4
	c-1.2-1.5-2-3.3-2.5-5.2c-0.5-2.2-0.8-4.4-0.8-6.6V18.3h6.4V37c0,4.4,0.7,7.5,2.1,9.4s3.7,2.8,7,2.8c0.7,0,1.4,0,2.1-0.1
	s1.4-0.1,2.1-0.2l1.8-0.2c0.4,0,0.8-0.1,1.1-0.2V18.3h6.4V53z"/>
<path class="st3" d="M14.8,74.3c0,1.1-0.2,2.2-0.6,3.3c-0.4,0.9-0.9,1.7-1.7,2.3c-0.7,0.6-1.6,1.1-2.6,1.4c-1.1,0.3-2.2,0.5-3.3,0.5
	c-0.6,0-1.2,0-1.9-0.1c-0.6-0.1-1.2-0.1-1.7-0.3V67.2c0.6-0.2,1.1-0.3,1.7-0.3c0.7-0.1,1.3-0.1,1.9-0.1c1.1,0,2.2,0.1,3.3,0.5
	c0.9,0.3,1.8,0.8,2.6,1.4c0.7,0.6,1.3,1.4,1.7,2.3C14.6,72.1,14.8,73.2,14.8,74.3z M4.6,80.4l0.6,0.1c0.6,0,1.1,0.1,1.7,0.1
	c0.9,0,1.9-0.1,2.8-0.4c0.8-0.3,1.4-0.7,2-1.2c0.6-0.6,1-1.2,1.2-2c0.5-1.7,0.5-3.5,0-5.2c-0.2-0.8-0.7-1.4-1.2-2
	c-0.6-0.6-1.2-1-2-1.2C8.8,68.1,7.8,68,6.9,68c-0.6,0-1.1,0-1.7,0.1l-0.6,0.1V80.4z"/>
<path class="st3" d="M17,76.2c0-0.9,0.1-1.7,0.4-2.5c0.2-0.7,0.6-1.3,1.1-1.8c0.4-0.5,0.9-0.8,1.5-1.1c0.6-0.2,1.2-0.3,1.8-0.4
	c1.2-0.1,2.4,0.4,3.2,1.3c0.9,1.2,1.3,2.6,1.2,4c0,0.1,0,0.2,0,0.3v0.3h-7.7c0,1.1,0.3,2.2,1,3.1c0.8,0.8,1.9,1.2,3,1.1
	c0.6,0,1.2-0.1,1.8-0.2c0.3-0.1,0.6-0.2,0.9-0.4l0.2,1.2c-0.4,0.2-0.7,0.3-1.1,0.4c-0.6,0.2-1.3,0.2-1.9,0.2c-0.8,0-1.7-0.1-2.4-0.4
	c-0.6-0.3-1.2-0.7-1.7-1.2c-0.5-0.5-0.8-1.1-1-1.8C17.1,77.7,16.9,76.9,17,76.2z M24.7,75.3c0-1-0.3-1.9-0.8-2.7
	c-0.5-0.6-1.3-1-2.2-1c-0.5,0-0.9,0.1-1.3,0.3c-0.4,0.2-0.7,0.5-1,0.8c-0.3,0.3-0.5,0.7-0.7,1.1c-0.2,0.4-0.3,0.9-0.3,1.4L24.7,75.3
	z"/>
<path class="st3" d="M31.5,81.8c-0.4,0-0.8-0.1-1.2-0.2c-0.3-0.1-0.6-0.3-0.9-0.5c-0.2-0.2-0.4-0.5-0.5-0.9
	c-0.1-0.4-0.2-0.9-0.2-1.3V65.5l1.4-0.2V79c0,0.3,0,0.5,0.1,0.8c0,0.2,0.1,0.4,0.3,0.5c0.1,0.1,0.3,0.2,0.5,0.3
	c0.2,0,0.4,0.1,0.7,0.1L31.5,81.8z"/>
<path class="st3" d="M35.5,67.4c0,0.6-0.4,1-1,1s-1-0.4-1-1c0-0.3,0.1-0.6,0.3-0.8c0.4-0.4,1-0.4,1.4,0c0,0,0,0,0,0
	C35.4,66.8,35.5,67.1,35.5,67.4z M35.2,81.6h-1.4v-11h1.4V81.6z"/>
<path class="st3" d="M41.9,80.2c0.3-0.6,0.6-1.3,0.9-2.1s0.6-1.6,0.9-2.4s0.6-1.7,0.8-2.5s0.5-1.7,0.6-2.4h1.4c-0.3,1-0.5,2-0.9,3
	s-0.6,1.9-1,2.9s-0.7,1.8-1.1,2.7s-0.7,1.7-1.1,2.4h-1.2c-0.4-0.8-0.7-1.6-1.1-2.4s-0.7-1.8-1.1-2.7s-0.7-1.9-1-2.9s-0.6-2-0.9-3
	h1.5c0.2,0.8,0.4,1.5,0.6,2.4s0.5,1.7,0.8,2.5s0.6,1.6,0.9,2.4S41.6,79.6,41.9,80.2z"/>
<path class="st3" d="M47.6,76.2c0-0.9,0.1-1.7,0.4-2.5c0.2-0.7,0.6-1.3,1.1-1.8c0.4-0.5,0.9-0.8,1.5-1.1c0.6-0.2,1.2-0.3,1.8-0.4
	c1.2-0.1,2.4,0.4,3.2,1.3c0.9,1.2,1.3,2.6,1.2,4c0,0.1,0,0.2,0,0.3v0.3h-7.7c0,1.1,0.3,2.2,1,3.1c0.8,0.8,1.9,1.2,3,1.1
	c0.6,0,1.2-0.1,1.8-0.2c0.3-0.1,0.6-0.2,0.9-0.4l0.3,1.2c-0.4,0.2-0.7,0.3-1.1,0.4c-0.6,0.2-1.3,0.2-1.9,0.2c-0.8,0-1.7-0.1-2.5-0.4
	c-0.6-0.3-1.2-0.7-1.7-1.2c-0.5-0.5-0.8-1.1-1-1.8C47.7,77.7,47.6,76.9,47.6,76.2z M55.4,75.3c0-1-0.3-1.9-0.8-2.7
	c-0.5-0.6-1.3-1-2.2-1c-0.5,0-0.9,0.1-1.3,0.3c-0.4,0.2-0.7,0.5-1,0.8c-0.3,0.3-0.5,0.7-0.7,1.1c-0.2,0.4-0.3,0.9-0.3,1.4L55.4,75.3
	z"/>
<path class="st3" d="M63.2,70.5c0.4,0,0.9,0,1.3,0.1c0.3,0,0.6,0.1,0.8,0.2L65,72c-0.2-0.1-0.5-0.2-0.7-0.2
	c-0.5-0.1-0.9-0.1-1.4-0.1c-0.5,0-1,0-1.4,0.1c-0.2,0-0.5,0.1-0.7,0.2v9.6h-1.4V71.2c0.5-0.2,1-0.3,1.5-0.5
	C61.6,70.5,62.4,70.5,63.2,70.5z"/>
<path class="st3" d="M66.2,76.2c0-0.9,0.1-1.7,0.4-2.5c0.2-0.7,0.6-1.3,1.1-1.8c0.4-0.5,0.9-0.8,1.5-1.1c0.6-0.2,1.2-0.3,1.8-0.4
	c1.2-0.1,2.4,0.4,3.2,1.3c0.9,1.2,1.3,2.6,1.2,4c0,0.1,0,0.2,0,0.3v0.3h-7.7c0,1.1,0.3,2.2,1,3.1c0.8,0.8,1.9,1.2,3,1.1
	c0.6,0,1.2-0.1,1.8-0.2c0.3-0.1,0.6-0.2,0.9-0.4l0.3,1.2c-0.4,0.2-0.7,0.3-1.1,0.4c-0.6,0.2-1.3,0.2-1.9,0.2c-0.8,0-1.7-0.1-2.5-0.4
	c-0.6-0.3-1.2-0.7-1.7-1.2c-0.5-0.5-0.8-1.1-1-1.8C66.3,77.7,66.2,76.9,66.2,76.2z M73.9,75.3c0-1-0.2-1.9-0.8-2.7
	c-0.5-0.6-1.3-1-2.2-1c-0.5,0-0.9,0.1-1.3,0.3c-0.4,0.2-0.7,0.5-1,0.8c-0.3,0.3-0.5,0.7-0.7,1.1c-0.2,0.4-0.3,0.9-0.3,1.4L73.9,75.3
	z"/>
<path class="st3" d="M86.8,81.3c-0.5,0.2-1,0.3-1.6,0.4c-0.8,0.1-1.6,0.2-2.4,0.2c-0.7,0-1.5-0.1-2.2-0.4c-0.6-0.3-1.2-0.6-1.7-1.1
	c-0.5-0.5-0.9-1.1-1.1-1.8c-0.3-0.8-0.4-1.6-0.4-2.4c0-0.8,0.1-1.6,0.3-2.3c0.2-0.7,0.5-1.3,1-1.8c0.4-0.5,1-0.9,1.6-1.2
	c1.3-0.5,2.7-0.6,4-0.1c0.4,0.1,0.8,0.3,1.1,0.6v-5.9l1.4-0.2L86.8,81.3z M85.5,72.7c-0.2-0.1-0.3-0.2-0.5-0.3
	c-0.2-0.1-0.4-0.2-0.7-0.3c-0.3-0.1-0.5-0.2-0.8-0.2c-0.3-0.1-0.6-0.1-0.9-0.1c-0.6,0-1.2,0.1-1.7,0.4c-0.4,0.2-0.8,0.6-1.1,1
	c-0.3,0.4-0.5,0.9-0.6,1.4c-0.1,0.6-0.2,1.1-0.2,1.7c-0.1,1.2,0.3,2.4,1.1,3.3c0.7,0.8,1.8,1.2,2.9,1.1c0.5,0,1.1,0,1.6-0.1
	c0.3,0,0.6-0.1,0.9-0.2V72.7z"/>
<path class="st3" d="M96.7,71.3c0.4-0.2,0.7-0.4,1.1-0.6c1.3-0.5,2.7-0.4,4,0.1c0.6,0.3,1.1,0.7,1.6,1.2c0.5,0.5,0.8,1.1,1,1.8
	c0.2,0.7,0.3,1.5,0.3,2.3c0,0.8-0.1,1.6-0.4,2.4c-0.2,0.7-0.6,1.3-1.1,1.8c-0.5,0.5-1.1,0.9-1.7,1.1c-0.7,0.3-1.4,0.4-2.2,0.4
	c-0.8,0-1.6,0-2.4-0.2c-0.5-0.1-1.1-0.2-1.6-0.4V65.5l1.4-0.2L96.7,71.3z M96.7,80.3c0.3,0.1,0.6,0.2,0.9,0.2
	c0.5,0.1,1.1,0.1,1.6,0.1c1.1,0,2.1-0.4,2.9-1.1c0.8-0.9,1.2-2.1,1.1-3.3c0-0.6-0.1-1.2-0.2-1.7c-0.1-0.5-0.3-1-0.6-1.4
	c-0.3-0.4-0.7-0.8-1.1-1c-0.5-0.3-1.1-0.4-1.7-0.4c-0.3,0-0.6,0-0.9,0.1c-0.3,0.1-0.6,0.1-0.8,0.2c-0.2,0.1-0.4,0.2-0.7,0.3
	c-0.2,0.1-0.3,0.2-0.5,0.3L96.7,80.3z"/>
<path class="st3" d="M110.2,81.9c-0.5-0.9-0.9-1.8-1.3-2.7s-0.8-1.9-1.2-2.8s-0.7-1.9-1-2.9s-0.6-1.9-0.8-2.8h1.4
	c0.1,0.7,0.4,1.4,0.6,2.2s0.5,1.6,0.8,2.4s0.6,1.7,1,2.6s0.8,1.7,1.2,2.6c0.3-0.9,0.6-1.7,0.8-2.5s0.5-1.5,0.7-2.3s0.4-1.6,0.6-2.4
	s0.4-1.7,0.6-2.6h1.4c-0.5,2-1,4-1.6,6c-0.5,1.8-1.2,3.6-1.9,5.3c-0.2,0.6-0.5,1.1-0.8,1.6c-0.3,0.4-0.6,0.8-0.9,1.1
	c-0.4,0.3-0.8,0.5-1.2,0.7c-0.5,0.1-1.1,0.2-1.6,0.2c-0.3,0-0.7,0-1-0.1c-0.2,0-0.4-0.1-0.6-0.2l0.3-1.1c0.2,0.1,0.3,0.1,0.5,0.2
	c0.3,0.1,0.5,0.1,0.8,0.1c0.4,0,0.7,0,1.1-0.1c0.3-0.1,0.6-0.2,0.9-0.4c0.3-0.2,0.5-0.5,0.7-0.8C109.8,82.7,110,82.3,110.2,81.9z"/>
<path class="st3" d="M128.3,82c-0.9,0-1.8-0.2-2.6-0.5c-0.8-0.3-1.5-0.8-2.1-1.5c-0.6-0.7-1.1-1.5-1.4-2.4c-0.4-1.1-0.5-2.2-0.5-3.3
	c0-1.1,0.2-2.2,0.6-3.3c0.3-0.9,0.8-1.7,1.5-2.4c0.6-0.6,1.3-1.1,2.2-1.5c0.8-0.3,1.7-0.5,2.6-0.5c0.5,0,1,0,1.5,0.1
	c0.4,0.1,0.8,0.1,1.2,0.3c0.3,0.1,0.6,0.2,0.9,0.3c0.2,0.1,0.4,0.2,0.5,0.3l-0.5,1.2c-0.4-0.2-0.9-0.5-1.3-0.6
	c-1.5-0.5-3-0.4-4.4,0.2c-0.7,0.3-1.3,0.7-1.7,1.3c-0.5,0.6-0.8,1.3-1,2c-0.2,0.8-0.4,1.7-0.4,2.6c0,0.9,0.1,1.8,0.4,2.6
	c0.2,0.7,0.5,1.4,1,2c0.4,0.5,1,1,1.7,1.3c0.7,0.3,1.5,0.5,2.3,0.4c0.8,0,1.6-0.1,2.3-0.3c0.5-0.1,1-0.3,1.4-0.5l0.4,1.2
	c-0.2,0.1-0.3,0.2-0.5,0.2c-0.2,0.1-0.5,0.2-0.9,0.3c-0.4,0.1-0.8,0.2-1.3,0.2C129.4,81.9,128.8,82,128.3,82z"/>
<path class="st3" d="M138.3,70.5c0.6,0,1.2,0.1,1.8,0.3c0.5,0.2,0.9,0.5,1.2,0.8c0.3,0.4,0.6,0.8,0.7,1.3c0.1,0.5,0.2,1.1,0.2,1.6
	v6.9c-0.2,0.1-0.4,0.1-0.6,0.1l-0.9,0.2c-0.4,0.1-0.7,0.1-1.2,0.1s-0.9,0-1.3,0c-0.5,0-1.1-0.1-1.6-0.2c-0.5-0.1-0.9-0.3-1.3-0.6
	c-0.4-0.3-0.7-0.6-0.9-1.1c-0.2-0.5-0.3-1-0.3-1.6c0-0.5,0.1-1.1,0.3-1.5c0.2-0.4,0.6-0.8,1-1c0.4-0.3,0.9-0.5,1.5-0.6
	c0.6-0.1,1.2-0.2,1.8-0.2h0.6c0.2,0,0.4,0,0.6,0.1l0.5,0.1c0.1,0,0.2,0.1,0.3,0.1v-0.7c0-0.4,0-0.7-0.1-1.1c-0.1-0.4-0.2-0.7-0.4-1
	c-0.2-0.3-0.5-0.5-0.8-0.7c-0.4-0.2-0.9-0.3-1.4-0.3c-0.6,0-1.2,0-1.8,0.2c-0.4,0.1-0.7,0.2-0.9,0.3l-0.2-1.2
	c0.4-0.1,0.7-0.3,1.1-0.3C137.1,70.4,137.7,70.4,138.3,70.5z M138.4,80.7c0.5,0,1,0,1.4,0c0.3,0,0.7-0.1,1-0.1v-3.9
	c-0.2-0.1-0.5-0.2-0.7-0.2c-0.5-0.1-0.9-0.1-1.4-0.1c-0.4,0-0.7,0-1.1,0.1c-0.3,0-0.7,0.2-1,0.3c-0.3,0.2-0.6,0.4-0.8,0.7
	c-0.2,0.3-0.3,0.7-0.3,1.1c0,0.3,0.1,0.7,0.2,1c0.1,0.3,0.3,0.5,0.6,0.7c0.3,0.2,0.6,0.3,0.9,0.4C137.6,80.6,138,80.6,138.4,80.7
	L138.4,80.7z"/>
<path class="st3" d="M145.3,71.1c0.4-0.1,1-0.2,1.7-0.4c0.8-0.2,1.7-0.2,2.5-0.2c0.7,0,1.4,0.1,2.1,0.4c0.5,0.2,1,0.6,1.3,1
	c0.3,0.5,0.6,1,0.7,1.6c0.1,0.7,0.2,1.4,0.2,2v6.1h-1.3v-5.7c0-0.7,0-1.3-0.2-2c-0.1-0.5-0.3-0.9-0.5-1.3c-0.3-0.3-0.6-0.6-1-0.7
	c-0.5-0.2-1-0.2-1.5-0.2c-0.6,0-1.1,0-1.7,0.1c-0.3,0-0.6,0.1-0.9,0.2v9.6h-1.4V71.1z"/>
<path class="st3" d="M166.4,76.2c0,0.8-0.1,1.6-0.4,2.4c-0.2,0.7-0.5,1.3-1,1.8c-0.4,0.5-1,0.9-1.6,1.2c-1.3,0.5-2.7,0.5-4,0
	c-0.6-0.3-1.1-0.7-1.6-1.2c-0.4-0.5-0.8-1.1-1-1.8c-0.5-1.5-0.5-3.2,0-4.7c0.2-0.7,0.6-1.3,1-1.8c0.4-0.5,1-0.9,1.6-1.2
	c1.3-0.5,2.7-0.5,4,0c0.6,0.3,1.1,0.7,1.6,1.2c0.4,0.5,0.8,1.1,1,1.8C166.2,74.6,166.4,75.4,166.4,76.2z M164.9,76.2
	c0.1-1.2-0.3-2.3-1-3.3c-1.2-1.4-3.3-1.6-4.7-0.5c-0.2,0.1-0.3,0.3-0.5,0.5c-1.3,2-1.3,4.5,0,6.5c1.2,1.4,3.3,1.6,4.7,0.4
	c0.2-0.1,0.3-0.3,0.4-0.4C164.6,78.5,165,77.3,164.9,76.2z"/>
<path class="st3" d="M169,71.1c0.4-0.1,1-0.2,1.6-0.4c0.9-0.2,1.7-0.2,2.6-0.2c0.7,0,1.4,0.1,2.1,0.4c0.5,0.2,1,0.6,1.3,1
	c0.3,0.5,0.6,1,0.7,1.6c0.1,0.7,0.2,1.4,0.2,2v6.1h-1.4v-5.7c0-0.7,0-1.3-0.2-2c-0.1-0.5-0.3-0.9-0.5-1.3c-0.2-0.3-0.6-0.6-1-0.7
	c-0.5-0.2-1-0.2-1.5-0.2c-0.6,0-1.1,0-1.7,0.1c-0.3,0-0.6,0.1-0.9,0.2v9.6H169L169,71.1z"/>
<path class="st3" d="M182.3,67.4c0,0.3-0.1,0.6-0.3,0.8c-0.2,0.2-0.5,0.3-0.7,0.3c-0.3,0-0.5-0.1-0.7-0.3c-0.2-0.2-0.3-0.5-0.3-0.8
	c0-0.3,0.1-0.6,0.3-0.8c0.2-0.2,0.5-0.3,0.7-0.3c0.3,0,0.5,0.1,0.7,0.3C182.2,66.8,182.4,67.1,182.3,67.4z M182,81.6h-1.4v-11h1.4
	V81.6z"/>
<path class="st3" d="M189.8,81.9c-0.8,0-1.5-0.1-2.2-0.4c-0.6-0.3-1.2-0.7-1.6-1.2c-0.5-0.5-0.8-1.1-1-1.8c-0.2-0.8-0.4-1.5-0.3-2.3
	c0-0.8,0.1-1.6,0.4-2.4c0.2-0.7,0.5-1.3,1-1.8c0.4-0.5,1-0.9,1.6-1.2c0.7-0.3,1.4-0.4,2.1-0.4c0.6,0,1.1,0,1.7,0.1
	c0.4,0.1,0.8,0.2,1.2,0.4l-0.4,1.2c-0.3-0.2-0.6-0.3-1-0.3c-0.5-0.1-0.9-0.1-1.4-0.1c-1.1-0.1-2.1,0.4-2.8,1.2c-0.7,1-1,2.1-1,3.3
	c0,0.6,0.1,1.2,0.2,1.8c0.1,0.5,0.4,1,0.7,1.4c0.3,0.4,0.8,0.7,1.2,0.9c0.6,0.2,1.2,0.3,1.8,0.3c0.5,0,1-0.1,1.5-0.2
	c0.3-0.1,0.6-0.2,0.9-0.4l0.3,1.2c-0.4,0.2-0.8,0.3-1.2,0.4C190.9,81.8,190.4,81.9,189.8,81.9z"/>
<path class="st3" d="M198.3,70.5c0.6,0,1.2,0.1,1.8,0.3c0.5,0.2,0.9,0.5,1.2,0.8c0.3,0.4,0.6,0.8,0.7,1.3c0.1,0.5,0.2,1.1,0.2,1.6
	v6.9c-0.2,0.1-0.4,0.1-0.6,0.1l-0.9,0.2c-0.4,0.1-0.8,0.1-1.2,0.1s-0.9,0-1.3,0c-0.5,0-1.1-0.1-1.6-0.2c-0.5-0.1-0.9-0.3-1.3-0.6
	c-0.4-0.3-0.6-0.6-0.8-1.1c-0.2-0.5-0.3-1-0.3-1.6c0-0.5,0.1-1.1,0.3-1.5c0.2-0.4,0.6-0.8,1-1c0.4-0.3,0.9-0.5,1.5-0.6
	c0.6-0.1,1.2-0.2,1.9-0.2h0.6c0.2,0,0.4,0,0.6,0.1l0.5,0.1c0.1,0,0.2,0.1,0.3,0.1v-0.7c0-0.4,0-0.7-0.1-1.1c-0.1-0.4-0.2-0.7-0.4-1
	c-0.2-0.3-0.5-0.5-0.8-0.7c-0.4-0.2-0.9-0.3-1.4-0.3c-0.6,0-1.2,0-1.8,0.2c-0.4,0.1-0.7,0.2-0.9,0.3l-0.2-1.2
	c0.4-0.2,0.7-0.3,1.1-0.3C197.1,70.4,197.7,70.4,198.3,70.5z M198.4,80.7c0.5,0,1,0,1.4,0c0.3,0,0.7-0.1,1-0.1v-3.9
	c-0.2-0.1-0.5-0.2-0.7-0.2c-0.5-0.1-0.9-0.1-1.4-0.1c-0.3,0-0.7,0-1,0.1c-0.3,0-0.7,0.2-1,0.3c-0.3,0.2-0.6,0.4-0.8,0.7
	c-0.2,0.3-0.3,0.7-0.3,1.1c0,0.3,0.1,0.7,0.2,1c0.1,0.3,0.3,0.5,0.6,0.7c0.3,0.2,0.6,0.3,0.9,0.4C197.6,80.6,198,80.6,198.4,80.7
	L198.4,80.7z"/>
<path class="st3" d="M208.1,81.8c-0.4,0-0.8-0.1-1.2-0.2c-0.3-0.1-0.6-0.3-0.9-0.5c-0.2-0.2-0.4-0.5-0.5-0.9
	c-0.1-0.4-0.2-0.9-0.2-1.3V65.5l1.4-0.2V79c0,0.3,0,0.5,0.1,0.8c0.1,0.2,0.2,0.4,0.3,0.5c0.1,0.1,0.3,0.2,0.5,0.3
	c0.2,0.1,0.5,0.1,0.7,0.1L208.1,81.8z"/>
</svg>
