<?xml version="1.0" encoding="utf-8"?>
<!-- Generator: Adobe Illustrator 24.3.0, SVG Export Plug-In . SVG Version: 6.00 Build 0)  -->
<svg version="1.1" id="Layer_1" xmlns="http://www.w3.org/2000/svg" xmlns:xlink="http://www.w3.org/1999/xlink" x="0px" y="0px"
	 viewBox="0 0 310 70" style="enable-background:new 0 0 310 70;" xml:space="preserve">
<style type="text/css">
	.st0{fill:url(#SVGID_1_);}
	.st1{fill:url(#SVGID_2_);}
	.st2{fill:url(#SVGID_3_);}
	.st3{fill:url(#SVGID_4_);}
	.st4{fill:url(#SVGID_5_);}
	.st5{fill:url(#SVGID_6_);}
	.st6{fill:url(#SVGID_7_);}
	.st7{fill:url(#SVGID_8_);}
	.st8{fill:#231815;}
</style>
<radialGradient id="SVGID_1_" cx="56.3964" cy="67.6748" r="65.09" gradientTransform="matrix(0.99 0 0 -0.99 3.22 76.15)" gradientUnits="userSpaceOnUse">
	<stop  offset="0" style="stop-color:#F7BFA4"/>
	<stop  offset="0.43" style="stop-color:#E41E26"/>
	<stop  offset="1" style="stop-color:#9F1C20"/>
</radialGradient>
<path class="st0" d="M40.7,52.7c0.1-0.1,0.1-0.2,0.1-0.3l0,0c-6.7-14.3-15-27.7-24.7-40.1c0,0-7.8,7.4-7.2,14.8
	c0.3,3.4,1.9,6.7,4.5,8.9c6.8,6.6,23.2,15,27,16.9C40.4,52.9,40.6,52.8,40.7,52.7z"/>
<radialGradient id="SVGID_2_" cx="57.1838" cy="67.535" r="65.1" gradientTransform="matrix(1 0 0 -1 0 71.09)" gradientUnits="userSpaceOnUse">
	<stop  offset="0" style="stop-color:#F7BFA4"/>
	<stop  offset="0.43" style="stop-color:#E41E26"/>
	<stop  offset="1" style="stop-color:#9F1C20"/>
</radialGradient>
<path class="st1" d="M38.1,58.3c-0.1-0.2-0.2-0.3-0.4-0.2l0,0l-27.3,1c3,5.3,8,9.4,13.2,8.1c3.6-0.9,11.7-6.6,14.4-8.5l0,0
	C38.2,58.5,38.1,58.3,38.1,58.3z"/>
<radialGradient id="SVGID_3_" cx="57.1838" cy="67.525" r="65.08" gradientTransform="matrix(1 0 0 -1 0 71.09)" gradientUnits="userSpaceOnUse">
	<stop  offset="0" style="stop-color:#F7BFA4"/>
	<stop  offset="0.43" style="stop-color:#E41E26"/>
	<stop  offset="1" style="stop-color:#9F1C20"/>
</radialGradient>
<path class="st2" d="M38.5,55.9c0.1-0.2-0.1-0.4-0.1-0.4l0,0C26.4,47.4,3.1,35,3.1,35C0.5,43,4.6,51.8,12.5,55
	c1.7,0.7,3.4,1.1,5.2,1.1c0.4,0.1,16.3,0,20.5,0C38.4,56.1,38.5,56,38.5,55.9z"/>
<radialGradient id="SVGID_4_" cx="57.1838" cy="67.525" r="65.08" gradientTransform="matrix(1 0 0 -1 0 71.09)" gradientUnits="userSpaceOnUse">
	<stop  offset="0" style="stop-color:#F7BFA4"/>
	<stop  offset="0.43" style="stop-color:#E41E26"/>
	<stop  offset="1" style="stop-color:#9F1C20"/>
</radialGradient>
<path class="st3" d="M40.3,0.4c-1.2,0.1-4.4,0.8-4.4,0.8c-4.3,1.1-7.7,4.3-9,8.4c-0.8,2.8-0.8,5.8,0,8.7c2.4,10.7,14.3,28.3,16.9,32
	c0.2,0.2,0.3,0.1,0.3,0.1c0.2,0,0.3-0.2,0.3-0.3l0,0C48.4,10.8,40.3,0.4,40.3,0.4z"/>
<radialGradient id="SVGID_5_" cx="57.1938" cy="67.525" r="65.16" gradientTransform="matrix(1 0 0 -1 0 71.09)" gradientUnits="userSpaceOnUse">
	<stop  offset="0" style="stop-color:#F7BFA4"/>
	<stop  offset="0.43" style="stop-color:#E41E26"/>
	<stop  offset="1" style="stop-color:#9F1C20"/>
</radialGradient>
<path class="st4" d="M49.4,50.5c0.2,0.1,0.3,0,0.4-0.2l0,0c2.6-3.8,14.4-21.3,16.9-32c0,0,1.3-5.2,0-8.7c-1.3-4.2-4.7-7.4-9-8.4
	c0,0-2.1-0.5-4.3-0.8c0,0-8.1,10.4-4.2,49.8l0,0C49.2,50.3,49.3,50.4,49.4,50.5z"/>
<radialGradient id="SVGID_6_" cx="57.1938" cy="67.525" r="65.15" gradientTransform="matrix(1 0 0 -1 0 71.09)" gradientUnits="userSpaceOnUse">
	<stop  offset="0" style="stop-color:#F7BFA4"/>
	<stop  offset="0.43" style="stop-color:#E41E26"/>
	<stop  offset="1" style="stop-color:#9F1C20"/>
</radialGradient>
<path class="st5" d="M55.9,58.1c-0.1,0-0.2,0.1-0.3,0.2c0,0.1,0,0.3,0.1,0.4l0,0c2.6,1.9,10.6,7.4,14.4,8.5c0,0,7.1,2.4,13.2-8.1
	L55.9,58.1L55.9,58.1z"/>
<radialGradient id="SVGID_7_" cx="57.1938" cy="67.515" r="65.15" gradientTransform="matrix(1 0 0 -1 0 71.09)" gradientUnits="userSpaceOnUse">
	<stop  offset="0" style="stop-color:#F7BFA4"/>
	<stop  offset="0.43" style="stop-color:#E41E26"/>
	<stop  offset="1" style="stop-color:#9F1C20"/>
</radialGradient>
<path class="st6" d="M90.5,34.9c0,0-23.2,12.5-35.3,20.6l0,0c-0.1,0.1-0.2,0.2-0.1,0.4c0,0,0.1,0.2,0.3,0.2l0,0c4.3,0,20.6,0,21-0.1
	c1.6-0.1,3.2-0.5,4.7-1.1c3.9-1.5,7.1-4.6,8.8-8.4C91.5,42.8,91.7,38.7,90.5,34.9z"/>
<radialGradient id="SVGID_8_" cx="57.1938" cy="67.515" r="65.15" gradientTransform="matrix(1 0 0 -1 0 71.09)" gradientUnits="userSpaceOnUse">
	<stop  offset="0" style="stop-color:#F7BFA4"/>
	<stop  offset="0.43" style="stop-color:#E41E26"/>
	<stop  offset="1" style="stop-color:#9F1C20"/>
</radialGradient>
<path class="st7" d="M53,52.7c0.1,0.1,0.3,0.1,0.4,0l0,0c3.9-1.9,20.2-10.2,27-16.8c2.6-2.3,4.2-5.5,4.5-8.9
	c0.5-7.7-7.2-14.7-7.2-14.7c-9.8,12.3-18,25.8-24.7,40l0,0C52.9,52.4,52.9,52.6,53,52.7z"/>
<polygon class="st8" points="130.4,36.1 114.9,36.1 114.9,22.5 108.1,22.5 108.1,56.3 114.9,56.3 114.9,42.6 130.4,42.6 130.4,56.3 
	137.2,56.3 137.2,22.5 130.4,22.5 "/>
<path class="st8" d="M169,41.8c0,5.5-2.7,8.4-7.7,8.4s-7.7-3-7.7-8.7V22.5h-6.9v19.3c0,9.5,5.3,15,14.5,15s14.6-5.6,14.6-15.2V22.5
	H169V41.8z"/>
<polygon class="st8" points="248.2,45.7 240.6,22.5 235,22.5 227.3,45.7 219.8,22.5 212.5,22.5 224.3,56.3 230,56.3 237.7,34.1 
	245.3,56.3 251.1,56.3 262.8,22.5 255.7,22.5 "/>
<polygon class="st8" points="275.1,41.7 287.6,41.7 287.6,35.6 275.1,35.6 275.1,28.7 293.2,28.7 293.2,22.5 268.3,22.5 268.3,56.3 
	293.8,56.3 293.8,50.1 275.1,50.1 "/>
<rect x="302" y="22.5" class="st8" width="6.8" height="33.7"/>
<path class="st8" d="M204.9,49.3l3,7h7.2l-14.7-33.6l-0.1-0.2h-6l-14.9,33.8h7l2.9-6.5l0,0l0.2-0.5L204.9,49.3z M197.1,31.1
	l4.9,11.3l0,0l0.3,0.8H192l0.3-0.8l0,0L197.1,31.1z"/>
</svg>
