<svg xmlns="http://www.w3.org/2000/svg" xmlns:xlink="http://www.w3.org/1999/xlink" viewBox="0 0 484 484"><defs><style>.cls-1{fill:none;}.cls-2{isolation:isolate;}.cls-3{clip-path:url(#clip-path);}.cls-4{fill:#ec1d46;}.cls-5{opacity:0.5;}.cls-6{mix-blend-mode:multiply;}.cls-7{fill:#cb2d2b;}.cls-8{fill:#fff;}</style><clipPath id="clip-path"><rect class="cls-1" width="484" height="484"/></clipPath></defs><g class="cls-2"><g id="Layer_1" data-name="Layer 1"><g class="cls-3"><rect class="cls-4" width="484" height="484"/><g class="cls-5"><g class="cls-6"><path class="cls-7" d="M5.4,242a2.37,2.37,0,1,0,2.37-2.39A2.38,2.38,0,0,0,5.4,242Z"/><path class="cls-7" d="M5.4,223.81a2.37,2.37,0,1,0,2.37-2.4A2.39,2.39,0,0,0,5.4,223.81Z"/><path class="cls-7" d="M23.42,242a2.37,2.37,0,1,0,2.37-2.39A2.39,2.39,0,0,0,23.42,242Z"/><path class="cls-7" d="M23.42,223.81a2.37,2.37,0,1,0,2.37-2.4A2.39,2.39,0,0,0,23.42,223.81Z"/><path class="cls-7" d="M5.4,205.66a2.37,2.37,0,1,0,2.37-2.39A2.38,2.38,0,0,0,5.4,205.66Z"/><path class="cls-7" d="M5.4,187.46a2.37,2.37,0,1,0,2.37-2.39A2.38,2.38,0,0,0,5.4,187.46Z"/><path class="cls-7" d="M23.42,205.66a2.37,2.37,0,1,0,2.37-2.39A2.39,2.39,0,0,0,23.42,205.66Z"/><path class="cls-7" d="M23.42,187.46a2.37,2.37,0,1,0,2.37-2.39A2.39,2.39,0,0,0,23.42,187.46Z"/><path class="cls-7" d="M5.4,169.32a2.37,2.37,0,1,0,2.37-2.39A2.38,2.38,0,0,0,5.4,169.32Z"/><path class="cls-7" d="M5.4,151.12a2.37,2.37,0,1,0,2.37-2.39A2.38,2.38,0,0,0,5.4,151.12Z"/><path class="cls-7" d="M23.42,169.32a2.37,2.37,0,1,0,2.37-2.39A2.39,2.39,0,0,0,23.42,169.32Z"/><path class="cls-7" d="M23.42,151.12a2.37,2.37,0,1,0,2.37-2.39A2.39,2.39,0,0,0,23.42,151.12Z"/><path class="cls-7" d="M5.4,133a2.37,2.37,0,1,0,2.37-2.39A2.39,2.39,0,0,0,5.4,133Z"/><path class="cls-7" d="M5.4,114.78a2.37,2.37,0,1,0,2.37-2.39A2.38,2.38,0,0,0,5.4,114.78Z"/><path class="cls-7" d="M23.42,133a2.37,2.37,0,1,0,2.37-2.39A2.39,2.39,0,0,0,23.42,133Z"/><path class="cls-7" d="M23.42,114.78a2.37,2.37,0,1,0,2.37-2.39A2.39,2.39,0,0,0,23.42,114.78Z"/><path class="cls-7" d="M5.4,96.63a2.37,2.37,0,1,0,2.37-2.39A2.39,2.39,0,0,0,5.4,96.63Z"/><path class="cls-7" d="M5.4,78.44a2.37,2.37,0,1,0,2.37-2.39A2.38,2.38,0,0,0,5.4,78.44Z"/><path class="cls-7" d="M23.42,96.63a2.37,2.37,0,1,0,2.37-2.39A2.39,2.39,0,0,0,23.42,96.63Z"/><path class="cls-7" d="M23.42,78.44a2.37,2.37,0,1,0,2.37-2.39A2.39,2.39,0,0,0,23.42,78.44Z"/><path class="cls-7" d="M5.4,60.29A2.37,2.37,0,1,0,7.77,57.9,2.38,2.38,0,0,0,5.4,60.29Z"/><path class="cls-7" d="M5.4,42.1a2.37,2.37,0,1,0,2.37-2.39A2.38,2.38,0,0,0,5.4,42.1Z"/><path class="cls-7" d="M23.42,60.29a2.37,2.37,0,1,0,2.37-2.39A2.39,2.39,0,0,0,23.42,60.29Z"/><path class="cls-7" d="M23.42,42.1a2.37,2.37,0,1,0,2.37-2.39A2.39,2.39,0,0,0,23.42,42.1Z"/><path class="cls-7" d="M5.4,24a2.37,2.37,0,1,0,2.37-2.39A2.38,2.38,0,0,0,5.4,24Z"/><path class="cls-7" d="M5.4,5.76A2.37,2.37,0,1,0,7.77,3.37,2.38,2.38,0,0,0,5.4,5.76Z"/><path class="cls-7" d="M23.42,24a2.37,2.37,0,1,0,2.37-2.39A2.39,2.39,0,0,0,23.42,24Z"/><path class="cls-7" d="M23.42,5.76a2.37,2.37,0,1,0,2.37-2.39A2.39,2.39,0,0,0,23.42,5.76Z"/><path class="cls-7" d="M41.43,242a2.37,2.37,0,1,0,2.37-2.39A2.39,2.39,0,0,0,41.43,242Z"/><path class="cls-7" d="M41.43,223.81a2.37,2.37,0,1,0,2.37-2.4A2.39,2.39,0,0,0,41.43,223.81Z"/><path class="cls-7" d="M59.46,242a2.37,2.37,0,1,0,2.37-2.39A2.38,2.38,0,0,0,59.46,242Z"/><path class="cls-7" d="M59.46,223.81a2.37,2.37,0,1,0,2.37-2.4A2.39,2.39,0,0,0,59.46,223.81Z"/><path class="cls-7" d="M41.43,205.66a2.37,2.37,0,1,0,2.37-2.39A2.39,2.39,0,0,0,41.43,205.66Z"/><path class="cls-7" d="M41.43,187.46a2.37,2.37,0,1,0,2.37-2.39A2.39,2.39,0,0,0,41.43,187.46Z"/><path class="cls-7" d="M59.46,205.66a2.37,2.37,0,1,0,2.37-2.39A2.38,2.38,0,0,0,59.46,205.66Z"/><path class="cls-7" d="M59.46,187.46a2.37,2.37,0,1,0,2.37-2.39A2.38,2.38,0,0,0,59.46,187.46Z"/><path class="cls-7" d="M41.43,169.32a2.37,2.37,0,1,0,2.37-2.39A2.39,2.39,0,0,0,41.43,169.32Z"/><path class="cls-7" d="M41.43,151.12a2.37,2.37,0,1,0,2.37-2.39A2.39,2.39,0,0,0,41.43,151.12Z"/><path class="cls-7" d="M59.46,169.32a2.37,2.37,0,1,0,2.37-2.39A2.38,2.38,0,0,0,59.46,169.32Z"/><path class="cls-7" d="M59.46,151.12a2.37,2.37,0,1,0,2.37-2.39A2.38,2.38,0,0,0,59.46,151.12Z"/><path class="cls-7" d="M41.43,133a2.37,2.37,0,1,0,2.37-2.39A2.39,2.39,0,0,0,41.43,133Z"/><path class="cls-7" d="M41.43,114.78a2.37,2.37,0,1,0,2.37-2.39A2.39,2.39,0,0,0,41.43,114.78Z"/><path class="cls-7" d="M59.46,133a2.37,2.37,0,1,0,2.37-2.39A2.39,2.39,0,0,0,59.46,133Z"/><path class="cls-7" d="M59.46,114.78a2.37,2.37,0,1,0,2.37-2.39A2.38,2.38,0,0,0,59.46,114.78Z"/><path class="cls-7" d="M41.43,96.63a2.37,2.37,0,1,0,2.37-2.39A2.39,2.39,0,0,0,41.43,96.63Z"/><path class="cls-7" d="M41.43,78.44a2.37,2.37,0,1,0,2.37-2.39A2.39,2.39,0,0,0,41.43,78.44Z"/><path class="cls-7" d="M59.46,96.63a2.37,2.37,0,1,0,2.37-2.39A2.39,2.39,0,0,0,59.46,96.63Z"/><path class="cls-7" d="M59.46,78.44a2.37,2.37,0,1,0,2.37-2.39A2.38,2.38,0,0,0,59.46,78.44Z"/><path class="cls-7" d="M41.43,60.29A2.37,2.37,0,1,0,43.8,57.9,2.39,2.39,0,0,0,41.43,60.29Z"/><path class="cls-7" d="M41.43,42.1a2.37,2.37,0,1,0,2.37-2.39A2.39,2.39,0,0,0,41.43,42.1Z"/><path class="cls-7" d="M59.46,60.29a2.37,2.37,0,1,0,2.37-2.39A2.38,2.38,0,0,0,59.46,60.29Z"/><path class="cls-7" d="M59.46,42.1a2.37,2.37,0,1,0,2.37-2.39A2.38,2.38,0,0,0,59.46,42.1Z"/><path class="cls-7" d="M41.43,24a2.37,2.37,0,1,0,2.37-2.39A2.39,2.39,0,0,0,41.43,24Z"/><path class="cls-7" d="M41.43,5.76A2.37,2.37,0,1,0,43.8,3.37,2.39,2.39,0,0,0,41.43,5.76Z"/><path class="cls-7" d="M59.46,24a2.37,2.37,0,1,0,2.37-2.39A2.38,2.38,0,0,0,59.46,24Z"/><path class="cls-7" d="M59.46,5.76a2.37,2.37,0,1,0,2.37-2.39A2.38,2.38,0,0,0,59.46,5.76Z"/><path class="cls-7" d="M77.47,242a2.37,2.37,0,1,0,2.37-2.39A2.38,2.38,0,0,0,77.47,242Z"/><path class="cls-7" d="M77.47,223.81a2.37,2.37,0,1,0,2.37-2.4A2.39,2.39,0,0,0,77.47,223.81Z"/><path class="cls-7" d="M95.49,242a2.37,2.37,0,1,0,2.37-2.39A2.39,2.39,0,0,0,95.49,242Z"/><path class="cls-7" d="M95.49,223.81a2.37,2.37,0,1,0,2.37-2.4A2.39,2.39,0,0,0,95.49,223.81Z"/><path class="cls-7" d="M77.47,205.66a2.37,2.37,0,1,0,2.37-2.39A2.38,2.38,0,0,0,77.47,205.66Z"/><path class="cls-7" d="M77.47,187.46a2.37,2.37,0,1,0,2.37-2.39A2.38,2.38,0,0,0,77.47,187.46Z"/><path class="cls-7" d="M95.49,205.66a2.37,2.37,0,1,0,2.37-2.39A2.39,2.39,0,0,0,95.49,205.66Z"/><path class="cls-7" d="M95.49,187.46a2.37,2.37,0,1,0,2.37-2.39A2.39,2.39,0,0,0,95.49,187.46Z"/><path class="cls-7" d="M77.47,169.32a2.37,2.37,0,1,0,2.37-2.39A2.38,2.38,0,0,0,77.47,169.32Z"/><path class="cls-7" d="M77.47,151.12a2.37,2.37,0,1,0,2.37-2.39A2.38,2.38,0,0,0,77.47,151.12Z"/><path class="cls-7" d="M95.49,169.32a2.37,2.37,0,1,0,2.37-2.39A2.39,2.39,0,0,0,95.49,169.32Z"/><path class="cls-7" d="M95.49,151.12a2.37,2.37,0,1,0,2.37-2.39A2.39,2.39,0,0,0,95.49,151.12Z"/><path class="cls-7" d="M77.47,133a2.37,2.37,0,1,0,2.37-2.39A2.39,2.39,0,0,0,77.47,133Z"/><path class="cls-7" d="M77.47,114.78a2.37,2.37,0,1,0,2.37-2.39A2.38,2.38,0,0,0,77.47,114.78Z"/><path class="cls-7" d="M95.49,133a2.37,2.37,0,1,0,2.37-2.39A2.39,2.39,0,0,0,95.49,133Z"/><path class="cls-7" d="M95.49,114.78a2.37,2.37,0,1,0,2.37-2.39A2.39,2.39,0,0,0,95.49,114.78Z"/><path class="cls-7" d="M77.47,96.63a2.37,2.37,0,1,0,2.37-2.39A2.39,2.39,0,0,0,77.47,96.63Z"/><path class="cls-7" d="M77.47,78.44a2.37,2.37,0,1,0,2.37-2.39A2.38,2.38,0,0,0,77.47,78.44Z"/><path class="cls-7" d="M95.49,96.63a2.37,2.37,0,1,0,2.37-2.39A2.39,2.39,0,0,0,95.49,96.63Z"/><path class="cls-7" d="M95.49,78.44a2.37,2.37,0,1,0,2.37-2.39A2.39,2.39,0,0,0,95.49,78.44Z"/><path class="cls-7" d="M77.47,60.29a2.37,2.37,0,1,0,2.37-2.39A2.38,2.38,0,0,0,77.47,60.29Z"/><path class="cls-7" d="M77.47,42.1a2.37,2.37,0,1,0,2.37-2.39A2.38,2.38,0,0,0,77.47,42.1Z"/><path class="cls-7" d="M95.49,60.29a2.37,2.37,0,1,0,2.37-2.39A2.39,2.39,0,0,0,95.49,60.29Z"/><path class="cls-7" d="M95.49,42.1a2.37,2.37,0,1,0,2.37-2.39A2.39,2.39,0,0,0,95.49,42.1Z"/><path class="cls-7" d="M77.47,24a2.37,2.37,0,1,0,2.37-2.39A2.38,2.38,0,0,0,77.47,24Z"/><path class="cls-7" d="M77.47,5.76a2.37,2.37,0,1,0,2.37-2.39A2.38,2.38,0,0,0,77.47,5.76Z"/><path class="cls-7" d="M95.49,24a2.37,2.37,0,1,0,2.37-2.39A2.39,2.39,0,0,0,95.49,24Z"/><path class="cls-7" d="M95.49,5.76a2.37,2.37,0,1,0,2.37-2.39A2.39,2.39,0,0,0,95.49,5.76Z"/><path class="cls-7" d="M113.5,242a2.37,2.37,0,1,0,2.37-2.39A2.39,2.39,0,0,0,113.5,242Z"/><path class="cls-7" d="M113.5,223.81a2.37,2.37,0,1,0,2.37-2.4A2.39,2.39,0,0,0,113.5,223.81Z"/><path class="cls-7" d="M131.53,242a2.37,2.37,0,1,0,2.37-2.39A2.38,2.38,0,0,0,131.53,242Z"/><path class="cls-7" d="M131.53,223.81a2.37,2.37,0,1,0,2.37-2.4A2.39,2.39,0,0,0,131.53,223.81Z"/><path class="cls-7" d="M113.5,205.66a2.37,2.37,0,1,0,2.37-2.39A2.39,2.39,0,0,0,113.5,205.66Z"/><path class="cls-7" d="M113.5,187.46a2.37,2.37,0,1,0,2.37-2.39A2.39,2.39,0,0,0,113.5,187.46Z"/><path class="cls-7" d="M131.53,205.66a2.37,2.37,0,1,0,2.37-2.39A2.38,2.38,0,0,0,131.53,205.66Z"/><path class="cls-7" d="M131.53,187.46a2.37,2.37,0,1,0,2.37-2.39A2.38,2.38,0,0,0,131.53,187.46Z"/><path class="cls-7" d="M113.5,169.32a2.37,2.37,0,1,0,2.37-2.39A2.39,2.39,0,0,0,113.5,169.32Z"/><path class="cls-7" d="M113.5,151.12a2.37,2.37,0,1,0,2.37-2.39A2.39,2.39,0,0,0,113.5,151.12Z"/><path class="cls-7" d="M131.53,169.32a2.37,2.37,0,1,0,2.37-2.39A2.38,2.38,0,0,0,131.53,169.32Z"/><path class="cls-7" d="M131.53,151.12a2.37,2.37,0,1,0,2.37-2.39A2.38,2.38,0,0,0,131.53,151.12Z"/><path class="cls-7" d="M113.5,133a2.37,2.37,0,1,0,2.37-2.39A2.39,2.39,0,0,0,113.5,133Z"/><path class="cls-7" d="M113.5,114.78a2.37,2.37,0,1,0,2.37-2.39A2.39,2.39,0,0,0,113.5,114.78Z"/><path class="cls-7" d="M131.53,133a2.37,2.37,0,1,0,2.37-2.39A2.39,2.39,0,0,0,131.53,133Z"/><path class="cls-7" d="M131.53,114.78a2.37,2.37,0,1,0,2.37-2.39A2.38,2.38,0,0,0,131.53,114.78Z"/><path class="cls-7" d="M113.5,96.63a2.37,2.37,0,1,0,2.37-2.39A2.39,2.39,0,0,0,113.5,96.63Z"/><path class="cls-7" d="M113.5,78.44a2.37,2.37,0,1,0,2.37-2.39A2.39,2.39,0,0,0,113.5,78.44Z"/><path class="cls-7" d="M131.53,96.63a2.37,2.37,0,1,0,2.37-2.39A2.39,2.39,0,0,0,131.53,96.63Z"/><path class="cls-7" d="M131.53,78.44a2.37,2.37,0,1,0,2.37-2.39A2.38,2.38,0,0,0,131.53,78.44Z"/><path class="cls-7" d="M113.5,60.29a2.37,2.37,0,1,0,2.37-2.39A2.39,2.39,0,0,0,113.5,60.29Z"/><path class="cls-7" d="M113.5,42.1a2.37,2.37,0,1,0,2.37-2.39A2.39,2.39,0,0,0,113.5,42.1Z"/><path class="cls-7" d="M131.53,60.29a2.37,2.37,0,1,0,2.37-2.39A2.38,2.38,0,0,0,131.53,60.29Z"/><path class="cls-7" d="M131.53,42.1a2.37,2.37,0,1,0,2.37-2.39A2.38,2.38,0,0,0,131.53,42.1Z"/><path class="cls-7" d="M113.5,24a2.37,2.37,0,1,0,2.37-2.39A2.39,2.39,0,0,0,113.5,24Z"/><path class="cls-7" d="M113.5,5.76a2.37,2.37,0,1,0,2.37-2.39A2.39,2.39,0,0,0,113.5,5.76Z"/><path class="cls-7" d="M131.53,24a2.37,2.37,0,1,0,2.37-2.39A2.38,2.38,0,0,0,131.53,24Z"/><path class="cls-7" d="M131.53,5.76a2.37,2.37,0,1,0,2.37-2.39A2.38,2.38,0,0,0,131.53,5.76Z"/><path class="cls-7" d="M149.54,242a2.37,2.37,0,1,0,2.37-2.39A2.38,2.38,0,0,0,149.54,242Z"/><path class="cls-7" d="M149.54,223.81a2.37,2.37,0,1,0,2.37-2.4A2.39,2.39,0,0,0,149.54,223.81Z"/><path class="cls-7" d="M167.56,242a2.37,2.37,0,1,0,2.37-2.39A2.38,2.38,0,0,0,167.56,242Z"/><path class="cls-7" d="M167.56,223.81a2.37,2.37,0,1,0,2.37-2.4A2.39,2.39,0,0,0,167.56,223.81Z"/><path class="cls-7" d="M149.54,205.66a2.37,2.37,0,1,0,2.37-2.39A2.38,2.38,0,0,0,149.54,205.66Z"/><path class="cls-7" d="M149.54,187.46a2.37,2.37,0,1,0,2.37-2.39A2.38,2.38,0,0,0,149.54,187.46Z"/><path class="cls-7" d="M167.56,205.66a2.37,2.37,0,1,0,2.37-2.39A2.38,2.38,0,0,0,167.56,205.66Z"/><path class="cls-7" d="M167.56,187.46a2.37,2.37,0,1,0,2.37-2.39A2.38,2.38,0,0,0,167.56,187.46Z"/><path class="cls-7" d="M149.54,169.32a2.37,2.37,0,1,0,2.37-2.39A2.38,2.38,0,0,0,149.54,169.32Z"/><path class="cls-7" d="M149.54,151.12a2.37,2.37,0,1,0,2.37-2.39A2.38,2.38,0,0,0,149.54,151.12Z"/><path class="cls-7" d="M167.56,169.32a2.37,2.37,0,1,0,2.37-2.39A2.38,2.38,0,0,0,167.56,169.32Z"/><path class="cls-7" d="M167.56,151.12a2.37,2.37,0,1,0,2.37-2.39A2.38,2.38,0,0,0,167.56,151.12Z"/><path class="cls-7" d="M149.54,133a2.37,2.37,0,1,0,2.37-2.39A2.39,2.39,0,0,0,149.54,133Z"/><path class="cls-7" d="M149.54,114.78a2.37,2.37,0,1,0,2.37-2.39A2.38,2.38,0,0,0,149.54,114.78Z"/><path class="cls-7" d="M167.56,133a2.37,2.37,0,1,0,2.37-2.39A2.39,2.39,0,0,0,167.56,133Z"/><path class="cls-7" d="M167.56,114.78a2.37,2.37,0,1,0,2.37-2.39A2.38,2.38,0,0,0,167.56,114.78Z"/><path class="cls-7" d="M149.54,96.63a2.37,2.37,0,1,0,2.37-2.39A2.39,2.39,0,0,0,149.54,96.63Z"/><path class="cls-7" d="M149.54,78.44a2.37,2.37,0,1,0,2.37-2.39A2.38,2.38,0,0,0,149.54,78.44Z"/><path class="cls-7" d="M167.56,96.63a2.37,2.37,0,1,0,2.37-2.39A2.39,2.39,0,0,0,167.56,96.63Z"/><path class="cls-7" d="M167.56,78.44a2.37,2.37,0,1,0,2.37-2.39A2.38,2.38,0,0,0,167.56,78.44Z"/><path class="cls-7" d="M149.54,60.29a2.37,2.37,0,1,0,2.37-2.39A2.38,2.38,0,0,0,149.54,60.29Z"/><path class="cls-7" d="M149.54,42.1a2.37,2.37,0,1,0,2.37-2.39A2.38,2.38,0,0,0,149.54,42.1Z"/><path class="cls-7" d="M167.56,60.29a2.37,2.37,0,1,0,2.37-2.39A2.38,2.38,0,0,0,167.56,60.29Z"/><path class="cls-7" d="M167.56,42.1a2.37,2.37,0,1,0,2.37-2.39A2.38,2.38,0,0,0,167.56,42.1Z"/><path class="cls-7" d="M149.54,24a2.37,2.37,0,1,0,2.37-2.39A2.38,2.38,0,0,0,149.54,24Z"/><path class="cls-7" d="M149.54,5.76a2.37,2.37,0,1,0,2.37-2.39A2.38,2.38,0,0,0,149.54,5.76Z"/><path class="cls-7" d="M167.56,24a2.37,2.37,0,1,0,2.37-2.39A2.38,2.38,0,0,0,167.56,24Z"/><path class="cls-7" d="M167.56,5.76a2.37,2.37,0,1,0,2.37-2.39A2.38,2.38,0,0,0,167.56,5.76Z"/><path class="cls-7" d="M185.57,242a2.37,2.37,0,1,0,2.37-2.39A2.39,2.39,0,0,0,185.57,242Z"/><path class="cls-7" d="M185.57,223.81a2.37,2.37,0,1,0,2.37-2.4A2.39,2.39,0,0,0,185.57,223.81Z"/><path class="cls-7" d="M203.6,242a2.37,2.37,0,1,0,2.37-2.39A2.38,2.38,0,0,0,203.6,242Z"/><path class="cls-7" d="M203.6,223.81a2.37,2.37,0,1,0,2.37-2.4A2.39,2.39,0,0,0,203.6,223.81Z"/><path class="cls-7" d="M185.57,205.66a2.37,2.37,0,1,0,2.37-2.39A2.39,2.39,0,0,0,185.57,205.66Z"/><path class="cls-7" d="M185.57,187.46a2.37,2.37,0,1,0,2.37-2.39A2.39,2.39,0,0,0,185.57,187.46Z"/><path class="cls-7" d="M203.6,205.66a2.37,2.37,0,1,0,2.37-2.39A2.38,2.38,0,0,0,203.6,205.66Z"/><path class="cls-7" d="M203.6,187.46a2.37,2.37,0,1,0,2.37-2.39A2.38,2.38,0,0,0,203.6,187.46Z"/><path class="cls-7" d="M185.57,169.32a2.37,2.37,0,1,0,2.37-2.39A2.39,2.39,0,0,0,185.57,169.32Z"/><path class="cls-7" d="M185.57,151.12a2.37,2.37,0,1,0,2.37-2.39A2.39,2.39,0,0,0,185.57,151.12Z"/><path class="cls-7" d="M203.6,169.32a2.37,2.37,0,1,0,2.37-2.39A2.38,2.38,0,0,0,203.6,169.32Z"/><path class="cls-7" d="M203.6,151.12a2.37,2.37,0,1,0,2.37-2.39A2.38,2.38,0,0,0,203.6,151.12Z"/><path class="cls-7" d="M185.57,133a2.37,2.37,0,1,0,2.37-2.39A2.39,2.39,0,0,0,185.57,133Z"/><path class="cls-7" d="M185.57,114.78a2.37,2.37,0,1,0,2.37-2.39A2.39,2.39,0,0,0,185.57,114.78Z"/><path class="cls-7" d="M203.6,133a2.37,2.37,0,1,0,2.37-2.39A2.39,2.39,0,0,0,203.6,133Z"/><path class="cls-7" d="M203.6,114.78a2.37,2.37,0,1,0,2.37-2.39A2.38,2.38,0,0,0,203.6,114.78Z"/><path class="cls-7" d="M185.57,96.63a2.37,2.37,0,1,0,2.37-2.39A2.39,2.39,0,0,0,185.57,96.63Z"/><path class="cls-7" d="M185.57,78.44a2.37,2.37,0,1,0,2.37-2.39A2.39,2.39,0,0,0,185.57,78.44Z"/><path class="cls-7" d="M203.6,96.63A2.37,2.37,0,1,0,206,94.24,2.39,2.39,0,0,0,203.6,96.63Z"/><path class="cls-7" d="M203.6,78.44A2.37,2.37,0,1,0,206,76.05,2.38,2.38,0,0,0,203.6,78.44Z"/><path class="cls-7" d="M185.57,60.29a2.37,2.37,0,1,0,2.37-2.39A2.39,2.39,0,0,0,185.57,60.29Z"/><path class="cls-7" d="M185.57,42.1a2.37,2.37,0,1,0,2.37-2.39A2.39,2.39,0,0,0,185.57,42.1Z"/><path class="cls-7" d="M203.6,60.29A2.37,2.37,0,1,0,206,57.9,2.38,2.38,0,0,0,203.6,60.29Z"/><path class="cls-7" d="M203.6,42.1A2.37,2.37,0,1,0,206,39.71,2.38,2.38,0,0,0,203.6,42.1Z"/><path class="cls-7" d="M185.57,24a2.37,2.37,0,1,0,2.37-2.39A2.39,2.39,0,0,0,185.57,24Z"/><path class="cls-7" d="M185.57,5.76a2.37,2.37,0,1,0,2.37-2.39A2.39,2.39,0,0,0,185.57,5.76Z"/><path class="cls-7" d="M203.6,24A2.37,2.37,0,1,0,206,21.56,2.38,2.38,0,0,0,203.6,24Z"/><path class="cls-7" d="M203.6,5.76A2.37,2.37,0,1,0,206,3.37,2.38,2.38,0,0,0,203.6,5.76Z"/><path class="cls-7" d="M221.61,242a2.37,2.37,0,1,0,2.37-2.39A2.38,2.38,0,0,0,221.61,242Z"/><path class="cls-7" d="M221.61,223.81a2.37,2.37,0,1,0,2.37-2.4A2.39,2.39,0,0,0,221.61,223.81Z"/><path class="cls-7" d="M239.63,242a2.37,2.37,0,1,0,2.37-2.39A2.38,2.38,0,0,0,239.63,242Z"/><path class="cls-7" d="M239.63,223.81a2.37,2.37,0,1,0,2.37-2.4A2.39,2.39,0,0,0,239.63,223.81Z"/><path class="cls-7" d="M221.61,205.66a2.37,2.37,0,1,0,2.37-2.39A2.38,2.38,0,0,0,221.61,205.66Z"/><path class="cls-7" d="M221.61,187.46a2.37,2.37,0,1,0,2.37-2.39A2.38,2.38,0,0,0,221.61,187.46Z"/><path class="cls-7" d="M239.63,205.66a2.37,2.37,0,1,0,2.37-2.39A2.38,2.38,0,0,0,239.63,205.66Z"/><path class="cls-7" d="M239.63,187.46a2.37,2.37,0,1,0,2.37-2.39A2.38,2.38,0,0,0,239.63,187.46Z"/><path class="cls-7" d="M221.61,169.32a2.37,2.37,0,1,0,2.37-2.39A2.38,2.38,0,0,0,221.61,169.32Z"/><path class="cls-7" d="M221.61,151.12a2.37,2.37,0,1,0,2.37-2.39A2.38,2.38,0,0,0,221.61,151.12Z"/><path class="cls-7" d="M239.63,169.32a2.37,2.37,0,1,0,2.37-2.39A2.38,2.38,0,0,0,239.63,169.32Z"/><path class="cls-7" d="M239.63,151.12a2.37,2.37,0,1,0,2.37-2.39A2.38,2.38,0,0,0,239.63,151.12Z"/><path class="cls-7" d="M221.61,133a2.37,2.37,0,1,0,2.37-2.39A2.39,2.39,0,0,0,221.61,133Z"/><path class="cls-7" d="M221.61,114.78a2.37,2.37,0,1,0,2.37-2.39A2.38,2.38,0,0,0,221.61,114.78Z"/><path class="cls-7" d="M239.63,133a2.37,2.37,0,1,0,2.37-2.39A2.39,2.39,0,0,0,239.63,133Z"/><path class="cls-7" d="M239.63,114.78a2.37,2.37,0,1,0,2.37-2.39A2.38,2.38,0,0,0,239.63,114.78Z"/><path class="cls-7" d="M221.61,96.63A2.37,2.37,0,1,0,224,94.24,2.39,2.39,0,0,0,221.61,96.63Z"/><path class="cls-7" d="M221.61,78.44A2.37,2.37,0,1,0,224,76.05,2.38,2.38,0,0,0,221.61,78.44Z"/><path class="cls-7" d="M239.63,96.63A2.37,2.37,0,1,0,242,94.24,2.39,2.39,0,0,0,239.63,96.63Z"/><path class="cls-7" d="M239.63,78.44A2.37,2.37,0,1,0,242,76.05,2.38,2.38,0,0,0,239.63,78.44Z"/><path class="cls-7" d="M221.61,60.29A2.37,2.37,0,1,0,224,57.9,2.38,2.38,0,0,0,221.61,60.29Z"/><path class="cls-7" d="M221.61,42.1A2.37,2.37,0,1,0,224,39.71,2.38,2.38,0,0,0,221.61,42.1Z"/><path class="cls-7" d="M239.63,60.29A2.37,2.37,0,1,0,242,57.9,2.38,2.38,0,0,0,239.63,60.29Z"/><path class="cls-7" d="M239.63,42.1A2.37,2.37,0,1,0,242,39.71,2.38,2.38,0,0,0,239.63,42.1Z"/><path class="cls-7" d="M221.61,24A2.37,2.37,0,1,0,224,21.56,2.38,2.38,0,0,0,221.61,24Z"/><path class="cls-7" d="M221.61,5.76A2.37,2.37,0,1,0,224,3.37,2.38,2.38,0,0,0,221.61,5.76Z"/><path class="cls-7" d="M239.63,24A2.37,2.37,0,1,0,242,21.56,2.38,2.38,0,0,0,239.63,24Z"/><path class="cls-7" d="M239.63,5.76A2.37,2.37,0,1,0,242,3.37,2.38,2.38,0,0,0,239.63,5.76Z"/><path class="cls-7" d="M257.66,242a2.37,2.37,0,1,0,2.36-2.39A2.38,2.38,0,0,0,257.66,242Z"/><path class="cls-7" d="M257.66,223.81a2.37,2.37,0,1,0,2.36-2.4A2.38,2.38,0,0,0,257.66,223.81Z"/><path class="cls-7" d="M257.66,205.66a2.37,2.37,0,1,0,2.36-2.39A2.38,2.38,0,0,0,257.66,205.66Z"/><path class="cls-7" d="M257.66,187.46a2.37,2.37,0,1,0,2.36-2.39A2.38,2.38,0,0,0,257.66,187.46Z"/><path class="cls-7" d="M257.66,169.32a2.37,2.37,0,1,0,2.36-2.39A2.38,2.38,0,0,0,257.66,169.32Z"/><path class="cls-7" d="M257.66,151.12a2.37,2.37,0,1,0,2.36-2.39A2.38,2.38,0,0,0,257.66,151.12Z"/><path class="cls-7" d="M257.66,133a2.37,2.37,0,1,0,2.36-2.39A2.38,2.38,0,0,0,257.66,133Z"/><path class="cls-7" d="M257.66,114.78a2.37,2.37,0,1,0,2.36-2.39A2.38,2.38,0,0,0,257.66,114.78Z"/><path class="cls-7" d="M257.66,96.63A2.37,2.37,0,1,0,260,94.24,2.39,2.39,0,0,0,257.66,96.63Z"/><path class="cls-7" d="M257.66,78.44A2.37,2.37,0,1,0,260,76.05,2.38,2.38,0,0,0,257.66,78.44Z"/><path class="cls-7" d="M257.66,60.29A2.37,2.37,0,1,0,260,57.9,2.38,2.38,0,0,0,257.66,60.29Z"/><path class="cls-7" d="M257.66,42.1A2.37,2.37,0,1,0,260,39.71,2.38,2.38,0,0,0,257.66,42.1Z"/><path class="cls-7" d="M257.66,24A2.37,2.37,0,1,0,260,21.56,2.38,2.38,0,0,0,257.66,24Z"/><path class="cls-7" d="M257.66,5.76A2.37,2.37,0,1,0,260,3.37,2.38,2.38,0,0,0,257.66,5.76Z"/><path class="cls-7" d="M275.67,242a2.37,2.37,0,1,0,2.36-2.39A2.38,2.38,0,0,0,275.67,242Z"/><path class="cls-7" d="M275.67,223.81a2.37,2.37,0,1,0,2.36-2.4A2.38,2.38,0,0,0,275.67,223.81Z"/><path class="cls-7" d="M293.69,242a2.37,2.37,0,1,0,2.37-2.39A2.38,2.38,0,0,0,293.69,242Z"/><path class="cls-7" d="M293.69,223.81a2.37,2.37,0,1,0,2.37-2.4A2.39,2.39,0,0,0,293.69,223.81Z"/><path class="cls-7" d="M275.67,205.66a2.37,2.37,0,1,0,2.36-2.39A2.38,2.38,0,0,0,275.67,205.66Z"/><path class="cls-7" d="M275.67,187.46a2.37,2.37,0,1,0,2.36-2.39A2.38,2.38,0,0,0,275.67,187.46Z"/><path class="cls-7" d="M293.69,205.66a2.37,2.37,0,1,0,2.37-2.39A2.38,2.38,0,0,0,293.69,205.66Z"/><path class="cls-7" d="M293.69,187.46a2.37,2.37,0,1,0,2.37-2.39A2.38,2.38,0,0,0,293.69,187.46Z"/><path class="cls-7" d="M275.67,169.32a2.37,2.37,0,1,0,2.36-2.39A2.38,2.38,0,0,0,275.67,169.32Z"/><path class="cls-7" d="M275.67,151.12a2.37,2.37,0,1,0,2.36-2.39A2.38,2.38,0,0,0,275.67,151.12Z"/><path class="cls-7" d="M293.69,169.32a2.37,2.37,0,1,0,2.37-2.39A2.38,2.38,0,0,0,293.69,169.32Z"/><path class="cls-7" d="M293.69,151.12a2.37,2.37,0,1,0,2.37-2.39A2.38,2.38,0,0,0,293.69,151.12Z"/><path class="cls-7" d="M275.67,133a2.37,2.37,0,1,0,2.36-2.39A2.38,2.38,0,0,0,275.67,133Z"/><path class="cls-7" d="M275.67,114.78a2.37,2.37,0,1,0,2.36-2.39A2.38,2.38,0,0,0,275.67,114.78Z"/><path class="cls-7" d="M293.69,133a2.37,2.37,0,1,0,2.37-2.39A2.39,2.39,0,0,0,293.69,133Z"/><path class="cls-7" d="M293.69,114.78a2.37,2.37,0,1,0,2.37-2.39A2.38,2.38,0,0,0,293.69,114.78Z"/><path class="cls-7" d="M275.67,96.63A2.37,2.37,0,1,0,278,94.24,2.39,2.39,0,0,0,275.67,96.63Z"/><path class="cls-7" d="M275.67,78.44A2.37,2.37,0,1,0,278,76.05,2.38,2.38,0,0,0,275.67,78.44Z"/><path class="cls-7" d="M293.69,96.63a2.37,2.37,0,1,0,2.37-2.39A2.39,2.39,0,0,0,293.69,96.63Z"/><path class="cls-7" d="M293.69,78.44a2.37,2.37,0,1,0,2.37-2.39A2.38,2.38,0,0,0,293.69,78.44Z"/><path class="cls-7" d="M275.67,60.29A2.37,2.37,0,1,0,278,57.9,2.38,2.38,0,0,0,275.67,60.29Z"/><path class="cls-7" d="M275.67,42.1A2.37,2.37,0,1,0,278,39.71,2.38,2.38,0,0,0,275.67,42.1Z"/><path class="cls-7" d="M293.69,60.29a2.37,2.37,0,1,0,2.37-2.39A2.38,2.38,0,0,0,293.69,60.29Z"/><path class="cls-7" d="M293.69,42.1a2.37,2.37,0,1,0,2.37-2.39A2.38,2.38,0,0,0,293.69,42.1Z"/><path class="cls-7" d="M275.67,24A2.37,2.37,0,1,0,278,21.56,2.38,2.38,0,0,0,275.67,24Z"/><path class="cls-7" d="M275.67,5.76A2.37,2.37,0,1,0,278,3.37,2.38,2.38,0,0,0,275.67,5.76Z"/><path class="cls-7" d="M293.69,24a2.37,2.37,0,1,0,2.37-2.39A2.38,2.38,0,0,0,293.69,24Z"/><path class="cls-7" d="M293.69,5.76a2.37,2.37,0,1,0,2.37-2.39A2.38,2.38,0,0,0,293.69,5.76Z"/><path class="cls-7" d="M311.7,242a2.37,2.37,0,1,0,2.37-2.39A2.38,2.38,0,0,0,311.7,242Z"/><path class="cls-7" d="M311.7,223.81a2.37,2.37,0,1,0,2.37-2.4A2.39,2.39,0,0,0,311.7,223.81Z"/><path class="cls-7" d="M329.72,242a2.37,2.37,0,1,0,2.37-2.39A2.39,2.39,0,0,0,329.72,242Z"/><path class="cls-7" d="M329.72,223.81a2.37,2.37,0,1,0,2.37-2.4A2.39,2.39,0,0,0,329.72,223.81Z"/><path class="cls-7" d="M311.7,205.66a2.37,2.37,0,1,0,2.37-2.39A2.38,2.38,0,0,0,311.7,205.66Z"/><path class="cls-7" d="M311.7,187.46a2.37,2.37,0,1,0,2.37-2.39A2.38,2.38,0,0,0,311.7,187.46Z"/><path class="cls-7" d="M329.72,205.66a2.37,2.37,0,1,0,2.37-2.39A2.39,2.39,0,0,0,329.72,205.66Z"/><path class="cls-7" d="M329.72,187.46a2.37,2.37,0,1,0,2.37-2.39A2.39,2.39,0,0,0,329.72,187.46Z"/><path class="cls-7" d="M311.7,169.32a2.37,2.37,0,1,0,2.37-2.39A2.38,2.38,0,0,0,311.7,169.32Z"/><path class="cls-7" d="M311.7,151.12a2.37,2.37,0,1,0,2.37-2.39A2.38,2.38,0,0,0,311.7,151.12Z"/><path class="cls-7" d="M329.72,169.32a2.37,2.37,0,1,0,2.37-2.39A2.39,2.39,0,0,0,329.72,169.32Z"/><path class="cls-7" d="M329.72,151.12a2.37,2.37,0,1,0,2.37-2.39A2.39,2.39,0,0,0,329.72,151.12Z"/><path class="cls-7" d="M311.7,133a2.37,2.37,0,1,0,2.37-2.39A2.39,2.39,0,0,0,311.7,133Z"/><path class="cls-7" d="M311.7,114.78a2.37,2.37,0,1,0,2.37-2.39A2.38,2.38,0,0,0,311.7,114.78Z"/><path class="cls-7" d="M329.72,133a2.37,2.37,0,1,0,2.37-2.39A2.39,2.39,0,0,0,329.72,133Z"/><path class="cls-7" d="M329.72,114.78a2.37,2.37,0,1,0,2.37-2.39A2.39,2.39,0,0,0,329.72,114.78Z"/><path class="cls-7" d="M311.7,96.63a2.37,2.37,0,1,0,2.37-2.39A2.39,2.39,0,0,0,311.7,96.63Z"/><path class="cls-7" d="M311.7,78.44a2.37,2.37,0,1,0,2.37-2.39A2.38,2.38,0,0,0,311.7,78.44Z"/><path class="cls-7" d="M329.72,96.63a2.37,2.37,0,1,0,2.37-2.39A2.39,2.39,0,0,0,329.72,96.63Z"/><path class="cls-7" d="M329.72,78.44a2.37,2.37,0,1,0,2.37-2.39A2.39,2.39,0,0,0,329.72,78.44Z"/><path class="cls-7" d="M311.7,60.29a2.37,2.37,0,1,0,2.37-2.39A2.38,2.38,0,0,0,311.7,60.29Z"/><path class="cls-7" d="M311.7,42.1a2.37,2.37,0,1,0,2.37-2.39A2.38,2.38,0,0,0,311.7,42.1Z"/><path class="cls-7" d="M329.72,60.29a2.37,2.37,0,1,0,2.37-2.39A2.39,2.39,0,0,0,329.72,60.29Z"/><path class="cls-7" d="M329.72,42.1a2.37,2.37,0,1,0,2.37-2.39A2.39,2.39,0,0,0,329.72,42.1Z"/><path class="cls-7" d="M311.7,24a2.37,2.37,0,1,0,2.37-2.39A2.38,2.38,0,0,0,311.7,24Z"/><path class="cls-7" d="M311.7,5.76a2.37,2.37,0,1,0,2.37-2.39A2.38,2.38,0,0,0,311.7,5.76Z"/><path class="cls-7" d="M329.72,24a2.37,2.37,0,1,0,2.37-2.39A2.39,2.39,0,0,0,329.72,24Z"/><path class="cls-7" d="M329.72,5.76a2.37,2.37,0,1,0,2.37-2.39A2.39,2.39,0,0,0,329.72,5.76Z"/><path class="cls-7" d="M347.74,242a2.37,2.37,0,1,0,2.36-2.39A2.38,2.38,0,0,0,347.74,242Z"/><path class="cls-7" d="M347.74,223.81a2.37,2.37,0,1,0,2.36-2.4A2.38,2.38,0,0,0,347.74,223.81Z"/><path class="cls-7" d="M365.76,242a2.37,2.37,0,1,0,2.37-2.39A2.38,2.38,0,0,0,365.76,242Z"/><path class="cls-7" d="M365.76,223.81a2.37,2.37,0,1,0,2.37-2.4A2.39,2.39,0,0,0,365.76,223.81Z"/><path class="cls-7" d="M347.74,205.66a2.37,2.37,0,1,0,2.36-2.39A2.38,2.38,0,0,0,347.74,205.66Z"/><path class="cls-7" d="M347.74,187.46a2.37,2.37,0,1,0,2.36-2.39A2.38,2.38,0,0,0,347.74,187.46Z"/><path class="cls-7" d="M365.76,205.66a2.37,2.37,0,1,0,2.37-2.39A2.38,2.38,0,0,0,365.76,205.66Z"/><path class="cls-7" d="M365.76,187.46a2.37,2.37,0,1,0,2.37-2.39A2.38,2.38,0,0,0,365.76,187.46Z"/><path class="cls-7" d="M347.74,169.32a2.37,2.37,0,1,0,2.36-2.39A2.38,2.38,0,0,0,347.74,169.32Z"/><path class="cls-7" d="M347.74,151.12a2.37,2.37,0,1,0,2.36-2.39A2.38,2.38,0,0,0,347.74,151.12Z"/><path class="cls-7" d="M365.76,169.32a2.37,2.37,0,1,0,2.37-2.39A2.38,2.38,0,0,0,365.76,169.32Z"/><path class="cls-7" d="M365.76,151.12a2.37,2.37,0,1,0,2.37-2.39A2.38,2.38,0,0,0,365.76,151.12Z"/><path class="cls-7" d="M347.74,133a2.37,2.37,0,1,0,2.36-2.39A2.38,2.38,0,0,0,347.74,133Z"/><path class="cls-7" d="M347.74,114.78a2.37,2.37,0,1,0,2.36-2.39A2.38,2.38,0,0,0,347.74,114.78Z"/><path class="cls-7" d="M365.76,133a2.37,2.37,0,1,0,2.37-2.39A2.39,2.39,0,0,0,365.76,133Z"/><path class="cls-7" d="M365.76,114.78a2.37,2.37,0,1,0,2.37-2.39A2.38,2.38,0,0,0,365.76,114.78Z"/><path class="cls-7" d="M347.74,96.63a2.37,2.37,0,1,0,2.36-2.39A2.39,2.39,0,0,0,347.74,96.63Z"/><path class="cls-7" d="M347.74,78.44a2.37,2.37,0,1,0,2.36-2.39A2.38,2.38,0,0,0,347.74,78.44Z"/><path class="cls-7" d="M365.76,96.63a2.37,2.37,0,1,0,2.37-2.39A2.39,2.39,0,0,0,365.76,96.63Z"/><path class="cls-7" d="M365.76,78.44a2.37,2.37,0,1,0,2.37-2.39A2.38,2.38,0,0,0,365.76,78.44Z"/><path class="cls-7" d="M347.74,60.29a2.37,2.37,0,1,0,2.36-2.39A2.38,2.38,0,0,0,347.74,60.29Z"/><path class="cls-7" d="M347.74,42.1a2.37,2.37,0,1,0,2.36-2.39A2.38,2.38,0,0,0,347.74,42.1Z"/><path class="cls-7" d="M365.76,60.29a2.37,2.37,0,1,0,2.37-2.39A2.38,2.38,0,0,0,365.76,60.29Z"/><path class="cls-7" d="M365.76,42.1a2.37,2.37,0,1,0,2.37-2.39A2.38,2.38,0,0,0,365.76,42.1Z"/><path class="cls-7" d="M347.74,24a2.37,2.37,0,1,0,2.36-2.39A2.38,2.38,0,0,0,347.74,24Z"/><path class="cls-7" d="M347.74,5.76a2.37,2.37,0,1,0,2.36-2.39A2.38,2.38,0,0,0,347.74,5.76Z"/><path class="cls-7" d="M365.76,24a2.37,2.37,0,1,0,2.37-2.39A2.38,2.38,0,0,0,365.76,24Z"/><path class="cls-7" d="M365.76,5.76a2.37,2.37,0,1,0,2.37-2.39A2.38,2.38,0,0,0,365.76,5.76Z"/><path class="cls-7" d="M383.77,242a2.37,2.37,0,1,0,2.37-2.39A2.38,2.38,0,0,0,383.77,242Z"/><path class="cls-7" d="M383.77,223.81a2.37,2.37,0,1,0,2.37-2.4A2.39,2.39,0,0,0,383.77,223.81Z"/><path class="cls-7" d="M401.79,242a2.37,2.37,0,1,0,2.37-2.39A2.39,2.39,0,0,0,401.79,242Z"/><path class="cls-7" d="M401.79,223.81a2.37,2.37,0,1,0,2.37-2.4A2.39,2.39,0,0,0,401.79,223.81Z"/><path class="cls-7" d="M383.77,205.66a2.37,2.37,0,1,0,2.37-2.39A2.38,2.38,0,0,0,383.77,205.66Z"/><path class="cls-7" d="M383.77,187.46a2.37,2.37,0,1,0,2.37-2.39A2.38,2.38,0,0,0,383.77,187.46Z"/><path class="cls-7" d="M401.79,205.66a2.37,2.37,0,1,0,2.37-2.39A2.39,2.39,0,0,0,401.79,205.66Z"/><path class="cls-7" d="M401.79,187.46a2.37,2.37,0,1,0,2.37-2.39A2.39,2.39,0,0,0,401.79,187.46Z"/><path class="cls-7" d="M383.77,169.32a2.37,2.37,0,1,0,2.37-2.39A2.38,2.38,0,0,0,383.77,169.32Z"/><path class="cls-7" d="M383.77,151.12a2.37,2.37,0,1,0,2.37-2.39A2.38,2.38,0,0,0,383.77,151.12Z"/><path class="cls-7" d="M401.79,169.32a2.37,2.37,0,1,0,2.37-2.39A2.39,2.39,0,0,0,401.79,169.32Z"/><path class="cls-7" d="M401.79,151.12a2.37,2.37,0,1,0,2.37-2.39A2.39,2.39,0,0,0,401.79,151.12Z"/><path class="cls-7" d="M383.77,133a2.37,2.37,0,1,0,2.37-2.39A2.39,2.39,0,0,0,383.77,133Z"/><path class="cls-7" d="M383.77,114.78a2.37,2.37,0,1,0,2.37-2.39A2.38,2.38,0,0,0,383.77,114.78Z"/><path class="cls-7" d="M401.79,133a2.37,2.37,0,1,0,2.37-2.39A2.39,2.39,0,0,0,401.79,133Z"/><path class="cls-7" d="M401.79,114.78a2.37,2.37,0,1,0,2.37-2.39A2.39,2.39,0,0,0,401.79,114.78Z"/><path class="cls-7" d="M383.77,96.63a2.37,2.37,0,1,0,2.37-2.39A2.39,2.39,0,0,0,383.77,96.63Z"/><path class="cls-7" d="M383.77,78.44a2.37,2.37,0,1,0,2.37-2.39A2.38,2.38,0,0,0,383.77,78.44Z"/><path class="cls-7" d="M401.79,96.63a2.37,2.37,0,1,0,2.37-2.39A2.39,2.39,0,0,0,401.79,96.63Z"/><path class="cls-7" d="M401.79,78.44a2.37,2.37,0,1,0,2.37-2.39A2.39,2.39,0,0,0,401.79,78.44Z"/><path class="cls-7" d="M383.77,60.29a2.37,2.37,0,1,0,2.37-2.39A2.38,2.38,0,0,0,383.77,60.29Z"/><path class="cls-7" d="M383.77,42.1a2.37,2.37,0,1,0,2.37-2.39A2.38,2.38,0,0,0,383.77,42.1Z"/><path class="cls-7" d="M401.79,60.29a2.37,2.37,0,1,0,2.37-2.39A2.39,2.39,0,0,0,401.79,60.29Z"/><path class="cls-7" d="M401.79,42.1a2.37,2.37,0,1,0,2.37-2.39A2.39,2.39,0,0,0,401.79,42.1Z"/><path class="cls-7" d="M383.77,24a2.37,2.37,0,1,0,2.37-2.39A2.38,2.38,0,0,0,383.77,24Z"/><path class="cls-7" d="M383.77,5.76a2.37,2.37,0,1,0,2.37-2.39A2.38,2.38,0,0,0,383.77,5.76Z"/><path class="cls-7" d="M401.79,24a2.37,2.37,0,1,0,2.37-2.39A2.39,2.39,0,0,0,401.79,24Z"/><path class="cls-7" d="M401.79,5.76a2.37,2.37,0,1,0,2.37-2.39A2.39,2.39,0,0,0,401.79,5.76Z"/><path class="cls-7" d="M419.81,242a2.37,2.37,0,1,0,2.36-2.39A2.38,2.38,0,0,0,419.81,242Z"/><path class="cls-7" d="M419.81,223.81a2.37,2.37,0,1,0,2.36-2.4A2.38,2.38,0,0,0,419.81,223.81Z"/><path class="cls-7" d="M437.83,242a2.37,2.37,0,1,0,2.37-2.39A2.38,2.38,0,0,0,437.83,242Z"/><path class="cls-7" d="M437.83,223.81a2.37,2.37,0,1,0,2.37-2.4A2.39,2.39,0,0,0,437.83,223.81Z"/><path class="cls-7" d="M419.81,205.66a2.37,2.37,0,1,0,2.36-2.39A2.38,2.38,0,0,0,419.81,205.66Z"/><path class="cls-7" d="M419.81,187.46a2.37,2.37,0,1,0,2.36-2.39A2.38,2.38,0,0,0,419.81,187.46Z"/><path class="cls-7" d="M437.83,205.66a2.37,2.37,0,1,0,2.37-2.39A2.38,2.38,0,0,0,437.83,205.66Z"/><path class="cls-7" d="M437.83,187.46a2.37,2.37,0,1,0,2.37-2.39A2.38,2.38,0,0,0,437.83,187.46Z"/><path class="cls-7" d="M419.81,169.32a2.37,2.37,0,1,0,2.36-2.39A2.38,2.38,0,0,0,419.81,169.32Z"/><path class="cls-7" d="M419.81,151.12a2.37,2.37,0,1,0,2.36-2.39A2.38,2.38,0,0,0,419.81,151.12Z"/><path class="cls-7" d="M437.83,169.32a2.37,2.37,0,1,0,2.37-2.39A2.38,2.38,0,0,0,437.83,169.32Z"/><path class="cls-7" d="M437.83,151.12a2.37,2.37,0,1,0,2.37-2.39A2.38,2.38,0,0,0,437.83,151.12Z"/><path class="cls-7" d="M419.81,133a2.37,2.37,0,1,0,2.36-2.39A2.38,2.38,0,0,0,419.81,133Z"/><path class="cls-7" d="M419.81,114.78a2.37,2.37,0,1,0,2.36-2.39A2.38,2.38,0,0,0,419.81,114.78Z"/><path class="cls-7" d="M437.83,133a2.37,2.37,0,1,0,2.37-2.39A2.39,2.39,0,0,0,437.83,133Z"/><path class="cls-7" d="M437.83,114.78a2.37,2.37,0,1,0,2.37-2.39A2.38,2.38,0,0,0,437.83,114.78Z"/><path class="cls-7" d="M419.81,96.63a2.37,2.37,0,1,0,2.36-2.39A2.39,2.39,0,0,0,419.81,96.63Z"/><path class="cls-7" d="M419.81,78.44a2.37,2.37,0,1,0,2.36-2.39A2.38,2.38,0,0,0,419.81,78.44Z"/><path class="cls-7" d="M437.83,96.63a2.37,2.37,0,1,0,2.37-2.39A2.39,2.39,0,0,0,437.83,96.63Z"/><path class="cls-7" d="M437.83,78.44a2.37,2.37,0,1,0,2.37-2.39A2.38,2.38,0,0,0,437.83,78.44Z"/><path class="cls-7" d="M419.81,60.29a2.37,2.37,0,1,0,2.36-2.39A2.38,2.38,0,0,0,419.81,60.29Z"/><path class="cls-7" d="M419.81,42.1a2.37,2.37,0,1,0,2.36-2.39A2.38,2.38,0,0,0,419.81,42.1Z"/><path class="cls-7" d="M437.83,60.29a2.37,2.37,0,1,0,2.37-2.39A2.38,2.38,0,0,0,437.83,60.29Z"/><path class="cls-7" d="M437.83,42.1a2.37,2.37,0,1,0,2.37-2.39A2.38,2.38,0,0,0,437.83,42.1Z"/><path class="cls-7" d="M419.81,24a2.37,2.37,0,1,0,2.36-2.39A2.38,2.38,0,0,0,419.81,24Z"/><path class="cls-7" d="M419.81,5.76a2.37,2.37,0,1,0,2.36-2.39A2.38,2.38,0,0,0,419.81,5.76Z"/><path class="cls-7" d="M437.83,24a2.37,2.37,0,1,0,2.37-2.39A2.38,2.38,0,0,0,437.83,24Z"/><path class="cls-7" d="M437.83,5.76a2.37,2.37,0,1,0,2.37-2.39A2.38,2.38,0,0,0,437.83,5.76Z"/><path class="cls-7" d="M455.84,242a2.37,2.37,0,1,0,2.37-2.39A2.38,2.38,0,0,0,455.84,242Z"/><path class="cls-7" d="M455.84,223.81a2.37,2.37,0,1,0,2.37-2.4A2.39,2.39,0,0,0,455.84,223.81Z"/><path class="cls-7" d="M473.86,242a2.37,2.37,0,1,0,2.37-2.39A2.39,2.39,0,0,0,473.86,242Z"/><path class="cls-7" d="M473.86,223.81a2.37,2.37,0,1,0,2.37-2.4A2.39,2.39,0,0,0,473.86,223.81Z"/><path class="cls-7" d="M455.84,205.66a2.37,2.37,0,1,0,2.37-2.39A2.38,2.38,0,0,0,455.84,205.66Z"/><path class="cls-7" d="M455.84,187.46a2.37,2.37,0,1,0,2.37-2.39A2.38,2.38,0,0,0,455.84,187.46Z"/><path class="cls-7" d="M473.86,205.66a2.37,2.37,0,1,0,2.37-2.39A2.39,2.39,0,0,0,473.86,205.66Z"/><path class="cls-7" d="M473.86,187.46a2.37,2.37,0,1,0,2.37-2.39A2.39,2.39,0,0,0,473.86,187.46Z"/><path class="cls-7" d="M455.84,169.32a2.37,2.37,0,1,0,2.37-2.39A2.38,2.38,0,0,0,455.84,169.32Z"/><path class="cls-7" d="M455.84,151.12a2.37,2.37,0,1,0,2.37-2.39A2.38,2.38,0,0,0,455.84,151.12Z"/><path class="cls-7" d="M473.86,169.32a2.37,2.37,0,1,0,2.37-2.39A2.39,2.39,0,0,0,473.86,169.32Z"/><path class="cls-7" d="M473.86,151.12a2.37,2.37,0,1,0,2.37-2.39A2.39,2.39,0,0,0,473.86,151.12Z"/><path class="cls-7" d="M455.84,133a2.37,2.37,0,1,0,2.37-2.39A2.39,2.39,0,0,0,455.84,133Z"/><path class="cls-7" d="M455.84,114.78a2.37,2.37,0,1,0,2.37-2.39A2.38,2.38,0,0,0,455.84,114.78Z"/><path class="cls-7" d="M473.86,133a2.37,2.37,0,1,0,2.37-2.39A2.39,2.39,0,0,0,473.86,133Z"/><path class="cls-7" d="M473.86,114.78a2.37,2.37,0,1,0,2.37-2.39A2.39,2.39,0,0,0,473.86,114.78Z"/><path class="cls-7" d="M455.84,96.63a2.37,2.37,0,1,0,2.37-2.39A2.39,2.39,0,0,0,455.84,96.63Z"/><path class="cls-7" d="M455.84,78.44a2.37,2.37,0,1,0,2.37-2.39A2.38,2.38,0,0,0,455.84,78.44Z"/><path class="cls-7" d="M473.86,96.63a2.37,2.37,0,1,0,2.37-2.39A2.39,2.39,0,0,0,473.86,96.63Z"/><path class="cls-7" d="M473.86,78.44a2.37,2.37,0,1,0,2.37-2.39A2.39,2.39,0,0,0,473.86,78.44Z"/><path class="cls-7" d="M455.84,60.29a2.37,2.37,0,1,0,2.37-2.39A2.38,2.38,0,0,0,455.84,60.29Z"/><path class="cls-7" d="M455.84,42.1a2.37,2.37,0,1,0,2.37-2.39A2.38,2.38,0,0,0,455.84,42.1Z"/><path class="cls-7" d="M473.86,60.29a2.37,2.37,0,1,0,2.37-2.39A2.39,2.39,0,0,0,473.86,60.29Z"/><path class="cls-7" d="M473.86,42.1a2.37,2.37,0,1,0,2.37-2.39A2.39,2.39,0,0,0,473.86,42.1Z"/><path class="cls-7" d="M455.84,24a2.37,2.37,0,1,0,2.37-2.39A2.38,2.38,0,0,0,455.84,24Z"/><path class="cls-7" d="M455.84,5.76a2.37,2.37,0,1,0,2.37-2.39A2.38,2.38,0,0,0,455.84,5.76Z"/><path class="cls-7" d="M473.86,24a2.37,2.37,0,1,0,2.37-2.39A2.39,2.39,0,0,0,473.86,24Z"/><path class="cls-7" d="M473.86,5.76a2.37,2.37,0,1,0,2.37-2.39A2.39,2.39,0,0,0,473.86,5.76Z"/></g><g class="cls-6"><path class="cls-7" d="M5.4,478.24a2.37,2.37,0,1,0,2.37-2.39A2.38,2.38,0,0,0,5.4,478.24Z"/><path class="cls-7" d="M5.4,460.05a2.37,2.37,0,1,0,2.37-2.39A2.38,2.38,0,0,0,5.4,460.05Z"/><path class="cls-7" d="M23.42,478.24a2.37,2.37,0,1,0,2.37-2.39A2.39,2.39,0,0,0,23.42,478.24Z"/><path class="cls-7" d="M23.42,460.05a2.37,2.37,0,1,0,2.37-2.39A2.39,2.39,0,0,0,23.42,460.05Z"/><path class="cls-7" d="M5.4,441.9a2.37,2.37,0,1,0,2.37-2.39A2.38,2.38,0,0,0,5.4,441.9Z"/><path class="cls-7" d="M5.4,423.71a2.37,2.37,0,1,0,2.37-2.39A2.39,2.39,0,0,0,5.4,423.71Z"/><path class="cls-7" d="M23.42,441.9a2.37,2.37,0,1,0,2.37-2.39A2.39,2.39,0,0,0,23.42,441.9Z"/><path class="cls-7" d="M23.42,423.71a2.37,2.37,0,1,0,2.37-2.39A2.39,2.39,0,0,0,23.42,423.71Z"/><path class="cls-7" d="M5.4,405.56a2.37,2.37,0,1,0,2.37-2.39A2.38,2.38,0,0,0,5.4,405.56Z"/><path class="cls-7" d="M5.4,387.37A2.37,2.37,0,1,0,7.77,385,2.39,2.39,0,0,0,5.4,387.37Z"/><path class="cls-7" d="M23.42,405.56a2.37,2.37,0,1,0,2.37-2.39A2.39,2.39,0,0,0,23.42,405.56Z"/><path class="cls-7" d="M23.42,387.37a2.37,2.37,0,1,0,2.37-2.4A2.39,2.39,0,0,0,23.42,387.37Z"/><path class="cls-7" d="M5.4,369.22a2.37,2.37,0,1,0,2.37-2.39A2.38,2.38,0,0,0,5.4,369.22Z"/><path class="cls-7" d="M5.4,351a2.37,2.37,0,1,0,2.37-2.39A2.38,2.38,0,0,0,5.4,351Z"/><path class="cls-7" d="M23.42,369.22a2.37,2.37,0,1,0,2.37-2.39A2.39,2.39,0,0,0,23.42,369.22Z"/><path class="cls-7" d="M23.42,351a2.37,2.37,0,1,0,2.37-2.39A2.39,2.39,0,0,0,23.42,351Z"/><path class="cls-7" d="M5.4,332.88a2.37,2.37,0,1,0,2.37-2.39A2.38,2.38,0,0,0,5.4,332.88Z"/><path class="cls-7" d="M5.4,314.68a2.37,2.37,0,1,0,2.37-2.39A2.38,2.38,0,0,0,5.4,314.68Z"/><path class="cls-7" d="M23.42,332.88a2.37,2.37,0,1,0,2.37-2.39A2.39,2.39,0,0,0,23.42,332.88Z"/><path class="cls-7" d="M23.42,314.68a2.37,2.37,0,1,0,2.37-2.39A2.39,2.39,0,0,0,23.42,314.68Z"/><path class="cls-7" d="M5.4,296.54a2.37,2.37,0,1,0,2.37-2.4A2.39,2.39,0,0,0,5.4,296.54Z"/><path class="cls-7" d="M5.4,278.34A2.37,2.37,0,1,0,7.77,276,2.38,2.38,0,0,0,5.4,278.34Z"/><path class="cls-7" d="M23.42,296.54a2.37,2.37,0,1,0,2.37-2.4A2.39,2.39,0,0,0,23.42,296.54Z"/><path class="cls-7" d="M23.42,278.34A2.37,2.37,0,1,0,25.79,276,2.39,2.39,0,0,0,23.42,278.34Z"/><path class="cls-7" d="M5.4,260.19a2.37,2.37,0,1,0,2.37-2.39A2.39,2.39,0,0,0,5.4,260.19Z"/><path class="cls-7" d="M23.42,260.19a2.37,2.37,0,1,0,2.37-2.39A2.39,2.39,0,0,0,23.42,260.19Z"/><path class="cls-7" d="M41.43,478.24a2.37,2.37,0,1,0,2.37-2.39A2.39,2.39,0,0,0,41.43,478.24Z"/><path class="cls-7" d="M41.43,460.05a2.37,2.37,0,1,0,2.37-2.39A2.39,2.39,0,0,0,41.43,460.05Z"/><path class="cls-7" d="M59.46,478.24a2.37,2.37,0,1,0,2.37-2.39A2.38,2.38,0,0,0,59.46,478.24Z"/><path class="cls-7" d="M59.46,460.05a2.37,2.37,0,1,0,2.37-2.39A2.38,2.38,0,0,0,59.46,460.05Z"/><path class="cls-7" d="M41.43,441.9a2.37,2.37,0,1,0,2.37-2.39A2.39,2.39,0,0,0,41.43,441.9Z"/><path class="cls-7" d="M41.43,423.71a2.37,2.37,0,1,0,2.37-2.39A2.39,2.39,0,0,0,41.43,423.71Z"/><path class="cls-7" d="M59.46,441.9a2.37,2.37,0,1,0,2.37-2.39A2.38,2.38,0,0,0,59.46,441.9Z"/><path class="cls-7" d="M59.46,423.71a2.37,2.37,0,1,0,2.37-2.39A2.39,2.39,0,0,0,59.46,423.71Z"/><path class="cls-7" d="M41.43,405.56a2.37,2.37,0,1,0,2.37-2.39A2.39,2.39,0,0,0,41.43,405.56Z"/><path class="cls-7" d="M41.43,387.37A2.37,2.37,0,1,0,43.8,385,2.39,2.39,0,0,0,41.43,387.37Z"/><path class="cls-7" d="M59.46,405.56a2.37,2.37,0,1,0,2.37-2.39A2.38,2.38,0,0,0,59.46,405.56Z"/><path class="cls-7" d="M59.46,387.37a2.37,2.37,0,1,0,2.37-2.4A2.39,2.39,0,0,0,59.46,387.37Z"/><path class="cls-7" d="M41.43,369.22a2.37,2.37,0,1,0,2.37-2.39A2.39,2.39,0,0,0,41.43,369.22Z"/><path class="cls-7" d="M41.43,351a2.37,2.37,0,1,0,2.37-2.39A2.39,2.39,0,0,0,41.43,351Z"/><path class="cls-7" d="M59.46,369.22a2.37,2.37,0,1,0,2.37-2.39A2.38,2.38,0,0,0,59.46,369.22Z"/><path class="cls-7" d="M59.46,351a2.37,2.37,0,1,0,2.37-2.39A2.38,2.38,0,0,0,59.46,351Z"/><path class="cls-7" d="M41.43,332.88a2.37,2.37,0,1,0,2.37-2.39A2.39,2.39,0,0,0,41.43,332.88Z"/><path class="cls-7" d="M41.43,314.68a2.37,2.37,0,1,0,2.37-2.39A2.39,2.39,0,0,0,41.43,314.68Z"/><path class="cls-7" d="M59.46,332.88a2.37,2.37,0,1,0,2.37-2.39A2.38,2.38,0,0,0,59.46,332.88Z"/><path class="cls-7" d="M59.46,314.68a2.37,2.37,0,1,0,2.37-2.39A2.38,2.38,0,0,0,59.46,314.68Z"/><path class="cls-7" d="M41.43,296.54a2.37,2.37,0,1,0,2.37-2.4A2.39,2.39,0,0,0,41.43,296.54Z"/><path class="cls-7" d="M41.43,278.34A2.37,2.37,0,1,0,43.8,276,2.39,2.39,0,0,0,41.43,278.34Z"/><path class="cls-7" d="M59.46,296.54a2.37,2.37,0,1,0,2.37-2.4A2.39,2.39,0,0,0,59.46,296.54Z"/><path class="cls-7" d="M59.46,278.34A2.37,2.37,0,1,0,61.83,276,2.38,2.38,0,0,0,59.46,278.34Z"/><path class="cls-7" d="M41.43,260.19a2.37,2.37,0,1,0,2.37-2.39A2.39,2.39,0,0,0,41.43,260.19Z"/><path class="cls-7" d="M59.46,260.19a2.37,2.37,0,1,0,2.37-2.39A2.39,2.39,0,0,0,59.46,260.19Z"/><path class="cls-7" d="M77.47,478.24a2.37,2.37,0,1,0,2.37-2.39A2.38,2.38,0,0,0,77.47,478.24Z"/><path class="cls-7" d="M77.47,460.05a2.37,2.37,0,1,0,2.37-2.39A2.38,2.38,0,0,0,77.47,460.05Z"/><path class="cls-7" d="M95.49,478.24a2.37,2.37,0,1,0,2.37-2.39A2.39,2.39,0,0,0,95.49,478.24Z"/><path class="cls-7" d="M95.49,460.05a2.37,2.37,0,1,0,2.37-2.39A2.39,2.39,0,0,0,95.49,460.05Z"/><path class="cls-7" d="M77.47,441.9a2.37,2.37,0,1,0,2.37-2.39A2.38,2.38,0,0,0,77.47,441.9Z"/><path class="cls-7" d="M77.47,423.71a2.37,2.37,0,1,0,2.37-2.39A2.39,2.39,0,0,0,77.47,423.71Z"/><path class="cls-7" d="M95.49,441.9a2.37,2.37,0,1,0,2.37-2.39A2.39,2.39,0,0,0,95.49,441.9Z"/><path class="cls-7" d="M95.49,423.71a2.37,2.37,0,1,0,2.37-2.39A2.39,2.39,0,0,0,95.49,423.71Z"/><path class="cls-7" d="M77.47,405.56a2.37,2.37,0,1,0,2.37-2.39A2.38,2.38,0,0,0,77.47,405.56Z"/><path class="cls-7" d="M77.47,387.37a2.37,2.37,0,1,0,2.37-2.4A2.39,2.39,0,0,0,77.47,387.37Z"/><path class="cls-7" d="M95.49,405.56a2.37,2.37,0,1,0,2.37-2.39A2.39,2.39,0,0,0,95.49,405.56Z"/><path class="cls-7" d="M95.49,387.37a2.37,2.37,0,1,0,2.37-2.4A2.39,2.39,0,0,0,95.49,387.37Z"/><path class="cls-7" d="M77.47,369.22a2.37,2.37,0,1,0,2.37-2.39A2.38,2.38,0,0,0,77.47,369.22Z"/><path class="cls-7" d="M77.47,351a2.37,2.37,0,1,0,2.37-2.39A2.38,2.38,0,0,0,77.47,351Z"/><path class="cls-7" d="M95.49,369.22a2.37,2.37,0,1,0,2.37-2.39A2.39,2.39,0,0,0,95.49,369.22Z"/><path class="cls-7" d="M95.49,351a2.37,2.37,0,1,0,2.37-2.39A2.39,2.39,0,0,0,95.49,351Z"/><path class="cls-7" d="M77.47,332.88a2.37,2.37,0,1,0,2.37-2.39A2.38,2.38,0,0,0,77.47,332.88Z"/><path class="cls-7" d="M77.47,314.68a2.37,2.37,0,1,0,2.37-2.39A2.38,2.38,0,0,0,77.47,314.68Z"/><path class="cls-7" d="M95.49,332.88a2.37,2.37,0,1,0,2.37-2.39A2.39,2.39,0,0,0,95.49,332.88Z"/><path class="cls-7" d="M95.49,314.68a2.37,2.37,0,1,0,2.37-2.39A2.39,2.39,0,0,0,95.49,314.68Z"/><path class="cls-7" d="M77.47,296.54a2.37,2.37,0,1,0,2.37-2.4A2.39,2.39,0,0,0,77.47,296.54Z"/><path class="cls-7" d="M77.47,278.34A2.37,2.37,0,1,0,79.84,276,2.38,2.38,0,0,0,77.47,278.34Z"/><path class="cls-7" d="M95.49,296.54a2.37,2.37,0,1,0,2.37-2.4A2.39,2.39,0,0,0,95.49,296.54Z"/><path class="cls-7" d="M95.49,278.34A2.37,2.37,0,1,0,97.86,276,2.39,2.39,0,0,0,95.49,278.34Z"/><path class="cls-7" d="M77.47,260.19a2.37,2.37,0,1,0,2.37-2.39A2.39,2.39,0,0,0,77.47,260.19Z"/><path class="cls-7" d="M95.49,260.19a2.37,2.37,0,1,0,2.37-2.39A2.39,2.39,0,0,0,95.49,260.19Z"/><path class="cls-7" d="M113.5,478.24a2.37,2.37,0,1,0,2.37-2.39A2.39,2.39,0,0,0,113.5,478.24Z"/><path class="cls-7" d="M113.5,460.05a2.37,2.37,0,1,0,2.37-2.39A2.39,2.39,0,0,0,113.5,460.05Z"/><path class="cls-7" d="M131.53,478.24a2.37,2.37,0,1,0,2.37-2.39A2.38,2.38,0,0,0,131.53,478.24Z"/><path class="cls-7" d="M131.53,460.05a2.37,2.37,0,1,0,2.37-2.39A2.38,2.38,0,0,0,131.53,460.05Z"/><path class="cls-7" d="M113.5,441.9a2.37,2.37,0,1,0,2.37-2.39A2.39,2.39,0,0,0,113.5,441.9Z"/><path class="cls-7" d="M113.5,423.71a2.37,2.37,0,1,0,2.37-2.39A2.39,2.39,0,0,0,113.5,423.71Z"/><path class="cls-7" d="M131.53,441.9a2.37,2.37,0,1,0,2.37-2.39A2.38,2.38,0,0,0,131.53,441.9Z"/><path class="cls-7" d="M131.53,423.71a2.37,2.37,0,1,0,2.37-2.39A2.39,2.39,0,0,0,131.53,423.71Z"/><path class="cls-7" d="M113.5,405.56a2.37,2.37,0,1,0,2.37-2.39A2.39,2.39,0,0,0,113.5,405.56Z"/><path class="cls-7" d="M113.5,387.37a2.37,2.37,0,1,0,2.37-2.4A2.39,2.39,0,0,0,113.5,387.37Z"/><path class="cls-7" d="M131.53,405.56a2.37,2.37,0,1,0,2.37-2.39A2.38,2.38,0,0,0,131.53,405.56Z"/><path class="cls-7" d="M131.53,387.37a2.37,2.37,0,1,0,2.37-2.4A2.39,2.39,0,0,0,131.53,387.37Z"/><path class="cls-7" d="M113.5,369.22a2.37,2.37,0,1,0,2.37-2.39A2.39,2.39,0,0,0,113.5,369.22Z"/><path class="cls-7" d="M113.5,351a2.37,2.37,0,1,0,2.37-2.39A2.39,2.39,0,0,0,113.5,351Z"/><path class="cls-7" d="M131.53,369.22a2.37,2.37,0,1,0,2.37-2.39A2.38,2.38,0,0,0,131.53,369.22Z"/><path class="cls-7" d="M131.53,351a2.37,2.37,0,1,0,2.37-2.39A2.38,2.38,0,0,0,131.53,351Z"/><path class="cls-7" d="M113.5,332.88a2.37,2.37,0,1,0,2.37-2.39A2.39,2.39,0,0,0,113.5,332.88Z"/><path class="cls-7" d="M113.5,314.68a2.37,2.37,0,1,0,2.37-2.39A2.39,2.39,0,0,0,113.5,314.68Z"/><path class="cls-7" d="M131.53,332.88a2.37,2.37,0,1,0,2.37-2.39A2.38,2.38,0,0,0,131.53,332.88Z"/><path class="cls-7" d="M131.53,314.68a2.37,2.37,0,1,0,2.37-2.39A2.38,2.38,0,0,0,131.53,314.68Z"/><path class="cls-7" d="M113.5,296.54a2.37,2.37,0,1,0,2.37-2.4A2.39,2.39,0,0,0,113.5,296.54Z"/><path class="cls-7" d="M113.5,278.34a2.37,2.37,0,1,0,2.37-2.39A2.39,2.39,0,0,0,113.5,278.34Z"/><path class="cls-7" d="M131.53,296.54a2.37,2.37,0,1,0,2.37-2.4A2.39,2.39,0,0,0,131.53,296.54Z"/><path class="cls-7" d="M131.53,278.34A2.37,2.37,0,1,0,133.9,276,2.38,2.38,0,0,0,131.53,278.34Z"/><path class="cls-7" d="M113.5,260.19a2.37,2.37,0,1,0,2.37-2.39A2.39,2.39,0,0,0,113.5,260.19Z"/><path class="cls-7" d="M131.53,260.19a2.37,2.37,0,1,0,2.37-2.39A2.39,2.39,0,0,0,131.53,260.19Z"/><path class="cls-7" d="M149.54,478.24a2.37,2.37,0,1,0,2.37-2.39A2.38,2.38,0,0,0,149.54,478.24Z"/><path class="cls-7" d="M149.54,460.05a2.37,2.37,0,1,0,2.37-2.39A2.38,2.38,0,0,0,149.54,460.05Z"/><path class="cls-7" d="M167.56,478.24a2.37,2.37,0,1,0,2.37-2.39A2.38,2.38,0,0,0,167.56,478.24Z"/><path class="cls-7" d="M167.56,460.05a2.37,2.37,0,1,0,2.37-2.39A2.38,2.38,0,0,0,167.56,460.05Z"/><path class="cls-7" d="M149.54,441.9a2.37,2.37,0,1,0,2.37-2.39A2.38,2.38,0,0,0,149.54,441.9Z"/><path class="cls-7" d="M149.54,423.71a2.37,2.37,0,1,0,2.37-2.39A2.39,2.39,0,0,0,149.54,423.71Z"/><path class="cls-7" d="M167.56,441.9a2.37,2.37,0,1,0,2.37-2.39A2.38,2.38,0,0,0,167.56,441.9Z"/><path class="cls-7" d="M167.56,423.71a2.37,2.37,0,1,0,2.37-2.39A2.39,2.39,0,0,0,167.56,423.71Z"/><path class="cls-7" d="M149.54,405.56a2.37,2.37,0,1,0,2.37-2.39A2.38,2.38,0,0,0,149.54,405.56Z"/><path class="cls-7" d="M149.54,387.37a2.37,2.37,0,1,0,2.37-2.4A2.39,2.39,0,0,0,149.54,387.37Z"/><path class="cls-7" d="M167.56,405.56a2.37,2.37,0,1,0,2.37-2.39A2.38,2.38,0,0,0,167.56,405.56Z"/><path class="cls-7" d="M167.56,387.37a2.37,2.37,0,1,0,2.37-2.4A2.39,2.39,0,0,0,167.56,387.37Z"/><path class="cls-7" d="M149.54,369.22a2.37,2.37,0,1,0,2.37-2.39A2.38,2.38,0,0,0,149.54,369.22Z"/><path class="cls-7" d="M149.54,351a2.37,2.37,0,1,0,2.37-2.39A2.38,2.38,0,0,0,149.54,351Z"/><path class="cls-7" d="M167.56,369.22a2.37,2.37,0,1,0,2.37-2.39A2.38,2.38,0,0,0,167.56,369.22Z"/><path class="cls-7" d="M167.56,351a2.37,2.37,0,1,0,2.37-2.39A2.38,2.38,0,0,0,167.56,351Z"/><path class="cls-7" d="M149.54,332.88a2.37,2.37,0,1,0,2.37-2.39A2.38,2.38,0,0,0,149.54,332.88Z"/><path class="cls-7" d="M149.54,314.68a2.37,2.37,0,1,0,2.37-2.39A2.38,2.38,0,0,0,149.54,314.68Z"/><path class="cls-7" d="M167.56,332.88a2.37,2.37,0,1,0,2.37-2.39A2.38,2.38,0,0,0,167.56,332.88Z"/><path class="cls-7" d="M167.56,314.68a2.37,2.37,0,1,0,2.37-2.39A2.38,2.38,0,0,0,167.56,314.68Z"/><path class="cls-7" d="M149.54,296.54a2.37,2.37,0,1,0,2.37-2.4A2.39,2.39,0,0,0,149.54,296.54Z"/><path class="cls-7" d="M149.54,278.34a2.37,2.37,0,1,0,2.37-2.39A2.38,2.38,0,0,0,149.54,278.34Z"/><path class="cls-7" d="M167.56,296.54a2.37,2.37,0,1,0,2.37-2.4A2.39,2.39,0,0,0,167.56,296.54Z"/><path class="cls-7" d="M167.56,278.34a2.37,2.37,0,1,0,2.37-2.39A2.38,2.38,0,0,0,167.56,278.34Z"/><path class="cls-7" d="M149.54,260.19a2.37,2.37,0,1,0,2.37-2.39A2.39,2.39,0,0,0,149.54,260.19Z"/><path class="cls-7" d="M167.56,260.19a2.37,2.37,0,1,0,2.37-2.39A2.39,2.39,0,0,0,167.56,260.19Z"/><path class="cls-7" d="M185.57,478.24a2.37,2.37,0,1,0,2.37-2.39A2.39,2.39,0,0,0,185.57,478.24Z"/><path class="cls-7" d="M185.57,460.05a2.37,2.37,0,1,0,2.37-2.39A2.39,2.39,0,0,0,185.57,460.05Z"/><path class="cls-7" d="M203.6,478.24a2.37,2.37,0,1,0,2.37-2.39A2.38,2.38,0,0,0,203.6,478.24Z"/><path class="cls-7" d="M203.6,460.05a2.37,2.37,0,1,0,2.37-2.39A2.38,2.38,0,0,0,203.6,460.05Z"/><path class="cls-7" d="M185.57,441.9a2.37,2.37,0,1,0,2.37-2.39A2.39,2.39,0,0,0,185.57,441.9Z"/><path class="cls-7" d="M185.57,423.71a2.37,2.37,0,1,0,2.37-2.39A2.39,2.39,0,0,0,185.57,423.71Z"/><path class="cls-7" d="M203.6,441.9a2.37,2.37,0,1,0,2.37-2.39A2.38,2.38,0,0,0,203.6,441.9Z"/><path class="cls-7" d="M203.6,423.71a2.37,2.37,0,1,0,2.37-2.39A2.39,2.39,0,0,0,203.6,423.71Z"/><path class="cls-7" d="M185.57,405.56a2.37,2.37,0,1,0,2.37-2.39A2.39,2.39,0,0,0,185.57,405.56Z"/><path class="cls-7" d="M185.57,387.37a2.37,2.37,0,1,0,2.37-2.4A2.39,2.39,0,0,0,185.57,387.37Z"/><path class="cls-7" d="M203.6,405.56a2.37,2.37,0,1,0,2.37-2.39A2.38,2.38,0,0,0,203.6,405.56Z"/><path class="cls-7" d="M203.6,387.37A2.37,2.37,0,1,0,206,385,2.39,2.39,0,0,0,203.6,387.37Z"/><path class="cls-7" d="M185.57,369.22a2.37,2.37,0,1,0,2.37-2.39A2.39,2.39,0,0,0,185.57,369.22Z"/><path class="cls-7" d="M185.57,351a2.37,2.37,0,1,0,2.37-2.39A2.39,2.39,0,0,0,185.57,351Z"/><path class="cls-7" d="M203.6,369.22a2.37,2.37,0,1,0,2.37-2.39A2.38,2.38,0,0,0,203.6,369.22Z"/><path class="cls-7" d="M203.6,351a2.37,2.37,0,1,0,2.37-2.39A2.38,2.38,0,0,0,203.6,351Z"/><path class="cls-7" d="M185.57,332.88a2.37,2.37,0,1,0,2.37-2.39A2.39,2.39,0,0,0,185.57,332.88Z"/><path class="cls-7" d="M185.57,314.68a2.37,2.37,0,1,0,2.37-2.39A2.39,2.39,0,0,0,185.57,314.68Z"/><path class="cls-7" d="M203.6,332.88a2.37,2.37,0,1,0,2.37-2.39A2.38,2.38,0,0,0,203.6,332.88Z"/><path class="cls-7" d="M203.6,314.68a2.37,2.37,0,1,0,2.37-2.39A2.38,2.38,0,0,0,203.6,314.68Z"/><path class="cls-7" d="M185.57,296.54a2.37,2.37,0,1,0,2.37-2.4A2.39,2.39,0,0,0,185.57,296.54Z"/><path class="cls-7" d="M185.57,278.34a2.37,2.37,0,1,0,2.37-2.39A2.39,2.39,0,0,0,185.57,278.34Z"/><path class="cls-7" d="M203.6,296.54a2.37,2.37,0,1,0,2.37-2.4A2.39,2.39,0,0,0,203.6,296.54Z"/><path class="cls-7" d="M203.6,278.34A2.37,2.37,0,1,0,206,276,2.38,2.38,0,0,0,203.6,278.34Z"/><path class="cls-7" d="M185.57,260.19a2.37,2.37,0,1,0,2.37-2.39A2.39,2.39,0,0,0,185.57,260.19Z"/><path class="cls-7" d="M203.6,260.19A2.37,2.37,0,1,0,206,257.8,2.39,2.39,0,0,0,203.6,260.19Z"/><path class="cls-7" d="M221.61,478.24a2.37,2.37,0,1,0,2.37-2.39A2.38,2.38,0,0,0,221.61,478.24Z"/><path class="cls-7" d="M221.61,460.05a2.37,2.37,0,1,0,2.37-2.39A2.38,2.38,0,0,0,221.61,460.05Z"/><path class="cls-7" d="M239.63,478.24a2.37,2.37,0,1,0,2.37-2.39A2.38,2.38,0,0,0,239.63,478.24Z"/><path class="cls-7" d="M239.63,460.05a2.37,2.37,0,1,0,2.37-2.39A2.38,2.38,0,0,0,239.63,460.05Z"/><path class="cls-7" d="M221.61,441.9a2.37,2.37,0,1,0,2.37-2.39A2.38,2.38,0,0,0,221.61,441.9Z"/><path class="cls-7" d="M221.61,423.71a2.37,2.37,0,1,0,2.37-2.39A2.39,2.39,0,0,0,221.61,423.71Z"/><path class="cls-7" d="M239.63,441.9a2.37,2.37,0,1,0,2.37-2.39A2.38,2.38,0,0,0,239.63,441.9Z"/><path class="cls-7" d="M239.63,423.71a2.37,2.37,0,1,0,2.37-2.39A2.39,2.39,0,0,0,239.63,423.71Z"/><path class="cls-7" d="M221.61,405.56a2.37,2.37,0,1,0,2.37-2.39A2.38,2.38,0,0,0,221.61,405.56Z"/><path class="cls-7" d="M221.61,387.37A2.37,2.37,0,1,0,224,385,2.39,2.39,0,0,0,221.61,387.37Z"/><path class="cls-7" d="M239.63,405.56a2.37,2.37,0,1,0,2.37-2.39A2.38,2.38,0,0,0,239.63,405.56Z"/><path class="cls-7" d="M239.63,387.37A2.37,2.37,0,1,0,242,385,2.39,2.39,0,0,0,239.63,387.37Z"/><path class="cls-7" d="M221.61,369.22a2.37,2.37,0,1,0,2.37-2.39A2.38,2.38,0,0,0,221.61,369.22Z"/><path class="cls-7" d="M221.61,351a2.37,2.37,0,1,0,2.37-2.39A2.38,2.38,0,0,0,221.61,351Z"/><path class="cls-7" d="M239.63,369.22a2.37,2.37,0,1,0,2.37-2.39A2.38,2.38,0,0,0,239.63,369.22Z"/><path class="cls-7" d="M239.63,351a2.37,2.37,0,1,0,2.37-2.39A2.38,2.38,0,0,0,239.63,351Z"/><path class="cls-7" d="M221.61,332.88a2.37,2.37,0,1,0,2.37-2.39A2.38,2.38,0,0,0,221.61,332.88Z"/><path class="cls-7" d="M221.61,314.68a2.37,2.37,0,1,0,2.37-2.39A2.38,2.38,0,0,0,221.61,314.68Z"/><path class="cls-7" d="M239.63,332.88a2.37,2.37,0,1,0,2.37-2.39A2.38,2.38,0,0,0,239.63,332.88Z"/><path class="cls-7" d="M239.63,314.68a2.37,2.37,0,1,0,2.37-2.39A2.38,2.38,0,0,0,239.63,314.68Z"/><path class="cls-7" d="M221.61,296.54a2.37,2.37,0,1,0,2.37-2.4A2.39,2.39,0,0,0,221.61,296.54Z"/><path class="cls-7" d="M221.61,278.34A2.37,2.37,0,1,0,224,276,2.38,2.38,0,0,0,221.61,278.34Z"/><path class="cls-7" d="M239.63,296.54a2.37,2.37,0,1,0,2.37-2.4A2.39,2.39,0,0,0,239.63,296.54Z"/><path class="cls-7" d="M239.63,278.34A2.37,2.37,0,1,0,242,276,2.38,2.38,0,0,0,239.63,278.34Z"/><path class="cls-7" d="M221.61,260.19A2.37,2.37,0,1,0,224,257.8,2.39,2.39,0,0,0,221.61,260.19Z"/><path class="cls-7" d="M239.63,260.19A2.37,2.37,0,1,0,242,257.8,2.39,2.39,0,0,0,239.63,260.19Z"/><path class="cls-7" d="M257.66,478.24a2.37,2.37,0,1,0,2.36-2.39A2.38,2.38,0,0,0,257.66,478.24Z"/><path class="cls-7" d="M257.66,460.05a2.37,2.37,0,1,0,2.36-2.39A2.38,2.38,0,0,0,257.66,460.05Z"/><path class="cls-7" d="M257.66,441.9a2.37,2.37,0,1,0,2.36-2.39A2.38,2.38,0,0,0,257.66,441.9Z"/><path class="cls-7" d="M257.66,423.71a2.37,2.37,0,1,0,2.36-2.39A2.38,2.38,0,0,0,257.66,423.71Z"/><path class="cls-7" d="M257.66,405.56a2.37,2.37,0,1,0,2.36-2.39A2.38,2.38,0,0,0,257.66,405.56Z"/><path class="cls-7" d="M257.66,387.37A2.37,2.37,0,1,0,260,385,2.38,2.38,0,0,0,257.66,387.37Z"/><path class="cls-7" d="M257.66,369.22a2.37,2.37,0,1,0,2.36-2.39A2.38,2.38,0,0,0,257.66,369.22Z"/><path class="cls-7" d="M257.66,351a2.37,2.37,0,1,0,2.36-2.39A2.38,2.38,0,0,0,257.66,351Z"/><path class="cls-7" d="M257.66,332.88a2.37,2.37,0,1,0,2.36-2.39A2.38,2.38,0,0,0,257.66,332.88Z"/><path class="cls-7" d="M257.66,314.68a2.37,2.37,0,1,0,2.36-2.39A2.38,2.38,0,0,0,257.66,314.68Z"/><path class="cls-7" d="M257.66,296.54a2.37,2.37,0,1,0,2.36-2.4A2.38,2.38,0,0,0,257.66,296.54Z"/><path class="cls-7" d="M257.66,278.34A2.37,2.37,0,1,0,260,276,2.38,2.38,0,0,0,257.66,278.34Z"/><path class="cls-7" d="M257.66,260.19A2.37,2.37,0,1,0,260,257.8,2.39,2.39,0,0,0,257.66,260.19Z"/><path class="cls-7" d="M275.67,478.24a2.37,2.37,0,1,0,2.36-2.39A2.38,2.38,0,0,0,275.67,478.24Z"/><path class="cls-7" d="M275.67,460.05a2.37,2.37,0,1,0,2.36-2.39A2.38,2.38,0,0,0,275.67,460.05Z"/><path class="cls-7" d="M293.69,478.24a2.37,2.37,0,1,0,2.37-2.39A2.38,2.38,0,0,0,293.69,478.24Z"/><path class="cls-7" d="M293.69,460.05a2.37,2.37,0,1,0,2.37-2.39A2.38,2.38,0,0,0,293.69,460.05Z"/><path class="cls-7" d="M275.67,441.9a2.37,2.37,0,1,0,2.36-2.39A2.38,2.38,0,0,0,275.67,441.9Z"/><path class="cls-7" d="M275.67,423.71a2.37,2.37,0,1,0,2.36-2.39A2.38,2.38,0,0,0,275.67,423.71Z"/><path class="cls-7" d="M293.69,441.9a2.37,2.37,0,1,0,2.37-2.39A2.38,2.38,0,0,0,293.69,441.9Z"/><path class="cls-7" d="M293.69,423.71a2.37,2.37,0,1,0,2.37-2.39A2.39,2.39,0,0,0,293.69,423.71Z"/><path class="cls-7" d="M275.67,405.56a2.37,2.37,0,1,0,2.36-2.39A2.38,2.38,0,0,0,275.67,405.56Z"/><path class="cls-7" d="M275.67,387.37A2.37,2.37,0,1,0,278,385,2.38,2.38,0,0,0,275.67,387.37Z"/><path class="cls-7" d="M293.69,405.56a2.37,2.37,0,1,0,2.37-2.39A2.38,2.38,0,0,0,293.69,405.56Z"/><path class="cls-7" d="M293.69,387.37a2.37,2.37,0,1,0,2.37-2.4A2.39,2.39,0,0,0,293.69,387.37Z"/><path class="cls-7" d="M275.67,369.22a2.37,2.37,0,1,0,2.36-2.39A2.38,2.38,0,0,0,275.67,369.22Z"/><path class="cls-7" d="M275.67,351a2.37,2.37,0,1,0,2.36-2.39A2.38,2.38,0,0,0,275.67,351Z"/><path class="cls-7" d="M293.69,369.22a2.37,2.37,0,1,0,2.37-2.39A2.38,2.38,0,0,0,293.69,369.22Z"/><path class="cls-7" d="M293.69,351a2.37,2.37,0,1,0,2.37-2.39A2.38,2.38,0,0,0,293.69,351Z"/><path class="cls-7" d="M275.67,332.88a2.37,2.37,0,1,0,2.36-2.39A2.38,2.38,0,0,0,275.67,332.88Z"/><path class="cls-7" d="M275.67,314.68a2.37,2.37,0,1,0,2.36-2.39A2.38,2.38,0,0,0,275.67,314.68Z"/><path class="cls-7" d="M293.69,332.88a2.37,2.37,0,1,0,2.37-2.39A2.38,2.38,0,0,0,293.69,332.88Z"/><path class="cls-7" d="M293.69,314.68a2.37,2.37,0,1,0,2.37-2.39A2.38,2.38,0,0,0,293.69,314.68Z"/><path class="cls-7" d="M275.67,296.54a2.37,2.37,0,1,0,2.36-2.4A2.38,2.38,0,0,0,275.67,296.54Z"/><path class="cls-7" d="M275.67,278.34A2.37,2.37,0,1,0,278,276,2.38,2.38,0,0,0,275.67,278.34Z"/><path class="cls-7" d="M293.69,296.54a2.37,2.37,0,1,0,2.37-2.4A2.39,2.39,0,0,0,293.69,296.54Z"/><path class="cls-7" d="M293.69,278.34a2.37,2.37,0,1,0,2.37-2.39A2.38,2.38,0,0,0,293.69,278.34Z"/><path class="cls-7" d="M275.67,260.19A2.37,2.37,0,1,0,278,257.8,2.39,2.39,0,0,0,275.67,260.19Z"/><path class="cls-7" d="M293.69,260.19a2.37,2.37,0,1,0,2.37-2.39A2.39,2.39,0,0,0,293.69,260.19Z"/><path class="cls-7" d="M311.7,478.24a2.37,2.37,0,1,0,2.37-2.39A2.38,2.38,0,0,0,311.7,478.24Z"/><path class="cls-7" d="M311.7,460.05a2.37,2.37,0,1,0,2.37-2.39A2.38,2.38,0,0,0,311.7,460.05Z"/><path class="cls-7" d="M329.72,478.24a2.37,2.37,0,1,0,2.37-2.39A2.39,2.39,0,0,0,329.72,478.24Z"/><path class="cls-7" d="M329.72,460.05a2.37,2.37,0,1,0,2.37-2.39A2.39,2.39,0,0,0,329.72,460.05Z"/><path class="cls-7" d="M311.7,441.9a2.37,2.37,0,1,0,2.37-2.39A2.38,2.38,0,0,0,311.7,441.9Z"/><path class="cls-7" d="M311.7,423.71a2.37,2.37,0,1,0,2.37-2.39A2.39,2.39,0,0,0,311.7,423.71Z"/><path class="cls-7" d="M329.72,441.9a2.37,2.37,0,1,0,2.37-2.39A2.39,2.39,0,0,0,329.72,441.9Z"/><path class="cls-7" d="M329.72,423.71a2.37,2.37,0,1,0,2.37-2.39A2.39,2.39,0,0,0,329.72,423.71Z"/><path class="cls-7" d="M311.7,405.56a2.37,2.37,0,1,0,2.37-2.39A2.38,2.38,0,0,0,311.7,405.56Z"/><path class="cls-7" d="M311.7,387.37a2.37,2.37,0,1,0,2.37-2.4A2.39,2.39,0,0,0,311.7,387.37Z"/><path class="cls-7" d="M329.72,405.56a2.37,2.37,0,1,0,2.37-2.39A2.39,2.39,0,0,0,329.72,405.56Z"/><path class="cls-7" d="M329.72,387.37a2.37,2.37,0,1,0,2.37-2.4A2.39,2.39,0,0,0,329.72,387.37Z"/><path class="cls-7" d="M311.7,369.22a2.37,2.37,0,1,0,2.37-2.39A2.38,2.38,0,0,0,311.7,369.22Z"/><path class="cls-7" d="M311.7,351a2.37,2.37,0,1,0,2.37-2.39A2.38,2.38,0,0,0,311.7,351Z"/><path class="cls-7" d="M329.72,369.22a2.37,2.37,0,1,0,2.37-2.39A2.39,2.39,0,0,0,329.72,369.22Z"/><path class="cls-7" d="M329.72,351a2.37,2.37,0,1,0,2.37-2.39A2.39,2.39,0,0,0,329.72,351Z"/><path class="cls-7" d="M311.7,332.88a2.37,2.37,0,1,0,2.37-2.39A2.38,2.38,0,0,0,311.7,332.88Z"/><path class="cls-7" d="M311.7,314.68a2.37,2.37,0,1,0,2.37-2.39A2.38,2.38,0,0,0,311.7,314.68Z"/><path class="cls-7" d="M329.72,332.88a2.37,2.37,0,1,0,2.37-2.39A2.39,2.39,0,0,0,329.72,332.88Z"/><path class="cls-7" d="M329.72,314.68a2.37,2.37,0,1,0,2.37-2.39A2.39,2.39,0,0,0,329.72,314.68Z"/><path class="cls-7" d="M311.7,296.54a2.37,2.37,0,1,0,2.37-2.4A2.39,2.39,0,0,0,311.7,296.54Z"/><path class="cls-7" d="M311.7,278.34a2.37,2.37,0,1,0,2.37-2.39A2.38,2.38,0,0,0,311.7,278.34Z"/><path class="cls-7" d="M329.72,296.54a2.37,2.37,0,1,0,2.37-2.4A2.39,2.39,0,0,0,329.72,296.54Z"/><path class="cls-7" d="M329.72,278.34a2.37,2.37,0,1,0,2.37-2.39A2.39,2.39,0,0,0,329.72,278.34Z"/><path class="cls-7" d="M311.7,260.19a2.37,2.37,0,1,0,2.37-2.39A2.39,2.39,0,0,0,311.7,260.19Z"/><path class="cls-7" d="M329.72,260.19a2.37,2.37,0,1,0,2.37-2.39A2.39,2.39,0,0,0,329.72,260.19Z"/><path class="cls-7" d="M347.74,478.24a2.37,2.37,0,1,0,2.36-2.39A2.38,2.38,0,0,0,347.74,478.24Z"/><path class="cls-7" d="M347.74,460.05a2.37,2.37,0,1,0,2.36-2.39A2.38,2.38,0,0,0,347.74,460.05Z"/><path class="cls-7" d="M365.76,478.24a2.37,2.37,0,1,0,2.37-2.39A2.38,2.38,0,0,0,365.76,478.24Z"/><path class="cls-7" d="M365.76,460.05a2.37,2.37,0,1,0,2.37-2.39A2.38,2.38,0,0,0,365.76,460.05Z"/><path class="cls-7" d="M347.74,441.9a2.37,2.37,0,1,0,2.36-2.39A2.38,2.38,0,0,0,347.74,441.9Z"/><path class="cls-7" d="M347.74,423.71a2.37,2.37,0,1,0,2.36-2.39A2.38,2.38,0,0,0,347.74,423.71Z"/><path class="cls-7" d="M365.76,441.9a2.37,2.37,0,1,0,2.37-2.39A2.38,2.38,0,0,0,365.76,441.9Z"/><path class="cls-7" d="M365.76,423.71a2.37,2.37,0,1,0,2.37-2.39A2.39,2.39,0,0,0,365.76,423.71Z"/><path class="cls-7" d="M347.74,405.56a2.37,2.37,0,1,0,2.36-2.39A2.38,2.38,0,0,0,347.74,405.56Z"/><path class="cls-7" d="M347.74,387.37a2.37,2.37,0,1,0,2.36-2.4A2.38,2.38,0,0,0,347.74,387.37Z"/><path class="cls-7" d="M365.76,405.56a2.37,2.37,0,1,0,2.37-2.39A2.38,2.38,0,0,0,365.76,405.56Z"/><path class="cls-7" d="M365.76,387.37a2.37,2.37,0,1,0,2.37-2.4A2.39,2.39,0,0,0,365.76,387.37Z"/><path class="cls-7" d="M347.74,369.22a2.37,2.37,0,1,0,2.36-2.39A2.38,2.38,0,0,0,347.74,369.22Z"/><path class="cls-7" d="M347.74,351a2.37,2.37,0,1,0,2.36-2.39A2.38,2.38,0,0,0,347.74,351Z"/><path class="cls-7" d="M365.76,369.22a2.37,2.37,0,1,0,2.37-2.39A2.38,2.38,0,0,0,365.76,369.22Z"/><path class="cls-7" d="M365.76,351a2.37,2.37,0,1,0,2.37-2.39A2.38,2.38,0,0,0,365.76,351Z"/><path class="cls-7" d="M347.74,332.88a2.37,2.37,0,1,0,2.36-2.39A2.38,2.38,0,0,0,347.74,332.88Z"/><path class="cls-7" d="M347.74,314.68a2.37,2.37,0,1,0,2.36-2.39A2.38,2.38,0,0,0,347.74,314.68Z"/><path class="cls-7" d="M365.76,332.88a2.37,2.37,0,1,0,2.37-2.39A2.38,2.38,0,0,0,365.76,332.88Z"/><path class="cls-7" d="M365.76,314.68a2.37,2.37,0,1,0,2.37-2.39A2.38,2.38,0,0,0,365.76,314.68Z"/><path class="cls-7" d="M347.74,296.54a2.37,2.37,0,1,0,2.36-2.4A2.38,2.38,0,0,0,347.74,296.54Z"/><path class="cls-7" d="M347.74,278.34A2.37,2.37,0,1,0,350.1,276,2.38,2.38,0,0,0,347.74,278.34Z"/><path class="cls-7" d="M365.76,296.54a2.37,2.37,0,1,0,2.37-2.4A2.39,2.39,0,0,0,365.76,296.54Z"/><path class="cls-7" d="M365.76,278.34a2.37,2.37,0,1,0,2.37-2.39A2.38,2.38,0,0,0,365.76,278.34Z"/><path class="cls-7" d="M347.74,260.19a2.37,2.37,0,1,0,2.36-2.39A2.39,2.39,0,0,0,347.74,260.19Z"/><path class="cls-7" d="M365.76,260.19a2.37,2.37,0,1,0,2.37-2.39A2.39,2.39,0,0,0,365.76,260.19Z"/><path class="cls-7" d="M383.77,478.24a2.37,2.37,0,1,0,2.37-2.39A2.38,2.38,0,0,0,383.77,478.24Z"/><path class="cls-7" d="M383.77,460.05a2.37,2.37,0,1,0,2.37-2.39A2.38,2.38,0,0,0,383.77,460.05Z"/><path class="cls-7" d="M401.79,478.24a2.37,2.37,0,1,0,2.37-2.39A2.39,2.39,0,0,0,401.79,478.24Z"/><path class="cls-7" d="M401.79,460.05a2.37,2.37,0,1,0,2.37-2.39A2.39,2.39,0,0,0,401.79,460.05Z"/><path class="cls-7" d="M383.77,441.9a2.37,2.37,0,1,0,2.37-2.39A2.38,2.38,0,0,0,383.77,441.9Z"/><path class="cls-7" d="M383.77,423.71a2.37,2.37,0,1,0,2.37-2.39A2.39,2.39,0,0,0,383.77,423.71Z"/><path class="cls-7" d="M401.79,441.9a2.37,2.37,0,1,0,2.37-2.39A2.39,2.39,0,0,0,401.79,441.9Z"/><path class="cls-7" d="M401.79,423.71a2.37,2.37,0,1,0,2.37-2.39A2.39,2.39,0,0,0,401.79,423.71Z"/><path class="cls-7" d="M383.77,405.56a2.37,2.37,0,1,0,2.37-2.39A2.38,2.38,0,0,0,383.77,405.56Z"/><path class="cls-7" d="M383.77,387.37a2.37,2.37,0,1,0,2.37-2.4A2.39,2.39,0,0,0,383.77,387.37Z"/><path class="cls-7" d="M401.79,405.56a2.37,2.37,0,1,0,2.37-2.39A2.39,2.39,0,0,0,401.79,405.56Z"/><path class="cls-7" d="M401.79,387.37a2.37,2.37,0,1,0,2.37-2.4A2.39,2.39,0,0,0,401.79,387.37Z"/><path class="cls-7" d="M383.77,369.22a2.37,2.37,0,1,0,2.37-2.39A2.38,2.38,0,0,0,383.77,369.22Z"/><path class="cls-7" d="M383.77,351a2.37,2.37,0,1,0,2.37-2.39A2.38,2.38,0,0,0,383.77,351Z"/><path class="cls-7" d="M401.79,369.22a2.37,2.37,0,1,0,2.37-2.39A2.39,2.39,0,0,0,401.79,369.22Z"/><path class="cls-7" d="M401.79,351a2.37,2.37,0,1,0,2.37-2.39A2.39,2.39,0,0,0,401.79,351Z"/><path class="cls-7" d="M383.77,332.88a2.37,2.37,0,1,0,2.37-2.39A2.38,2.38,0,0,0,383.77,332.88Z"/><path class="cls-7" d="M383.77,314.68a2.37,2.37,0,1,0,2.37-2.39A2.38,2.38,0,0,0,383.77,314.68Z"/><path class="cls-7" d="M401.79,332.88a2.37,2.37,0,1,0,2.37-2.39A2.39,2.39,0,0,0,401.79,332.88Z"/><path class="cls-7" d="M401.79,314.68a2.37,2.37,0,1,0,2.37-2.39A2.39,2.39,0,0,0,401.79,314.68Z"/><path class="cls-7" d="M383.77,296.54a2.37,2.37,0,1,0,2.37-2.4A2.39,2.39,0,0,0,383.77,296.54Z"/><path class="cls-7" d="M383.77,278.34a2.37,2.37,0,1,0,2.37-2.39A2.38,2.38,0,0,0,383.77,278.34Z"/><path class="cls-7" d="M401.79,296.54a2.37,2.37,0,1,0,2.37-2.4A2.39,2.39,0,0,0,401.79,296.54Z"/><path class="cls-7" d="M401.79,278.34a2.37,2.37,0,1,0,2.37-2.39A2.39,2.39,0,0,0,401.79,278.34Z"/><path class="cls-7" d="M383.77,260.19a2.37,2.37,0,1,0,2.37-2.39A2.39,2.39,0,0,0,383.77,260.19Z"/><path class="cls-7" d="M401.79,260.19a2.37,2.37,0,1,0,2.37-2.39A2.39,2.39,0,0,0,401.79,260.19Z"/><path class="cls-7" d="M419.81,478.24a2.37,2.37,0,1,0,2.36-2.39A2.38,2.38,0,0,0,419.81,478.24Z"/><path class="cls-7" d="M419.81,460.05a2.37,2.37,0,1,0,2.36-2.39A2.38,2.38,0,0,0,419.81,460.05Z"/><path class="cls-7" d="M437.83,478.24a2.37,2.37,0,1,0,2.37-2.39A2.38,2.38,0,0,0,437.83,478.24Z"/><path class="cls-7" d="M437.83,460.05a2.37,2.37,0,1,0,2.37-2.39A2.38,2.38,0,0,0,437.83,460.05Z"/><path class="cls-7" d="M419.81,441.9a2.37,2.37,0,1,0,2.36-2.39A2.38,2.38,0,0,0,419.81,441.9Z"/><path class="cls-7" d="M419.81,423.71a2.37,2.37,0,1,0,2.36-2.39A2.38,2.38,0,0,0,419.81,423.71Z"/><path class="cls-7" d="M437.83,441.9a2.37,2.37,0,1,0,2.37-2.39A2.38,2.38,0,0,0,437.83,441.9Z"/><path class="cls-7" d="M437.83,423.71a2.37,2.37,0,1,0,2.37-2.39A2.39,2.39,0,0,0,437.83,423.71Z"/><path class="cls-7" d="M419.81,405.56a2.37,2.37,0,1,0,2.36-2.39A2.38,2.38,0,0,0,419.81,405.56Z"/><path class="cls-7" d="M419.81,387.37a2.37,2.37,0,1,0,2.36-2.4A2.38,2.38,0,0,0,419.81,387.37Z"/><path class="cls-7" d="M437.83,405.56a2.37,2.37,0,1,0,2.37-2.39A2.38,2.38,0,0,0,437.83,405.56Z"/><path class="cls-7" d="M437.83,387.37a2.37,2.37,0,1,0,2.37-2.4A2.39,2.39,0,0,0,437.83,387.37Z"/><path class="cls-7" d="M419.81,369.22a2.37,2.37,0,1,0,2.36-2.39A2.38,2.38,0,0,0,419.81,369.22Z"/><path class="cls-7" d="M419.81,351a2.37,2.37,0,1,0,2.36-2.39A2.38,2.38,0,0,0,419.81,351Z"/><path class="cls-7" d="M437.83,369.22a2.37,2.37,0,1,0,2.37-2.39A2.38,2.38,0,0,0,437.83,369.22Z"/><path class="cls-7" d="M437.83,351a2.37,2.37,0,1,0,2.37-2.39A2.38,2.38,0,0,0,437.83,351Z"/><path class="cls-7" d="M419.81,332.88a2.37,2.37,0,1,0,2.36-2.39A2.38,2.38,0,0,0,419.81,332.88Z"/><path class="cls-7" d="M419.81,314.68a2.37,2.37,0,1,0,2.36-2.39A2.38,2.38,0,0,0,419.81,314.68Z"/><path class="cls-7" d="M437.83,332.88a2.37,2.37,0,1,0,2.37-2.39A2.38,2.38,0,0,0,437.83,332.88Z"/><path class="cls-7" d="M437.83,314.68a2.37,2.37,0,1,0,2.37-2.39A2.38,2.38,0,0,0,437.83,314.68Z"/><path class="cls-7" d="M419.81,296.54a2.37,2.37,0,1,0,2.36-2.4A2.38,2.38,0,0,0,419.81,296.54Z"/><path class="cls-7" d="M419.81,278.34a2.37,2.37,0,1,0,2.36-2.39A2.38,2.38,0,0,0,419.81,278.34Z"/><path class="cls-7" d="M437.83,296.54a2.37,2.37,0,1,0,2.37-2.4A2.39,2.39,0,0,0,437.83,296.54Z"/><path class="cls-7" d="M437.83,278.34A2.37,2.37,0,1,0,440.2,276,2.38,2.38,0,0,0,437.83,278.34Z"/><path class="cls-7" d="M419.81,260.19a2.37,2.37,0,1,0,2.36-2.39A2.39,2.39,0,0,0,419.81,260.19Z"/><path class="cls-7" d="M437.83,260.19a2.37,2.37,0,1,0,2.37-2.39A2.39,2.39,0,0,0,437.83,260.19Z"/><path class="cls-7" d="M455.84,478.24a2.37,2.37,0,1,0,2.37-2.39A2.38,2.38,0,0,0,455.84,478.24Z"/><path class="cls-7" d="M455.84,460.05a2.37,2.37,0,1,0,2.37-2.39A2.38,2.38,0,0,0,455.84,460.05Z"/><path class="cls-7" d="M473.86,478.24a2.37,2.37,0,1,0,2.37-2.39A2.39,2.39,0,0,0,473.86,478.24Z"/><path class="cls-7" d="M473.86,460.05a2.37,2.37,0,1,0,2.37-2.39A2.39,2.39,0,0,0,473.86,460.05Z"/><path class="cls-7" d="M455.84,441.9a2.37,2.37,0,1,0,2.37-2.39A2.38,2.38,0,0,0,455.84,441.9Z"/><path class="cls-7" d="M455.84,423.71a2.37,2.37,0,1,0,2.37-2.39A2.39,2.39,0,0,0,455.84,423.71Z"/><path class="cls-7" d="M473.86,441.9a2.37,2.37,0,1,0,2.37-2.39A2.39,2.39,0,0,0,473.86,441.9Z"/><path class="cls-7" d="M473.86,423.71a2.37,2.37,0,1,0,2.37-2.39A2.39,2.39,0,0,0,473.86,423.71Z"/><path class="cls-7" d="M455.84,405.56a2.37,2.37,0,1,0,2.37-2.39A2.38,2.38,0,0,0,455.84,405.56Z"/><path class="cls-7" d="M455.84,387.37a2.37,2.37,0,1,0,2.37-2.4A2.39,2.39,0,0,0,455.84,387.37Z"/><path class="cls-7" d="M473.86,405.56a2.37,2.37,0,1,0,2.37-2.39A2.39,2.39,0,0,0,473.86,405.56Z"/><path class="cls-7" d="M473.86,387.37a2.37,2.37,0,1,0,2.37-2.4A2.39,2.39,0,0,0,473.86,387.37Z"/><path class="cls-7" d="M455.84,369.22a2.37,2.37,0,1,0,2.37-2.39A2.38,2.38,0,0,0,455.84,369.22Z"/><path class="cls-7" d="M455.84,351a2.37,2.37,0,1,0,2.37-2.39A2.38,2.38,0,0,0,455.84,351Z"/><path class="cls-7" d="M473.86,369.22a2.37,2.37,0,1,0,2.37-2.39A2.39,2.39,0,0,0,473.86,369.22Z"/><path class="cls-7" d="M473.86,351a2.37,2.37,0,1,0,2.37-2.39A2.39,2.39,0,0,0,473.86,351Z"/><path class="cls-7" d="M455.84,332.88a2.37,2.37,0,1,0,2.37-2.39A2.38,2.38,0,0,0,455.84,332.88Z"/><path class="cls-7" d="M455.84,314.68a2.37,2.37,0,1,0,2.37-2.39A2.38,2.38,0,0,0,455.84,314.68Z"/><path class="cls-7" d="M473.86,332.88a2.37,2.37,0,1,0,2.37-2.39A2.39,2.39,0,0,0,473.86,332.88Z"/><path class="cls-7" d="M473.86,314.68a2.37,2.37,0,1,0,2.37-2.39A2.39,2.39,0,0,0,473.86,314.68Z"/><path class="cls-7" d="M455.84,296.54a2.37,2.37,0,1,0,2.37-2.4A2.39,2.39,0,0,0,455.84,296.54Z"/><path class="cls-7" d="M455.84,278.34a2.37,2.37,0,1,0,2.37-2.39A2.38,2.38,0,0,0,455.84,278.34Z"/><path class="cls-7" d="M473.86,296.54a2.37,2.37,0,1,0,2.37-2.4A2.39,2.39,0,0,0,473.86,296.54Z"/><path class="cls-7" d="M473.86,278.34a2.37,2.37,0,1,0,2.37-2.39A2.39,2.39,0,0,0,473.86,278.34Z"/><path class="cls-7" d="M455.84,260.19a2.37,2.37,0,1,0,2.37-2.39A2.39,2.39,0,0,0,455.84,260.19Z"/><path class="cls-7" d="M473.86,260.19a2.37,2.37,0,1,0,2.37-2.39A2.39,2.39,0,0,0,473.86,260.19Z"/></g></g></g><path class="cls-8" d="M166.46,221.27h7.15l-11.36,33.4h-7.72l-11.33-33.4h7.15l6.28,19.87c.35,1.18.72,2.54,1.09,4.11s.6,2.64.7,3.25a56.38,56.38,0,0,1,1.71-7.36Z"/><path class="cls-8" d="M177.43,222.53q0-3.41,3.8-3.41c2.52,0,3.79,1.14,3.79,3.41a3.32,3.32,0,0,1-1,2.52,4,4,0,0,1-2.84.9Q177.44,226,177.43,222.53Zm7.27,32.14h-7V229.13h7Z"/><path class="cls-8" d="M210.3,247.08a7,7,0,0,1-2.73,6c-1.82,1.37-4.55,2.06-8.17,2.06a25.7,25.7,0,0,1-4.75-.38,17.71,17.71,0,0,1-3.68-1.11v-5.76a24,24,0,0,0,4.37,1.53,17.37,17.37,0,0,0,4.29.62c2.53,0,3.79-.73,3.79-2.19a1.85,1.85,0,0,0-.5-1.34,7.46,7.46,0,0,0-1.74-1.16c-.82-.44-1.92-.94-3.29-1.52a20.64,20.64,0,0,1-4.33-2.29,6.42,6.42,0,0,1-2-2.41,7.9,7.9,0,0,1-.63-3.34,6.07,6.07,0,0,1,2.64-5.27c1.76-1.24,4.26-1.86,7.48-1.86a21.24,21.24,0,0,1,9,2l-2.1,5c-1.28-.54-2.47-1-3.59-1.34a11.23,11.23,0,0,0-3.4-.53c-2.06,0-3.08.56-3.08,1.67a2,2,0,0,0,1,1.62,25.89,25.89,0,0,0,4.35,2,20.28,20.28,0,0,1,4.39,2.27,6.59,6.59,0,0,1,2,2.42A7.3,7.3,0,0,1,210.3,247.08Z"/><path class="cls-8" d="M215.91,222.53q0-3.41,3.79-3.41t3.79,3.41a3.32,3.32,0,0,1-1,2.52,4,4,0,0,1-2.84.9Q215.9,226,215.91,222.53Zm7.26,32.14h-7V229.13h7Z"/><path class="cls-8" d="M241.71,249.57a14.8,14.8,0,0,0,4.38-.8V254a15.52,15.52,0,0,1-6.39,1.17q-4.19,0-6.09-2.12t-1.91-6.34V234.36h-3.33v-3l3.84-2.33,2-5.39h4.45v5.44h7.15v5.23h-7.15v12.31a2.76,2.76,0,0,0,.83,2.2A3.31,3.31,0,0,0,241.71,249.57Z"/><path class="cls-8" d="M275.11,249.57a14.8,14.8,0,0,0,4.38-.8V254a15.56,15.56,0,0,1-6.39,1.17q-4.19,0-6.09-2.12t-1.91-6.34V234.36h-3.33v-3l3.83-2.33,2-5.39h4.46v5.44h7.15v5.23h-7.15v12.31a2.76,2.76,0,0,0,.83,2.2A3.31,3.31,0,0,0,275.11,249.57Z"/><path class="cls-8" d="M308.7,254.67h-7V239.75c0-3.68-1.37-5.53-4.11-5.53a4.65,4.65,0,0,0-4.22,2q-1.31,2-1.31,6.44v12h-7V219.12h7v7.24c0,.57,0,1.89-.16,4l-.16,2h.37q2.33-3.73,7.4-3.74,4.5,0,6.83,2.42c1.55,1.61,2.33,3.93,2.33,6.94Z"/><path class="cls-8" d="M327.9,255.13q-6.16,0-9.64-3.41t-3.47-9.64q0-6.42,3.21-9.93t8.88-3.5q5.4,0,8.42,3.08t3,8.52v3.38H321.85a6.67,6.67,0,0,0,1.76,4.64,6.18,6.18,0,0,0,4.61,1.67,19.25,19.25,0,0,0,4.37-.48,21.8,21.8,0,0,0,4.29-1.53v5.39a16.45,16.45,0,0,1-3.91,1.36A24.3,24.3,0,0,1,327.9,255.13Zm-1-21.52a4.4,4.4,0,0,0-3.47,1.4,6.5,6.5,0,0,0-1.44,4h9.78a5.82,5.82,0,0,0-1.35-4A4.55,4.55,0,0,0,326.92,233.61Z"/><path class="cls-8" d="M116.67,311.24h-7v-33.4h19.15v5.8H116.67v8.62H128V298H116.67Z"/><path class="cls-8" d="M158.51,298.42q0,6.24-3.29,9.76t-9.16,3.52a12.88,12.88,0,0,1-6.49-1.61,10.74,10.74,0,0,1-4.31-4.63,15.5,15.5,0,0,1-1.51-7q0-6.26,3.27-9.73t9.18-3.47a12.88,12.88,0,0,1,6.49,1.6,10.64,10.64,0,0,1,4.31,4.59A15.34,15.34,0,0,1,158.51,298.42Zm-17.66,0a10.75,10.75,0,0,0,1.25,5.74,4.46,4.46,0,0,0,4.05,1.94,4.37,4.37,0,0,0,4-1.93,10.84,10.84,0,0,0,1.22-5.75,10.55,10.55,0,0,0-1.23-5.68,5.24,5.24,0,0,0-8.06,0A10.48,10.48,0,0,0,140.85,298.42Z"/><path class="cls-8" d="M182.83,311.24l-.94-3.27h-.36a7.41,7.41,0,0,1-3.18,2.76,10.94,10.94,0,0,1-4.68,1c-3,0-5.26-.81-6.78-2.41s-2.29-3.92-2.29-6.94V285.7h7v14.92a7.19,7.19,0,0,0,1,4.14,3.57,3.57,0,0,0,3.13,1.39,4.72,4.72,0,0,0,4.23-2q1.31-1.95,1.3-6.47v-12h7v25.54Z"/><path class="cls-8" d="M219.53,311.24h-7V296.32a7.11,7.11,0,0,0-1-4.14,3.55,3.55,0,0,0-3.13-1.39,4.67,4.67,0,0,0-4.22,2q-1.3,2-1.31,6.47v12h-7V285.7h5.32l.94,3.27h.38a7.35,7.35,0,0,1,3.21-2.8,11,11,0,0,1,4.65-.95c3,0,5.23.8,6.76,2.41s2.31,3.93,2.31,7Z"/><path class="cls-8" d="M235.26,311.7a8.3,8.3,0,0,1-7.07-3.5q-2.56-3.49-2.57-9.68t2.62-9.79a8.48,8.48,0,0,1,7.2-3.51A8.33,8.33,0,0,1,242.8,289H243a28.69,28.69,0,0,1-.53-5.1v-8.18h7v35.55h-5.34l-1.35-3.31h-.3A8,8,0,0,1,235.26,311.7Zm2.45-5.55a4.7,4.7,0,0,0,3.91-1.56c.83-1,1.29-2.79,1.36-5.28v-.75c0-2.74-.42-4.71-1.27-5.89a4.69,4.69,0,0,0-4.12-1.79,4.09,4.09,0,0,0-3.62,2,10.55,10.55,0,0,0-1.29,5.75,10,10,0,0,0,1.3,5.65A4.26,4.26,0,0,0,237.71,306.15Z"/><path class="cls-8" d="M273.47,311.24l-1.35-3.47h-.18a10.23,10.23,0,0,1-3.62,3.07,11.72,11.72,0,0,1-4.86.86,7.86,7.86,0,0,1-5.79-2.1,8.09,8.09,0,0,1-2.11-6,6.76,6.76,0,0,1,2.84-6c1.9-1.28,4.76-2,8.58-2.13l4.43-.14v-1.12q0-3.89-4-3.88a18,18,0,0,0-7.2,1.85l-2.3-4.71a20.71,20.71,0,0,1,9.77-2.31q5.15,0,7.88,2.24c1.83,1.5,2.75,3.76,2.75,6.81v17Zm-2.06-11.83-2.69.09a8.58,8.58,0,0,0-4.52,1.09,3.46,3.46,0,0,0-1.49,3.07q0,2.94,3.38,2.94a5.32,5.32,0,0,0,3.87-1.39,4.88,4.88,0,0,0,1.45-3.7Z"/><path class="cls-8" d="M296.74,306.15a15.13,15.13,0,0,0,4.38-.8v5.18a15.56,15.56,0,0,1-6.39,1.17q-4.19,0-6.09-2.12c-1.27-1.4-1.91-3.52-1.91-6.34V290.93H283.4V288l3.83-2.33,2-5.39h4.46v5.44h7.15v5.23H293.7v12.31a2.75,2.75,0,0,0,.83,2.2A3.31,3.31,0,0,0,296.74,306.15Z"/><path class="cls-8" d="M306.46,279.1q0-3.41,3.79-3.41T314,279.1a3.28,3.28,0,0,1-1,2.52,4,4,0,0,1-2.84.9Q306.46,282.52,306.46,279.1Zm7.26,32.14h-7V285.7h7Z"/><path class="cls-8" d="M344.71,298.42q0,6.24-3.29,9.76t-9.16,3.52a12.88,12.88,0,0,1-6.49-1.61,10.74,10.74,0,0,1-4.31-4.63,15.5,15.5,0,0,1-1.51-7q0-6.26,3.26-9.73t9.19-3.47a12.88,12.88,0,0,1,6.49,1.6,10.64,10.64,0,0,1,4.31,4.59A15.34,15.34,0,0,1,344.71,298.42Zm-17.66,0a10.75,10.75,0,0,0,1.25,5.74,4.46,4.46,0,0,0,4.05,1.94,4.37,4.37,0,0,0,4-1.93,10.84,10.84,0,0,0,1.22-5.75,10.55,10.55,0,0,0-1.23-5.68,5.24,5.24,0,0,0-8.06,0A10.48,10.48,0,0,0,327.05,298.42Z"/><path class="cls-8" d="M374.51,311.24h-7V296.32a7.11,7.11,0,0,0-1-4.14,3.55,3.55,0,0,0-3.13-1.39,4.67,4.67,0,0,0-4.22,2q-1.31,2-1.31,6.47v12h-7V285.7h5.32l.94,3.27h.38a7.35,7.35,0,0,1,3.21-2.8,11,11,0,0,1,4.65-.95q4.46,0,6.77,2.41t2.3,7Z"/><path class="cls-8" d="M159.31,367.81v-33.4h7.08V362h13.55v5.85Z"/><path class="cls-8" d="M208.88,355c0,4.15-1.1,7.41-3.3,9.75s-5.24,3.52-9.16,3.52a12.82,12.82,0,0,1-6.48-1.61,10.7,10.7,0,0,1-4.32-4.63,15.46,15.46,0,0,1-1.51-7q0-6.27,3.27-9.74c2.17-2.31,5.24-3.47,9.18-3.47a12.85,12.85,0,0,1,6.49,1.6,10.77,10.77,0,0,1,4.32,4.59A15.48,15.48,0,0,1,208.88,355Zm-17.67,0a10.71,10.71,0,0,0,1.25,5.73,4.46,4.46,0,0,0,4.06,1.94,4.36,4.36,0,0,0,4-1.93,10.81,10.81,0,0,0,1.23-5.74,10.47,10.47,0,0,0-1.24-5.69,5.24,5.24,0,0,0-8.06,0A10.59,10.59,0,0,0,191.21,355Z"/><path class="cls-8" d="M233.19,367.81l-.93-3.27h-.37a7.38,7.38,0,0,1-3.17,2.76,11,11,0,0,1-4.69,1c-3,0-5.26-.81-6.78-2.41s-2.29-3.92-2.29-6.94V342.27h7v14.92a7.19,7.19,0,0,0,1,4.14,3.57,3.57,0,0,0,3.13,1.39,4.7,4.7,0,0,0,4.23-2q1.3-2,1.3-6.47v-12h7v25.54Z"/><path class="cls-8" d="M269.89,367.81h-7V352.89a7.1,7.1,0,0,0-1-4.14,3.56,3.56,0,0,0-3.13-1.38,4.7,4.7,0,0,0-4.22,1.95q-1.31,1.95-1.3,6.47v12h-7V342.27h5.32l.94,3.27H253a7.27,7.27,0,0,1,3.2-2.8,11,11,0,0,1,4.66-.95c3,0,5.22.8,6.76,2.41s2.3,3.93,2.3,7Z"/><path class="cls-8" d="M299.76,342.27v3.54l-4,1a7,7,0,0,1,1.09,3.84,7.76,7.76,0,0,1-2.86,6.41c-1.92,1.53-4.57,2.29-8,2.29l-1.25-.07-1-.11a2.31,2.31,0,0,0-1.07,1.83c0,1,1.28,1.5,3.83,1.5h4.35c2.8,0,4.93.61,6.4,1.81a6.45,6.45,0,0,1,2.21,5.3,7.86,7.86,0,0,1-3.74,6.94Q292,379.06,285,379.05q-5.36,0-8.17-1.86A5.91,5.91,0,0,1,274,372a5.45,5.45,0,0,1,1.44-3.86,8.15,8.15,0,0,1,4.22-2.22,4.64,4.64,0,0,1-1.87-1.49,3.6,3.6,0,0,1-.8-2.21,3.55,3.55,0,0,1,.85-2.43,9.67,9.67,0,0,1,2.44-1.91,6.9,6.9,0,0,1-3.19-2.79,8.5,8.5,0,0,1-1.17-4.52,7.94,7.94,0,0,1,2.72-6.46q2.71-2.29,7.76-2.29A21.6,21.6,0,0,1,289,342c1,.13,1.61.23,1.89.29Zm-19.71,29.15a2.52,2.52,0,0,0,1.38,2.26,7.58,7.58,0,0,0,3.87.82,13.78,13.78,0,0,0,5.87-1c1.42-.69,2.13-1.62,2.13-2.81a2,2,0,0,0-1.26-2,10.15,10.15,0,0,0-3.88-.55h-3.61a5.47,5.47,0,0,0-3.21.9A2.79,2.79,0,0,0,280.05,371.42Zm2.53-20.79a5.21,5.21,0,0,0,.95,3.29,3.45,3.45,0,0,0,2.89,1.21,3.37,3.37,0,0,0,2.88-1.21,5.33,5.33,0,0,0,.92-3.29q0-4.61-3.8-4.61T282.58,350.63Z"/><path class="cls-8" d="M316,368.27q-6.18,0-9.65-3.41t-3.47-9.64q0-6.42,3.21-9.92t8.88-3.51q5.41,0,8.43,3.09t3,8.52v3.38H309.94a6.73,6.73,0,0,0,1.76,4.64,6.2,6.2,0,0,0,4.62,1.66,19.17,19.17,0,0,0,4.36-.48,21.8,21.8,0,0,0,4.29-1.53v5.39a16.09,16.09,0,0,1-3.9,1.36A24.44,24.44,0,0,1,316,368.27Zm-1-21.52a4.45,4.45,0,0,0-3.47,1.4,6.5,6.5,0,0,0-1.44,4h9.78a5.82,5.82,0,0,0-1.35-4A4.59,4.59,0,0,0,315,346.75Z"/><path class="cls-8" d="M203.42,106.05a11,11,0,1,0-11-11A11,11,0,0,0,203.42,106.05Zm77.16,0a11,11,0,1,0-11-11A11,11,0,0,0,280.58,106.05Zm5.52,5.51h-11a11,11,0,0,0-7.77,3.21,25.2,25.2,0,0,1,12.94,18.84h11.37a5.5,5.5,0,0,0,5.51-5.51v-5.51A11,11,0,0,0,286.1,111.56Zm-44.1,0a19.29,19.29,0,1,0-19.29-19.29A19.28,19.28,0,0,0,242,111.56Zm13.23,5.51H253.8a26.6,26.6,0,0,1-23.6,0h-1.43a19.85,19.85,0,0,0-19.84,19.85v5a8.27,8.27,0,0,0,8.27,8.27h49.6a8.27,8.27,0,0,0,8.27-8.27v-5A19.85,19.85,0,0,0,255.23,117.07Zm-38.53-2.3a11,11,0,0,0-7.77-3.21h-11a11,11,0,0,0-11,11v5.51a5.5,5.5,0,0,0,5.51,5.51h11.35a25.27,25.27,0,0,1,13-18.84Z"/></g></g></svg>