<svg id="Layer_1" data-name="Layer 1" xmlns="http://www.w3.org/2000/svg" xmlns:xlink="http://www.w3.org/1999/xlink" viewBox="0 0 484 484"><defs><style>.cls-1{fill:none;}.cls-2{clip-path:url(#clip-path);}.cls-3{fill:#ffd602;}.cls-4{clip-path:url(#clip-path-2);}.cls-5{opacity:0.15;}.cls-6{fill:#fff;}.cls-7{fill:#00365b;}</style><clipPath id="clip-path"><rect class="cls-1" width="484" height="484"/></clipPath><clipPath id="clip-path-2"><rect class="cls-1" x="-380.27" y="-5.15" width="878.79" height="494.29"/></clipPath></defs><g class="cls-2"><rect class="cls-3" width="484" height="484"/><g class="cls-4"><g class="cls-5"><polygon class="cls-6" points="15.28 238.09 0 222.81 0 253.37 15.28 238.09 15.28 238.09"/><polygon class="cls-6" points="24.68 0 0 0 0 23.73 214.36 238.09 214.35 238.09 0 452.44 0 484 16.86 484 262.77 238.09 24.68 0"/><polygon class="cls-6" points="484 482.79 482.79 484 484 484 484 482.79"/><polygon class="cls-6" points="311.34 484 346.85 484 484 346.85 484 311.34 311.34 484"/><polygon class="cls-6" points="97.78 238.09 97.78 238.09 0 140.31 0 195.18 42.91 238.09 0 281 0 335.87 97.78 238.09"/><polygon class="cls-6" points="397.06 484 429.34 484 484 429.34 484 397.06 397.06 484"/><polygon class="cls-6" points="354.67 0 319.16 0 484 164.84 484 129.33 354.67 0"/><polygon class="cls-6" points="180.27 238.09 180.27 238.09 0 57.82 0 109.46 128.63 238.09 0 366.72 0 418.36 180.27 238.09"/><polygon class="cls-6" points="484 264.35 484 211.83 272.17 0 233.44 0 471.53 238.09 225.62 484 264.35 484 484 264.35"/><polygon class="cls-6" points="437.16 0 404.89 0 484 79.11 484 46.84 437.16 0"/><polygon class="cls-6" points="427.76 238.09 189.67 0 147.71 0 385.8 238.09 139.89 484 181.85 484 427.76 238.09"/><polygon class="cls-6" points="345.27 238.09 107.18 0 61.99 0 300.08 238.09 300.08 238.09 54.17 484 99.36 484 345.27 238.09"/></g></g></g><path class="cls-7" d="M166.46,221.27h7.15l-11.36,33.4h-7.72l-11.33-33.4h7.15l6.28,19.87c.35,1.18.72,2.54,1.09,4.11s.6,2.64.7,3.25a56.38,56.38,0,0,1,1.71-7.36Z"/><path class="cls-7" d="M177.43,222.53q0-3.41,3.8-3.41c2.52,0,3.79,1.14,3.79,3.41a3.32,3.32,0,0,1-1,2.52,4,4,0,0,1-2.84.9Q177.44,226,177.43,222.53Zm7.27,32.14h-7V229.13h7Z"/><path class="cls-7" d="M210.3,247.08a7,7,0,0,1-2.73,6c-1.82,1.37-4.55,2.06-8.17,2.06a25.7,25.7,0,0,1-4.75-.38,17.71,17.71,0,0,1-3.68-1.11v-5.76a24,24,0,0,0,4.37,1.53,17.37,17.37,0,0,0,4.29.62c2.53,0,3.79-.73,3.79-2.19a1.85,1.85,0,0,0-.5-1.34,7.46,7.46,0,0,0-1.74-1.16c-.82-.44-1.92-.94-3.29-1.52a20.64,20.64,0,0,1-4.33-2.29,6.42,6.42,0,0,1-2-2.41,7.9,7.9,0,0,1-.63-3.34,6.07,6.07,0,0,1,2.64-5.27c1.76-1.24,4.26-1.86,7.48-1.86a21.24,21.24,0,0,1,9,2l-2.1,5c-1.28-.54-2.47-1-3.59-1.34a11.23,11.23,0,0,0-3.4-.53c-2.06,0-3.08.56-3.08,1.67a2,2,0,0,0,1,1.62,25.89,25.89,0,0,0,4.35,2,20.28,20.28,0,0,1,4.39,2.27,6.59,6.59,0,0,1,2,2.42A7.3,7.3,0,0,1,210.3,247.08Z"/><path class="cls-7" d="M215.91,222.53q0-3.41,3.79-3.41t3.79,3.41a3.32,3.32,0,0,1-1,2.52,4,4,0,0,1-2.84.9Q215.9,226,215.91,222.53Zm7.26,32.14h-7V229.13h7Z"/><path class="cls-7" d="M241.71,249.57a14.8,14.8,0,0,0,4.38-.8V254a15.52,15.52,0,0,1-6.39,1.17q-4.19,0-6.09-2.12t-1.91-6.34V234.36h-3.33v-3l3.84-2.33,2-5.39h4.45v5.44h7.15v5.23h-7.15v12.31a2.76,2.76,0,0,0,.83,2.2A3.31,3.31,0,0,0,241.71,249.57Z"/><path class="cls-7" d="M275.11,249.57a14.8,14.8,0,0,0,4.38-.8V254a15.56,15.56,0,0,1-6.39,1.17q-4.19,0-6.09-2.12t-1.91-6.34V234.36h-3.33v-3l3.83-2.33,2-5.39h4.46v5.44h7.15v5.23h-7.15v12.31a2.76,2.76,0,0,0,.83,2.2A3.31,3.31,0,0,0,275.11,249.57Z"/><path class="cls-7" d="M308.7,254.67h-7V239.75c0-3.68-1.37-5.53-4.11-5.53a4.65,4.65,0,0,0-4.22,2q-1.31,2-1.31,6.44v12h-7V219.12h7v7.24c0,.57,0,1.89-.16,4l-.16,2h.37q2.33-3.73,7.4-3.74,4.5,0,6.83,2.42c1.55,1.61,2.33,3.93,2.33,6.94Z"/><path class="cls-7" d="M327.9,255.13q-6.16,0-9.64-3.41t-3.47-9.64q0-6.42,3.21-9.93t8.88-3.5q5.4,0,8.42,3.08t3,8.52v3.38H321.85a6.67,6.67,0,0,0,1.76,4.64,6.18,6.18,0,0,0,4.61,1.67,19.25,19.25,0,0,0,4.37-.48,21.8,21.8,0,0,0,4.29-1.53v5.39a16.45,16.45,0,0,1-3.91,1.36A24.3,24.3,0,0,1,327.9,255.13Zm-1-21.52a4.4,4.4,0,0,0-3.47,1.4,6.5,6.5,0,0,0-1.44,4h9.78a5.82,5.82,0,0,0-1.35-4A4.55,4.55,0,0,0,326.92,233.61Z"/><path class="cls-7" d="M148.55,294.49q0,8.29-4.11,12.75t-11.79,4.46q-7.66,0-11.79-4.46t-4.11-12.79q0-8.34,4.13-12.74c2.74-2.93,6.69-4.4,11.82-4.4s9.06,1.48,11.77,4.44S148.55,289,148.55,294.49Zm-24.37,0c0,3.74.7,6.55,2.12,8.43a7.43,7.43,0,0,0,6.35,2.84q8.47,0,8.48-11.27t-8.43-11.28a7.52,7.52,0,0,0-6.38,2.84Q124.18,288.9,124.18,294.49Z"/><path class="cls-7" d="M169.42,311.7a8.47,8.47,0,0,1-7.06-3.27H162c.24,2.13.36,3.37.36,3.7v10.35h-7V285.7h5.67l1,3.31h.32a8.06,8.06,0,0,1,7.24-3.79,8.3,8.3,0,0,1,7.09,3.49q2.55,3.5,2.56,9.71a19.18,19.18,0,0,1-1.2,7.11,10,10,0,0,1-3.42,4.59A8.76,8.76,0,0,1,169.42,311.7Zm-2-20.91a4.38,4.38,0,0,0-3.77,1.59q-1.2,1.59-1.24,5.24v.76q0,4.11,1.22,5.89a4.37,4.37,0,0,0,3.88,1.78q4.68,0,4.68-7.72a11,11,0,0,0-1.15-5.65A3.94,3.94,0,0,0,167.37,290.79Z"/><path class="cls-7" d="M197,311.7q-6.17,0-9.64-3.41t-3.47-9.64q0-6.42,3.21-9.92t8.87-3.51q5.42,0,8.43,3.08t3,8.53v3.38H191a6.64,6.64,0,0,0,1.76,4.63,6.14,6.14,0,0,0,4.61,1.67,19.1,19.1,0,0,0,4.36-.48,21.88,21.88,0,0,0,4.3-1.53v5.39a16,16,0,0,1-3.91,1.36A24.3,24.3,0,0,1,197,311.7Zm-1-21.52a4.42,4.42,0,0,0-3.47,1.4,6.5,6.5,0,0,0-1.44,4h9.77a5.86,5.86,0,0,0-1.34-4A4.59,4.59,0,0,0,196.05,290.18Z"/><path class="cls-7" d="M237.16,311.24h-7V296.32a7.19,7.19,0,0,0-1-4.14,3.57,3.57,0,0,0-3.13-1.39,4.7,4.7,0,0,0-4.23,2q-1.31,2-1.3,6.47v12h-7V285.7h5.32l.94,3.27h.39a7.35,7.35,0,0,1,3.21-2.8,10.94,10.94,0,0,1,4.65-.95q4.46,0,6.76,2.41t2.31,7Z"/><path class="cls-7" d="M245.35,311.24v-33.4h7.08v33.4Z"/><path class="cls-7" d="M284.33,311.24h-7V296.32a7.11,7.11,0,0,0-1-4.14,3.55,3.55,0,0,0-3.13-1.39,4.67,4.67,0,0,0-4.22,2q-1.3,2-1.31,6.47v12h-7V285.7h5.32L267,289h.38a7.35,7.35,0,0,1,3.21-2.8,11,11,0,0,1,4.65-.95q4.46,0,6.77,2.41t2.3,7Z"/><path class="cls-7" d="M306.09,290.93h-6v20.31h-7V290.93h-3.83v-3.36l3.83-1.87v-1.87q0-4.36,2.15-6.38t6.88-2a17.86,17.86,0,0,1,6.42,1.08l-1.78,5.11a13.11,13.11,0,0,0-3.89-.66,2.52,2.52,0,0,0-2.15.88,3.66,3.66,0,0,0-.66,2.25v1.6h6Z"/><path class="cls-7" d="M324.81,285.22a11.86,11.86,0,0,1,2.36.2l-.53,6.54a8,8,0,0,0-2.05-.23,7.39,7.39,0,0,0-5.2,1.71,6.22,6.22,0,0,0-1.86,4.8v13h-7V285.7h5.28l1,4.29h.35a9.61,9.61,0,0,1,3.21-3.46A7.92,7.92,0,0,1,324.81,285.22Z"/><path class="cls-7" d="M348.49,311.24l-1.35-3.47H347a10.23,10.23,0,0,1-3.62,3.07,11.71,11.71,0,0,1-4.85.86,7.82,7.82,0,0,1-5.79-2.1,8.09,8.09,0,0,1-2.12-6,6.75,6.75,0,0,1,2.85-6c1.89-1.28,4.75-2,8.57-2.13l4.44-.14v-1.12q0-3.89-4-3.88a18,18,0,0,0-7.19,1.85L333,287.48a20.75,20.75,0,0,1,9.78-2.31q5.13,0,7.88,2.24c1.83,1.5,2.74,3.76,2.74,6.81v17Zm-2.05-11.83-2.7.09a8.61,8.61,0,0,0-4.52,1.09,3.46,3.46,0,0,0-1.49,3.07q0,2.94,3.38,2.94a5.36,5.36,0,0,0,3.88-1.39,4.92,4.92,0,0,0,1.45-3.7Z"/><path class="cls-7" d="M110.55,367.81l-8-26.2h-.2q.43,8,.43,10.67v15.53H96.41v-33.4h9.64L114,360h.14l8.38-25.54h9.64v33.4h-6.6V352q0-1.11,0-2.58t.31-7.77h-.2L117,367.81Z"/><path class="cls-7" d="M156.67,367.81l-1.35-3.47h-.18a10.31,10.31,0,0,1-3.62,3.07,11.72,11.72,0,0,1-4.86.86,7.86,7.86,0,0,1-5.79-2.1,8.07,8.07,0,0,1-2.11-6,6.76,6.76,0,0,1,2.84-6q2.85-1.92,8.58-2.13l4.43-.14v-1.12q0-3.89-4-3.88a18,18,0,0,0-7.2,1.85l-2.31-4.71a20.75,20.75,0,0,1,9.78-2.3c3.43,0,6.05.74,7.88,2.23s2.74,3.77,2.74,6.81v17ZM154.61,356l-2.69.09a8.64,8.64,0,0,0-4.53,1.1,3.44,3.44,0,0,0-1.48,3.06q0,2.94,3.38,2.94a5.35,5.35,0,0,0,3.87-1.39,4.88,4.88,0,0,0,1.45-3.7Z"/><path class="cls-7" d="M183.43,341.79a10.91,10.91,0,0,1,2.35.21l-.52,6.53a8.08,8.08,0,0,0-2.06-.23A7.43,7.43,0,0,0,178,350a6.22,6.22,0,0,0-1.86,4.8v13h-7V342.27h5.27l1,4.3h.34A9.74,9.74,0,0,1,179,343.1,8,8,0,0,1,183.43,341.79Z"/><path class="cls-7" d="M197.58,353.92l3-3.88,7.15-7.77h7.86l-10.14,11.08,10.76,14.46h-8l-7.36-10.35-3,2.4v7.95h-7V332.26h7v15.86l-.37,5.8Z"/><path class="cls-7" d="M231.93,368.27q-6.17,0-9.64-3.41t-3.47-9.64q0-6.42,3.21-9.92t8.87-3.51q5.41,0,8.43,3.09t3,8.52v3.38H225.88a6.69,6.69,0,0,0,1.76,4.64,6.17,6.17,0,0,0,4.61,1.66,19.1,19.1,0,0,0,4.36-.48,21.65,21.65,0,0,0,4.3-1.53v5.39a16,16,0,0,1-3.91,1.36A24.3,24.3,0,0,1,231.93,368.27Zm-1-21.52a4.42,4.42,0,0,0-3.47,1.4,6.5,6.5,0,0,0-1.44,4h9.77a5.86,5.86,0,0,0-1.34-4A4.59,4.59,0,0,0,231,346.75Z"/><path class="cls-7" d="M259.24,362.72a15.25,15.25,0,0,0,4.39-.8v5.18a15.6,15.6,0,0,1-6.4,1.17c-2.78,0-4.81-.71-6.09-2.11s-1.9-3.53-1.9-6.34V347.5H245.9v-2.95l3.84-2.33,2-5.39h4.45v5.44h7.15v5.23H256.2v12.32A2.7,2.7,0,0,0,257,362,3.29,3.29,0,0,0,259.24,362.72Z"/><path class="cls-7" d="M283.29,368.27a8.46,8.46,0,0,1-7.06-3.27h-.37c.25,2.13.37,3.37.37,3.7v10.35h-7V342.27h5.67l1,3.31h.32a8.05,8.05,0,0,1,7.24-3.79,8.28,8.28,0,0,1,7.08,3.5q2.56,3.49,2.56,9.71a19.16,19.16,0,0,1-1.2,7.1,10,10,0,0,1-3.41,4.59A8.78,8.78,0,0,1,283.29,368.27Zm-2.06-20.9a4.39,4.39,0,0,0-3.77,1.58q-1.18,1.59-1.23,5.25V355c0,2.74.4,4.71,1.22,5.89a4.36,4.36,0,0,0,3.87,1.79q4.68,0,4.69-7.73a11,11,0,0,0-1.16-5.65A3.92,3.92,0,0,0,281.23,347.37Z"/><path class="cls-7" d="M306.3,367.81h-7V332.26h7Z"/><path class="cls-7" d="M330.3,367.81,329,364.34h-.18a10.23,10.23,0,0,1-3.62,3.07,11.71,11.71,0,0,1-4.85.86,7.86,7.86,0,0,1-5.8-2.1,8.11,8.11,0,0,1-2.11-6,6.75,6.75,0,0,1,2.85-6q2.83-1.92,8.57-2.13l4.44-.14v-1.12q0-3.89-4-3.88a18,18,0,0,0-7.19,1.85l-2.31-4.71a20.73,20.73,0,0,1,9.77-2.3q5.15,0,7.89,2.23c1.82,1.5,2.74,3.77,2.74,6.81v17ZM328.25,356l-2.7.09a8.6,8.6,0,0,0-4.52,1.1,3.45,3.45,0,0,0-1.49,3.06q0,2.94,3.38,2.94a5.36,5.36,0,0,0,3.88-1.39,4.92,4.92,0,0,0,1.45-3.7Z"/><path class="cls-7" d="M353.18,368.27q-11.93,0-11.92-13.09,0-6.51,3.24-9.95t9.3-3.44a17.72,17.72,0,0,1,7.95,1.74l-2.06,5.39c-1.09-.44-2.11-.8-3.06-1.09a9.9,9.9,0,0,0-2.83-.42q-5.44,0-5.44,7.72,0,7.5,5.44,7.5a12.3,12.3,0,0,0,3.72-.54,13.59,13.59,0,0,0,3.43-1.68v6a11.34,11.34,0,0,1-3.42,1.49A19.45,19.45,0,0,1,353.18,368.27Z"/><path class="cls-7" d="M378.89,368.27q-6.17,0-9.64-3.41t-3.47-9.64q0-6.42,3.21-9.92t8.88-3.51q5.42,0,8.43,3.09t3,8.52v3.38H372.84a6.73,6.73,0,0,0,1.76,4.64,6.19,6.19,0,0,0,4.61,1.66,19.19,19.19,0,0,0,4.37-.48,21.8,21.8,0,0,0,4.29-1.53v5.39a16.09,16.09,0,0,1-3.9,1.36A24.47,24.47,0,0,1,378.89,368.27Zm-1-21.52a4.43,4.43,0,0,0-3.47,1.4,6.5,6.5,0,0,0-1.44,4h9.78a5.82,5.82,0,0,0-1.35-4A4.59,4.59,0,0,0,377.91,346.75Z"/><path class="cls-7" d="M263.79,73H247.47a6.09,6.09,0,0,0-4.1,1.59l-18.68,17.1a.35.35,0,0,0-.05.08,7.55,7.55,0,0,0-.4,10.64,7.91,7.91,0,0,0,10.65.51s.06,0,.08,0L250.15,89a3,3,0,0,1,4.1,4.48L249.3,98,277,120.44a13.83,13.83,0,0,1,1.5,1.46V85.14L268.08,74.76A6,6,0,0,0,263.79,73Zm20.77,12.2v42.53a6.06,6.06,0,0,0,6.08,6.08h12.15V85.18Zm9.11,42.53a3,3,0,1,1,3-3A3,3,0,0,1,293.67,127.71Zm-112.46,6.06h12.15a6.06,6.06,0,0,0,6.08-6.08V85.18H181.21Zm9.12-12.14a3,3,0,1,1-3,3A3,3,0,0,1,190.33,121.63Zm82.81,3.54-28.37-23-5.7,5.23a13.67,13.67,0,1,1-18.48-20.16L236.13,73H220.21a6,6,0,0,0-4.29,1.78l-10.4,10.38v42.53H209l17.19,15.56a12.16,12.16,0,0,0,17.1-1.76l0,0,3.4,2.94a7.06,7.06,0,0,0,9.94-1l6-7.34,1,.84a6.07,6.07,0,0,0,8.55-.89l1.8-2.23a6.08,6.08,0,0,0-.87-8.56Z"/></svg>