<svg xmlns="http://www.w3.org/2000/svg" viewBox="0 0 402.79 99.23"><defs><style>.a{fill:#fff;}</style></defs><path class="a" d="M71.29,99.61C39.71,99.6,18.6,77.22,18.6,50.09h0C18.6,23,39.75.32,71.24.39H368.76C400.25.32,421.4,23,421.4,50.09h0c0,27.13-21.11,49.51-52.69,49.52Zm.09-87C46.38,12.64,31,29.35,31,50h0c0,20.67,15.25,37.52,40.34,37.43H368.62C393.71,87.54,409,70.69,409,50h0c0-20.66-15.35-37.37-40.35-37.42ZM384.61,30c2.27,0,3.4.77,3.4,2.29a2.14,2.14,0,0,1-1.74,2.12L388.05,38h-2.16l-1.52-3.26h-.95V38h-1.94V30Zm-.18-3.11a7.19,7.19,0,1,0,7.19,7.19A7.19,7.19,0,0,0,384.43,26.93Zm5.81,7.19a5.82,5.82,0,1,1-5.81-5.81A5.82,5.82,0,0,1,390.24,34.12Zm-6.82-.54h.95c1.11,0,1.64-.34,1.64-1.13s-.57-1.19-1.74-1.19h-.85ZM220.94,53c0-2.72,0-4.54.93-6.09a5.74,5.74,0,0,1,4.94-2.84h0A5.72,5.72,0,0,1,231.75,47c.89,1.55.93,3.37.91,6.1Zm11.67,9.37s0,.14,0,1.88c0,5.68-3.74,6.94-5.81,6.94s-5.88-1.26-5.88-6.94c0-1.7,0-6.41,0-6.41s26.46,0,26.46,0c0-9.63-9.3-17.61-20.72-17.61S206,48.07,206,57.7s9.26,17.44,20.69,17.44c9.47,0,17.48-5.41,19.93-12.74Zm44.2-21.63c5.25-.15,15.91,3.29,15.83,15.58,0,2.19,0,16.91,0,16.91h-14V52.86c0-2.7-2.59-5.71-6.41-5.71s-6.68,3-6.68,5.71c0,1.33,0,20.41,0,20.41H251.67V42.2h13.94s0,2.5,0,3.27a16.87,16.87,0,0,1,11.19-4.68Zm-114.16,0c5.26-.15,15.91,3.29,15.84,15.58,0,2.19,0,16.91,0,16.91H164.53V52.86c0-2.7-2.59-5.71-6.42-5.71s-6.67,3-6.67,5.71c0,1.33,0,20.41,0,20.41H137.51V42.2h14s0,2.5,0,3.27a16.87,16.87,0,0,1,11.19-4.68ZM322.92,26.56h13.86V73.28H322.9s0-1.51,0-1.8a16.89,16.89,0,0,1-16.16,1.17,16.57,16.57,0,0,1-9.61-15.4c0-8.2,7.74-17.16,17.86-16.27a18.75,18.75,0,0,1,7.95,2.77c0-7.19,0-17.19,0-17.19Zm.1,31V52c0-4.81-3.31-6-5.5-6S312,47.23,312,52c0,1.59,0,5.53,0,5.53s0,3.87,0,5.53c0,4.8,3.28,6.05,5.51,6.05S323,67.9,323,63.1c0-2,0-5.51,0-5.51Zm44.51-.09v6.58c0,5-2.93,7-5.74,7s-5.76-2-5.76-7c0-1.89,0-6.7,0-6.7s0-4.6,0-6.48c0-4.93,2.94-7,5.74-7s5.74,2,5.74,7c0,1.88,0,5.37,0,6.61Zm-5.64-17.41c-11.34,0-20.53,7.81-20.53,17.44S350.55,75,361.89,75s20.53-7.81,20.53-17.45S373.23,40.09,361.89,40.09Zm-246.2-4V26.55h14.08V36.1Zm0,37.18V42.21h14.05V73.28Zm70.47,0v-31h-7.64V37.66h7.65l0-6.29h14.06v6.28h7.61v4.62h-7.61v31Zm-127.63,0V26.56H73.12L93.25,59.14V26.56h14.44V73.28H93.26L73,40.7V73.28Z" transform="translate(-18.6 -0.39)"/></svg>