<?xml version="1.0" encoding="utf-8"?>
<!-- Generator: Adobe Illustrator 25.3.1, SVG Export Plug-In . SVG Version: 6.00 Build 0)  -->
<svg version="1.1" id="Layer_1" xmlns="http://www.w3.org/2000/svg" xmlns:xlink="http://www.w3.org/1999/xlink" x="0px" y="0px"
	 viewBox="0 0 228 228" style="enable-background:new 0 0 228 228;" xml:space="preserve">
<style type="text/css">
	.st0{fill:#8DC63F;}
</style>
<g>
	<polygon class="st0" points="90.76,49.41 97.69,47.56 95.5,51.05 98.64,50.21 101.68,45.36 96.62,42.68 93.49,43.53 97.17,45.48 
		90.21,47.34 	"/>
	<polygon class="st0" points="82.69,68.21 78.18,67.45 77.74,72.01 79.33,74.06 79.63,70.74 83.15,75.32 84.51,74.27 81.01,69.72 
		84.27,70.27 	"/>
	<polygon class="st0" points="90.95,66.45 92.11,63.32 94.32,68.66 95.9,68 93.7,62.69 96.7,64.07 95.71,61.67 91.55,59.76 
		89.95,64.05 	"/>
	<polygon class="st0" points="137.19,162.34 136.04,165.47 133.83,160.14 132.24,160.79 134.44,166.1 131.44,164.73 132.43,167.13 
		136.59,169.03 138.19,164.74 	"/>
	<polygon class="st0" points="108.38,45.59 115.55,45.6 112.53,48.4 115.77,48.4 119.97,44.5 115.77,40.61 112.53,40.61 
		115.59,43.45 108.37,43.45 	"/>
	<polygon class="st0" points="106.61,163.67 105.86,169.36 103.95,166.68 103.61,169.24 106.26,172.97 109.79,170.05 110.12,167.48 
		107.55,169.61 108.31,163.89 	"/>
	<polygon class="st0" points="119.77,183.2 112.59,183.2 115.61,180.39 112.37,180.39 108.18,184.29 112.37,188.18 115.61,188.18 
		112.55,185.34 119.77,185.34 	"/>
	<polygon class="st0" points="121.53,65.13 122.28,59.44 124.2,62.12 124.53,59.54 121.89,55.82 118.36,58.73 118.02,61.31 
		120.59,59.18 119.84,64.9 	"/>
	<polygon class="st0" points="124.34,169.27 124,166.69 122.07,169.42 121.31,163.69 119.61,163.91 120.37,169.61 117.82,167.5 
		118.16,170.08 121.69,172.99 	"/>
	<polygon class="st0" points="101.76,182.33 94.84,180.47 98.48,178.54 95.35,177.7 90.29,180.38 93.33,185.23 96.46,186.06 
		94.24,182.53 101.21,184.4 	"/>
	<polygon class="st0" points="94.12,160.06 91.91,165.36 90.76,162.27 89.77,164.67 91.36,168.95 95.53,167.05 96.52,164.65 
		93.49,166.05 95.69,160.7 	"/>
	<polygon class="st0" points="82.98,153.32 79.48,157.89 79.17,154.61 77.59,156.66 78.02,161.21 82.53,160.45 84.11,158.39 
		80.82,158.96 84.33,154.38 	"/>
	<polygon class="st0" points="145.95,18.6 147.22,13.85 141.87,17.21 144.71,6.64 141.56,5.81 138.74,16.32 135.82,10.79 
		134.54,15.54 138.61,23.21 	"/>
	<polygon class="st0" points="122.72,34.15 126.73,34.68 123.41,30.67 132.35,31.84 132.69,29.2 123.8,28.02 128,25.03 123.98,24.5 
		118.15,28.64 	"/>
	<polygon class="st0" points="103.8,59.52 104.15,62.1 106.08,59.37 106.83,65.09 108.53,64.87 107.78,59.18 110.32,61.28 
		109.98,58.71 106.46,55.8 	"/>
	<polygon class="st0" points="82.38,18.55 89.73,23.15 93.78,15.49 92.51,10.75 89.55,16.33 86.73,5.77 83.59,6.61 86.41,17.12 
		81.11,13.8 	"/>
	<polygon class="st0" points="105.67,34.13 101.41,31.1 110.35,29.93 110.01,27.28 101.11,28.45 104.4,24.47 100.38,25.01 
		95.82,30.5 101.65,34.66 	"/>
	<polygon class="st0" points="120.07,13.61 120.07,8.7 115.77,13.33 115.77,2.39 112.52,2.39 112.52,13.28 108.27,8.7 108.27,13.61 
		114.17,19.97 	"/>
	<polygon class="st0" points="126.38,46.46 133.31,48.33 129.66,50.25 132.79,51.09 137.85,48.41 134.81,43.57 131.68,42.73 
		133.9,46.26 126.93,44.39 	"/>
	<polygon class="st0" points="146.91,30.14 140.21,32.62 143.19,39.13 146.93,40.68 144.76,35.94 153.09,39.38 154.11,36.92 
		145.82,33.49 150.66,31.68 	"/>
	<polygon class="st0" points="134.03,68.74 136.24,63.43 137.38,66.52 138.37,64.13 136.78,59.84 132.62,61.75 131.62,64.14 
		134.66,62.75 132.45,68.08 	"/>
	<polygon class="st0" points="145.17,75.46 148.67,70.9 148.97,74.19 150.56,72.12 150.13,67.58 145.61,68.33 144.03,70.4 
		147.32,69.84 143.81,74.41 	"/>
	<polygon class="st0" points="149.63,49.73 150.86,53.72 144.61,50.11 143.55,51.96 149.75,55.56 145.73,56.47 148.54,58.1 
		154.12,56.82 152.44,51.35 	"/>
	<polygon class="st0" points="199.27,133.02 200.44,124.12 203.43,128.32 203.96,124.31 199.83,118.47 194.31,123.03 193.79,127.05 
		197.8,123.73 196.63,132.66 	"/>
	<polygon class="st0" points="159.53,162.27 159.32,167.99 165.04,167.78 167.33,165.48 163.17,165.63 168.27,160.54 166.75,159.02 
		161.68,164.09 161.83,159.96 	"/>
	<polygon class="st0" points="193.05,43.89 186.73,44.13 194.47,36.39 192.17,34.1 184.47,41.8 184.7,35.55 181.23,39.03 
		180.91,47.7 189.57,47.37 	"/>
	<polygon class="st0" points="137.38,179.39 130.45,181.23 132.64,177.74 129.51,178.58 126.47,183.43 131.52,186.1 134.65,185.27 
		130.97,183.32 137.94,181.45 	"/>
	<polygon class="st0" points="170.63,184.97 171.82,177.91 164.69,177.25 161.49,179.72 166.67,180.2 159.52,185.69 161.15,187.82 
		168.27,182.35 167.41,187.43 	"/>
	<polygon class="st0" points="165.04,136.55 161.94,137.7 164.34,138.69 168.64,137.1 166.73,132.94 164.33,131.95 165.72,134.98 
		160.38,132.76 159.73,134.36 	"/>
	<polygon class="st0" points="168.95,104.13 166.37,104.47 169.09,106.4 163.37,107.15 163.59,108.86 169.29,108.1 167.18,110.64 
		169.76,110.31 172.68,106.78 	"/>
	<polygon class="st0" points="160.47,96.23 165.78,94.02 164.4,97.03 166.8,96.03 168.71,91.88 164.42,90.28 162.02,91.27 
		165.15,92.42 159.82,94.64 	"/>
	<polygon class="st0" points="208.61,66.74 202.46,65.33 211.91,59.86 210.3,57.05 200.87,62.49 202.7,56.52 198.44,58.97 
		195.9,67.27 204.34,69.19 	"/>
	<polygon class="st0" points="209.92,82.7 205.31,90.05 212.97,94.1 217.72,92.83 212.14,89.88 222.69,87.04 221.86,83.91 
		211.34,86.73 214.66,81.43 	"/>
	<polygon class="st0" points="203.47,100.7 197.96,96.14 193.82,101.98 194.35,105.99 197.36,101.74 198.54,110.68 201.2,110.33 
		200.03,101.44 204,104.72 	"/>
	<polygon class="st0" points="196.88,78.03 190.38,75.05 187.89,81.77 189.44,85.5 191.25,80.62 194.7,88.94 197.17,87.92 
		193.74,79.64 198.42,81.77 	"/>
	<polygon class="st0" points="85.18,39.03 80.29,37.22 88.62,33.76 87.6,31.3 79.31,34.73 81.45,30.03 77.71,31.59 74.73,38.09 
		81.44,40.58 	"/>
	<polygon class="st0" points="168.92,124.85 172.65,122.21 169.73,118.68 167.16,118.35 169.29,120.91 163.56,120.15 163.34,121.86 
		169.04,122.61 166.35,124.52 	"/>
	<polygon class="st0" points="159.64,66.64 161.94,68.94 167.66,69.15 167.45,63.43 165.16,61.13 165.31,65.3 160.21,60.2 
		158.7,61.71 163.77,66.79 	"/>
	<polygon class="st0" points="169.66,30.11 172.12,25.86 166.07,27.72 171.55,18.24 168.73,16.62 163.29,26.04 161.9,19.95 
		159.43,24.22 161.37,32.67 	"/>
	<polygon class="st0" points="145.46,160.57 149.96,161.34 150.4,156.79 148.81,154.73 148.51,158.04 144.99,153.47 143.63,154.51 
		147.13,159.07 143.88,158.52 	"/>
	<polygon class="st0" points="170.82,43.97 167.6,41.51 160.48,42.17 161.68,49.22 164.89,51.69 164.02,46.55 171.18,52.04 
		172.8,49.92 165.68,44.46 	"/>
	<polygon class="st0" points="153.14,83.48 154.19,84.84 158.74,81.34 158.19,84.58 160.26,83 161.01,78.5 156.46,78.06 
		154.4,79.65 157.73,79.97 	"/>
	<polygon class="st0" points="178.26,98.96 183.11,102.01 185.78,96.94 184.94,93.81 182.99,97.5 181.13,90.53 179.06,91.09 
		180.91,98.02 177.42,95.82 	"/>
	<polygon class="st0" points="184.9,135.14 185.74,132.01 182.21,134.22 184.07,127.26 182.01,126.71 180.15,133.63 178.22,129.98 
		177.38,133.13 180.06,138.18 	"/>
	<polygon class="st0" points="178.74,149.95 174.75,151.18 178.36,144.94 176.51,143.87 172.92,150.08 172,146.06 170.38,148.87 
		171.65,154.44 177.12,152.76 	"/>
	<polygon class="st0" points="179.88,61.79 185.37,68.94 187.49,67.32 182.03,60.21 187.11,61.06 184.64,57.84 177.59,56.65 
		176.92,63.77 179.39,66.98 	"/>
	<polygon class="st0" points="170.81,75.06 174.39,81.28 170.45,80.06 172.08,82.87 177.55,84.56 178.82,78.98 177.2,76.17 
		176.27,80.24 172.66,73.99 	"/>
	<polygon class="st0" points="187.85,112.85 185.01,115.91 185.01,108.7 182.88,108.7 182.88,115.88 180.07,112.85 180.07,116.09 
		183.97,120.28 187.85,116.09 	"/>
	<polygon class="st0" points="29.82,81.56 32.3,88.26 38.81,85.28 40.35,81.53 35.61,83.71 39.06,75.37 36.59,74.36 33.16,82.65 
		31.36,77.81 	"/>
	<polygon class="st0" points="81.23,198.66 87.94,196.17 84.95,189.66 81.21,188.11 83.38,192.86 75.05,189.41 74.03,191.88 
		82.32,195.3 77.48,197.1 	"/>
	<polygon class="st0" points="122.48,194.67 126.73,197.68 117.78,198.86 118.14,201.51 127.03,200.34 123.74,204.32 127.76,203.78 
		132.33,198.28 126.49,194.13 	"/>
	<polygon class="st0" points="75,145.31 73.96,143.96 69.4,147.46 69.95,144.2 67.89,145.77 67.13,150.29 71.69,150.72 
		73.74,149.13 70.43,148.84 	"/>
	<polygon class="st0" points="82.2,210.18 80.92,214.93 86.27,211.58 83.44,222.14 86.58,222.98 89.39,212.47 92.32,217.99 
		93.6,213.24 89.54,205.57 	"/>
	<polygon class="st0" points="105.43,194.63 101.41,194.11 104.74,198.12 95.8,196.95 95.45,199.59 104.34,200.76 100.14,203.76 
		104.16,204.28 110,200.15 	"/>
	<polygon class="st0" points="108.08,215.16 108.08,220.09 112.37,215.46 112.37,226.4 115.62,226.4 115.62,215.5 119.88,220.09 
		119.88,215.16 113.97,208.82 	"/>
	<polygon class="st0" points="78.51,179.06 77.28,175.08 83.53,178.69 84.6,176.83 78.39,173.24 82.41,172.32 79.59,170.7 
		74.02,171.98 75.7,177.45 	"/>
	<polygon class="st0" points="48.26,167.01 42.78,159.84 40.66,161.47 46.12,168.59 41.03,167.73 43.5,170.94 50.55,172.15 
		51.22,165.02 48.75,161.8 	"/>
	<polygon class="st0" points="80.95,54.07 79.73,58.02 82.55,56.39 84.23,50.92 78.65,49.65 75.85,51.27 79.92,52.2 73.66,55.81 
		74.74,57.66 	"/>
	<polygon class="st0" points="57.32,184.82 60.54,187.28 67.66,186.62 66.46,179.57 63.25,177.1 64.12,182.24 56.97,176.75 
		55.34,178.87 62.46,184.33 	"/>
	<polygon class="st0" points="58.49,198.66 56.03,202.92 62.07,201.07 56.6,210.53 59.41,212.16 64.86,202.74 66.25,208.83 
		68.71,204.58 66.78,196.12 	"/>
	<polygon class="st0" points="68.49,162.15 66.2,159.86 60.48,159.65 60.7,165.37 62.99,167.66 62.83,163.49 67.93,168.6 
		69.45,167.08 64.38,162 	"/>
	<polygon class="st0" points="217.67,136.14 212.92,134.87 205.26,138.93 209.86,146.27 214.61,147.54 211.26,142.19 221.82,145.02 
		222.66,141.88 212.15,139.06 	"/>
	<polygon class="st0" points="192.92,185.03 189.44,181.55 180.77,181.23 181.1,189.9 184.57,193.38 184.34,187.05 192.07,194.79 
		194.36,192.49 186.67,184.81 	"/>
	<polygon class="st0" points="198.33,147.25 195.85,140.53 189.35,143.5 187.8,147.25 192.53,145.08 189.09,153.41 191.55,154.43 
		194.99,146.15 196.78,150.98 	"/>
	<polygon class="st0" points="208.51,162.22 204.25,159.76 195.8,161.69 198.35,169.98 202.61,172.44 200.75,166.4 210.22,171.86 
		211.84,169.05 202.42,163.61 	"/>
	<polygon class="st0" points="215.19,112.85 219.77,108.59 214.85,108.59 208.49,114.49 214.85,120.39 219.77,120.39 215.14,116.09 
		226.07,116.09 226.07,112.85 	"/>
	<polygon class="st0" points="145.77,210.23 138.41,205.62 134.36,213.29 135.63,218.04 138.59,212.47 141.43,223.02 144.55,222.18 
		141.73,211.66 147.04,214.99 	"/>
	<polygon class="st0" points="35.09,184.89 41.4,184.66 33.68,192.39 35.97,194.68 43.67,186.98 43.44,193.24 46.91,189.76 
		47.23,181.08 38.57,181.41 	"/>
	<polygon class="st0" points="147.19,174.72 148.4,170.78 145.6,172.4 143.91,177.87 149.49,179.14 152.3,177.52 148.23,176.6 
		154.48,172.99 153.41,171.14 	"/>
	<polygon class="st0" points="142.97,189.75 147.85,191.57 139.52,195.02 140.54,197.49 148.83,194.06 146.69,198.75 150.42,197.2 
		153.42,190.69 146.71,188.22 	"/>
	<polygon class="st0" points="169.49,198.76 161.2,196.22 159.27,204.66 161.73,208.93 163.14,202.77 168.6,212.23 171.41,210.61 
		165.97,201.18 171.95,203.03 	"/>
	<polygon class="st0" points="160.14,145.94 158.08,144.35 158.63,147.65 154.05,144.13 153,145.49 157.56,148.99 154.28,149.3 
		156.34,150.88 160.89,150.45 	"/>
	<polygon class="st0" points="184.5,171.14 186.97,167.93 186.29,160.81 179.24,162 176.78,165.21 181.91,164.35 176.43,171.49 
		178.55,173.13 184.01,166 	"/>
	<polygon class="st0" points="57.33,153.73 53.75,147.52 57.69,148.74 56.06,145.92 50.6,144.24 49.32,149.81 50.94,152.62 
		51.87,148.56 55.48,154.8 	"/>
	<polygon class="st0" points="68.61,66.52 68.82,60.8 63.1,61.02 60.81,63.31 64.98,63.16 59.87,68.25 61.39,69.77 66.47,64.7 
		66.32,68.83 	"/>
	<polygon class="st0" points="59.22,103.94 55.5,106.58 58.41,110.11 60.99,110.45 58.85,107.88 64.57,108.62 64.8,106.94 
		59.1,106.19 61.8,104.27 	"/>
	<polygon class="st0" points="19.54,162.05 25.7,163.46 16.23,168.92 17.85,171.73 27.28,166.29 25.43,172.26 29.7,169.81 
		32.25,161.52 23.8,159.58 	"/>
	<polygon class="st0" points="63.1,92.24 66.2,91.09 63.8,90.09 59.52,91.69 61.42,95.85 63.82,96.85 62.42,93.81 67.76,96.01 
		68.41,94.43 	"/>
	<polygon class="st0" points="55.23,78.72 56.15,82.73 57.76,79.92 56.49,74.34 51.02,76.02 49.4,78.84 53.39,77.61 49.78,83.86 
		51.64,84.92 	"/>
	<polygon class="st0" points="61.77,124.32 59.05,122.39 64.78,121.63 64.55,119.94 58.85,120.69 60.96,118.15 58.38,118.48 
		55.47,122.01 59.2,124.67 	"/>
	<polygon class="st0" points="68.01,82.86 70.08,84.43 69.51,81.15 74.09,84.65 75.13,83.3 70.58,79.8 73.86,79.5 71.8,77.91 
		67.26,78.34 	"/>
	<polygon class="st0" points="67.67,132.57 62.37,134.76 63.74,131.78 61.34,132.76 59.44,136.91 63.72,138.51 66.13,137.51 
		63,136.36 68.33,134.15 	"/>
	<polygon class="st0" points="58.65,30.02 66.95,32.57 68.88,24.11 66.42,19.86 65.01,26.02 59.54,16.55 56.73,18.17 62.17,27.59 
		56.19,25.76 	"/>
	<polygon class="st0" points="49.88,129.83 45.04,126.79 42.36,131.85 43.2,134.98 45.15,131.29 47.01,138.26 49.08,137.71 
		47.23,130.78 50.72,132.96 	"/>
	<polygon class="st0" points="45.27,120.09 45.27,112.92 48.08,115.94 48.07,112.69 44.18,108.5 40.29,112.69 40.29,115.94 
		43.12,112.88 43.12,120.1 	"/>
	<polygon class="st0" points="48.09,90.62 43.24,93.66 42.4,96.79 45.93,94.57 44.07,101.54 46.14,102.09 47.99,95.17 49.93,98.8 
		50.76,95.67 	"/>
	<polygon class="st0" points="57.52,43.83 56.32,50.87 63.44,51.55 66.66,49.08 61.47,48.59 68.62,43.1 66.99,40.99 59.88,46.44 
		60.73,41.35 	"/>
	<polygon class="st0" points="18.23,146.09 22.84,138.73 15.17,134.68 10.43,135.95 16.01,138.91 5.45,141.74 6.29,144.88 
		16.8,142.05 13.48,147.36 	"/>
	<polygon class="st0" points="19.64,66.57 23.89,69.03 32.34,67.09 29.79,58.81 25.54,56.35 27.39,62.39 17.93,56.92 16.3,59.74 
		25.73,65.18 	"/>
	<polygon class="st0" points="37.77,153.73 40.26,147.03 38.71,143.28 36.9,148.18 33.44,139.84 30.97,140.87 34.41,149.16 
		29.72,147.01 31.27,150.75 	"/>
	<polygon class="st0" points="8.37,120.2 13.29,120.2 19.64,114.29 13.29,108.39 8.37,108.39 13,112.69 2.07,112.69 2.07,115.94 
		12.96,115.94 	"/>
	<polygon class="st0" points="10.47,92.63 15.22,93.92 22.89,89.86 18.28,82.51 13.53,81.25 16.88,86.6 6.33,83.76 5.49,86.9 
		16,89.72 	"/>
	<polygon class="st0" points="35.23,43.76 38.7,47.23 47.37,47.55 47.05,38.89 43.57,35.42 43.81,41.73 36.08,34 33.78,36.29 
		41.48,43.98 	"/>
	<polygon class="st0" points="28.87,95.78 27.7,104.67 24.7,100.46 24.18,104.48 28.32,110.32 33.83,105.76 34.36,101.74 
		30.35,105.07 31.52,96.13 	"/>
	<polygon class="st0" points="43.64,57.65 41.18,60.87 41.84,67.99 48.9,66.79 51.37,63.57 46.23,64.45 51.72,57.29 49.6,55.67 
		44.14,62.79 	"/>
	<polygon class="st0" points="24.68,128.09 30.19,132.66 34.33,126.82 33.8,122.8 30.78,127.05 29.6,118.11 26.95,118.46 
		28.12,127.35 24.15,124.07 	"/>
</g>
</svg>
