<svg id="Layer_1" data-name="Layer 1" xmlns="http://www.w3.org/2000/svg" viewBox="0 0 300 300"><defs><style>.cls-1{fill:#ec1944;}</style></defs><title>arrowsArtboard 1</title><path class="cls-1" d="M292.94,152.91a142.89,142.89,0,1,0-145.83,140,141.19,141.19,0,0,0,26.57-2,143.53,143.53,0,0,0,73.87-36.47,143.37,143.37,0,0,0,45.39-101.6ZM111.72,232.48C89,221.56,79.7,194,90,171l13.89-31.13-7.34-3.28a1.16,1.16,0,0,1-.09-2.07l24.06-13.33a2.28,2.28,0,0,1,3.35,1.51L130,149.48a1.16,1.16,0,0,1-1.6,1.31l-7.11-3.19L107.2,179.1c-5.79,12.94-1.14,28.51,11.23,35.43a27.25,27.25,0,0,0,38.2-12.63l2.68-6a9.53,9.53,0,0,1,17.4,7.77l-2.69,6A46.29,46.29,0,0,1,111.72,232.48Zm91.85-67-24,13.33a2.32,2.32,0,0,1-3.38-1.5L170,150.54a1.15,1.15,0,0,1,1.6-1.31l7.13,3.17,14-31.48c5.8-13,1.16-28.53-11.25-35.44a27.21,27.21,0,0,0-38.16,12.63l-2.69,6a9.53,9.53,0,0,1-17.4-7.76l2.68-6A46.35,46.35,0,0,1,188.3,67.51C211,78.45,220.31,106,210,129l-13.89,31.13,7.33,3.28A1.15,1.15,0,0,1,203.57,165.52Z"/></svg>