<svg id="Layer_1" data-name="Layer 1" xmlns="http://www.w3.org/2000/svg" viewBox="0 0 250 136.44"><defs><style>.cls-1{fill:#1c1c1c;}.cls-2{fill:#ec1944;}</style></defs><title>OSF_Logo_RGB_Stacked</title><path class="cls-1" d="M5.78,132.65a5.4,5.4,0,0,1-2.35-.52,5.24,5.24,0,0,1-1.83-1.49,7.16,7.16,0,0,1-1.18-2.36A10.94,10.94,0,0,1,0,125.12,10.8,10.8,0,0,1,.42,122a6.76,6.76,0,0,1,1.18-2.32,5.18,5.18,0,0,1,1.83-1.43,5.53,5.53,0,0,1,2.35-.5,5.53,5.53,0,0,1,2.35.5A5.1,5.1,0,0,1,10,119.67,6.91,6.91,0,0,1,11.14,122a10.71,10.71,0,0,1,.42,3.12,10.94,10.94,0,0,1-.42,3.16A7.16,7.16,0,0,1,10,130.64a5.24,5.24,0,0,1-1.83,1.49A5.4,5.4,0,0,1,5.78,132.65Zm0-2.81a2,2,0,0,0,1.79-1.26,7.58,7.58,0,0,0,.66-3.46,7.12,7.12,0,0,0-.66-3.37,2,2,0,0,0-1.79-1.22A2,2,0,0,0,4,121.75a7.12,7.12,0,0,0-.66,3.37A7.58,7.58,0,0,0,4,128.58,2,2,0,0,0,5.78,129.84Z" transform="translate(0 0)"/><path class="cls-1" d="M16.57,133.24v3.2H13.33v-15H16l.25,1.1h.06a5.83,5.83,0,0,1,1.52-1,4.25,4.25,0,0,1,3.58,0,4,4,0,0,1,1.39,1.13,5.13,5.13,0,0,1,.87,1.75,8.12,8.12,0,0,1,.3,2.28,7.47,7.47,0,0,1-.4,2.51,6.06,6.06,0,0,1-1.06,1.85A4.53,4.53,0,0,1,21,132.25a4.24,4.24,0,0,1-1.78.4,3.83,3.83,0,0,1-2.73-1.2Zm0-4a3,3,0,0,0,1,.56,2.9,2.9,0,0,0,.91.17,1.94,1.94,0,0,0,1.55-.76,3.93,3.93,0,0,0,.61-2.46c0-2-.66-3-2-3a2.87,2.87,0,0,0-2,1Z" transform="translate(0 0)"/><path class="cls-1" d="M25.52,126.91A5.79,5.79,0,0,1,26,124.5a5.39,5.39,0,0,1,1.27-1.79,5.55,5.55,0,0,1,1.82-1.14,6.11,6.11,0,0,1,4.35,0,4.35,4.35,0,0,1,1.61,1.1,4.88,4.88,0,0,1,1,1.67,6.34,6.34,0,0,1,.33,2.08,7.3,7.3,0,0,1,0,.84,5.74,5.74,0,0,1-.09.6H28.86a2.29,2.29,0,0,0,1.07,1.77,4,4,0,0,0,2.1.54,5.42,5.42,0,0,0,1.42-.18,8,8,0,0,0,1.41-.57l1,2a8.51,8.51,0,0,1-4.32,1.28,7.07,7.07,0,0,1-2.38-.39,5.42,5.42,0,0,1-1.92-1.13A5.17,5.17,0,0,1,26,129.34,5.86,5.86,0,0,1,25.52,126.91Zm7.9-1.19a2.16,2.16,0,0,0-.51-1.5,2.07,2.07,0,0,0-1.63-.58,2.42,2.42,0,0,0-2.47,2.08Z" transform="translate(0 0)"/><path class="cls-1" d="M38.47,121.44h2.65l.24,1.45h.09a7.29,7.29,0,0,1,1.62-1.21,4.35,4.35,0,0,1,2.15-.51,3.14,3.14,0,0,1,2.72,1.19,5.54,5.54,0,0,1,.86,3.27v6.75H45.56v-6.33a2.82,2.82,0,0,0-.36-1.61,1.41,1.41,0,0,0-1.25-.51,2.27,2.27,0,0,0-1.16.29,5.36,5.36,0,0,0-1.07.86v7.3H38.47Z" transform="translate(0 0)"/><path class="cls-1" d="M52.44,128.34a7.3,7.3,0,0,0,1.77,1.08,4.75,4.75,0,0,0,1.91.42,2.88,2.88,0,0,0,1.65-.37,1.2,1.2,0,0,0,.51-1,1.05,1.05,0,0,0-.15-.57,1.39,1.39,0,0,0-.44-.43,3.8,3.8,0,0,0-.7-.35l-.93-.37-1.86-.79a7.32,7.32,0,0,1-1.16-.57,5,5,0,0,1-1-.83,3.87,3.87,0,0,1-.67-1.11,3.71,3.71,0,0,1-.25-1.42,3.78,3.78,0,0,1,.38-1.66A4.21,4.21,0,0,1,52.6,119a5.18,5.18,0,0,1,1.67-.92,6.62,6.62,0,0,1,2.14-.33,6.85,6.85,0,0,1,2.56.49,7,7,0,0,1,2.23,1.41l-1.66,2.05a6.83,6.83,0,0,0-1.48-.85,4.26,4.26,0,0,0-1.65-.3,2.66,2.66,0,0,0-1.47.35,1.08,1.08,0,0,0-.52,1,1.06,1.06,0,0,0,.66,1,17.56,17.56,0,0,0,1.7.7l1.75.75a5.61,5.61,0,0,1,2.26,1.46,3.55,3.55,0,0,1,.83,2.45,4,4,0,0,1-.38,1.71,4.1,4.1,0,0,1-1.08,1.41,5.21,5.21,0,0,1-1.74,1,7.31,7.31,0,0,1-2.39.37,8.41,8.41,0,0,1-2.87-.52,8.16,8.16,0,0,1-2.6-1.56Z" transform="translate(0 0)"/><path class="cls-1" d="M65.87,124H63.12v-2.4l2.91-.13.42-2.91h2.67v2.91h4.63V124H69.12v3.84a2.37,2.37,0,0,0,.55,1.78,2.46,2.46,0,0,0,1.74.52,6,6,0,0,0,1.17-.11,7.88,7.88,0,0,0,1-.29l.58,2.34c-.49.15-1,.28-1.62.41a10,10,0,0,1-2,.19,6,6,0,0,1-2.2-.36,3.54,3.54,0,0,1-2.27-2.49,7.05,7.05,0,0,1-.25-2Z" transform="translate(0 0)"/><path class="cls-1" d="M76,129.34a3,3,0,0,1,1.67-2.81,8.43,8.43,0,0,1,2.24-.78,22.08,22.08,0,0,1,3.31-.41,1.65,1.65,0,0,0-.65-1.17,2.9,2.9,0,0,0-1.69-.41,5,5,0,0,0-1.6.27,13.38,13.38,0,0,0-1.73.74l-1.15-2.12a12.85,12.85,0,0,1,2.42-1.06,8.67,8.67,0,0,1,2.7-.42,5.17,5.17,0,0,1,3.62,1.22,4.82,4.82,0,0,1,1.32,3.72v6.27H83.76l-.24-1.23h-.09a9.24,9.24,0,0,1-1.83,1.07,5.2,5.2,0,0,1-2,.43,4.14,4.14,0,0,1-1.5-.26,3.32,3.32,0,0,1-1.13-.7,3.54,3.54,0,0,1-.71-1.05A3.28,3.28,0,0,1,76,129.34Zm3.11-.25a.87.87,0,0,0,.41.79,2.11,2.11,0,0,0,1.12.25,3.14,3.14,0,0,0,1.36-.3,6.41,6.41,0,0,0,1.22-.74v-1.81a14.79,14.79,0,0,0-2,.23,5.14,5.14,0,0,0-1.26.38,1.64,1.64,0,0,0-.65.54A1.32,1.32,0,0,0,79.06,129.09Z" transform="translate(0 0)"/><path class="cls-1" d="M88.66,126.91a5.47,5.47,0,0,1,.52-2.44,5.37,5.37,0,0,1,1.39-1.8,6.28,6.28,0,0,1,2-1.11,7.36,7.36,0,0,1,2.4-.39,6.27,6.27,0,0,1,2.35.42,5.85,5.85,0,0,1,1.76,1.06l-1.5,2a4.21,4.21,0,0,0-2.43-.86,3.17,3.17,0,0,0-2.29.84,3,3,0,0,0-.89,2.27A2.91,2.91,0,0,0,95.06,130a4,4,0,0,0,1.59-.31A6.26,6.26,0,0,0,98,129L99.27,131a6.43,6.43,0,0,1-2.19,1.23,7.54,7.54,0,0,1-2.33.39,7.11,7.11,0,0,1-2.4-.39,6,6,0,0,1-1.94-1.11,5.12,5.12,0,0,1-1.29-1.8A6.28,6.28,0,0,1,88.66,126.91Z" transform="translate(0 0)"/><path class="cls-1" d="M101.43,116.92h3.25v8.93h.09l4-4.41h3.55l-4.14,4.5,4.47,6.44h-3.5l-2.87-4.46-1.61,1.7v2.76h-3.25Z" transform="translate(0 0)"/><path class="cls-1" d="M127.29,118h9.49v2.73h-6.25v3.33h5.32v2.74h-5.32v5.58h-3.24Z" transform="translate(0 0)"/><path class="cls-1" d="M138.52,126.91a6.07,6.07,0,0,1,.46-2.44,5.28,5.28,0,0,1,1.25-1.8,5.56,5.56,0,0,1,1.78-1.11,5.77,5.77,0,0,1,4.17,0,5.61,5.61,0,0,1,1.79,1.11,5.43,5.43,0,0,1,1.25,1.8,6.7,6.7,0,0,1,0,4.88,5.43,5.43,0,0,1-1.25,1.8,5.61,5.61,0,0,1-1.79,1.11,5.77,5.77,0,0,1-4.17,0,5.56,5.56,0,0,1-1.78-1.11,5.28,5.28,0,0,1-1.25-1.8A6.1,6.1,0,0,1,138.52,126.91Zm3.33,0a4.05,4.05,0,0,0,.56,2.27,2.12,2.12,0,0,0,3.38,0,4.88,4.88,0,0,0,0-4.54,2.12,2.12,0,0,0-3.38,0A4.05,4.05,0,0,0,141.85,126.91Z" transform="translate(0 0)"/><path class="cls-1" d="M161.64,132.38H159l-.24-1.57h-.09a6.12,6.12,0,0,1-1.61,1.34,4.17,4.17,0,0,1-2.07.5,3.08,3.08,0,0,1-2.72-1.2,5.56,5.56,0,0,1-.84-3.26v-6.75h3.25v6.33a3,3,0,0,0,.33,1.61,1.38,1.38,0,0,0,1.25.51,2.19,2.19,0,0,0,1.1-.27,3.71,3.71,0,0,0,1-1v-7.19h3.25Z" transform="translate(0 0)"/><path class="cls-1" d="M164.22,121.44h2.65l.24,1.45h.09a7.29,7.29,0,0,1,1.62-1.21,4.35,4.35,0,0,1,2.15-.51,3.13,3.13,0,0,1,2.71,1.19,5.47,5.47,0,0,1,.86,3.27v6.75H171.3v-6.33a2.91,2.91,0,0,0-.35-1.61,1.44,1.44,0,0,0-1.26-.51,2.29,2.29,0,0,0-1.16.29,5.36,5.36,0,0,0-1.07.86v7.3h-3.24Z" transform="translate(0 0)"/><path class="cls-1" d="M176.24,126.91a6.73,6.73,0,0,1,.4-2.41,5.53,5.53,0,0,1,1.05-1.79,4.6,4.6,0,0,1,1.48-1.14,4.11,4.11,0,0,1,1.75-.4,3.6,3.6,0,0,1,1.59.32,5.66,5.66,0,0,1,1.21.85l-.11-1.7v-3.72h3.24v15.46H184.2l-.24-1.12h-.06a6.22,6.22,0,0,1-1.42,1,3.66,3.66,0,0,1-1.63.4,4.43,4.43,0,0,1-1.88-.4,4.17,4.17,0,0,1-1.46-1.14,5.13,5.13,0,0,1-.94-1.8A8,8,0,0,1,176.24,126.91Zm3.33,0a4.14,4.14,0,0,0,.55,2.38,1.83,1.83,0,0,0,1.57.75,2.24,2.24,0,0,0,1-.23,2.94,2.94,0,0,0,.91-.79v-4.43a2.74,2.74,0,0,0-.89-.56,2.79,2.79,0,0,0-.94-.17,2,2,0,0,0-1.56.75A3.47,3.47,0,0,0,179.57,126.87Z" transform="translate(0 0)"/><path class="cls-1" d="M189.13,129.34a2.95,2.95,0,0,1,1.66-2.81,8.43,8.43,0,0,1,2.24-.78,22.08,22.08,0,0,1,3.31-.41,1.65,1.65,0,0,0-.65-1.17,2.9,2.9,0,0,0-1.69-.41,5,5,0,0,0-1.6.27,13.38,13.38,0,0,0-1.73.74l-1.15-2.12a12.85,12.85,0,0,1,2.42-1.06,8.67,8.67,0,0,1,2.7-.42,5.17,5.17,0,0,1,3.62,1.22,4.82,4.82,0,0,1,1.32,3.72v6.27h-2.65l-.24-1.23h-.09a9.24,9.24,0,0,1-1.83,1.07,5.2,5.2,0,0,1-2.05.43,4.14,4.14,0,0,1-1.5-.26,3.18,3.18,0,0,1-1.12-.7,3.39,3.39,0,0,1-.72-1.05A3.27,3.27,0,0,1,189.13,129.34Zm3.11-.25a.86.86,0,0,0,.4.79,2.14,2.14,0,0,0,1.12.25,3.22,3.22,0,0,0,1.37-.3,6.33,6.33,0,0,0,1.21-.74v-1.81a14.79,14.79,0,0,0-2,.23,5.14,5.14,0,0,0-1.26.38,1.64,1.64,0,0,0-.65.54A1.31,1.31,0,0,0,192.24,129.09Z" transform="translate(0 0)"/><path class="cls-1" d="M204.19,124h-2.76v-2.4l2.92-.13.42-2.91h2.66v2.91h4.64V124h-4.64v3.84a2.37,2.37,0,0,0,.56,1.78,2.43,2.43,0,0,0,1.74.52,6,6,0,0,0,1.17-.11,7.88,7.88,0,0,0,1-.29l.58,2.34c-.49.15-1,.28-1.63.41a9.77,9.77,0,0,1-2,.19,5.93,5.93,0,0,1-2.2-.36,3.62,3.62,0,0,1-1.47-1,3.74,3.74,0,0,1-.81-1.51,7.46,7.46,0,0,1-.24-2Z" transform="translate(0 0)"/><path class="cls-1" d="M214.67,121.44h7.63v10.94h-3.24V124h-4.39Zm5.87-1.61a2.32,2.32,0,0,1-1.56-.53,1.81,1.81,0,0,1-.6-1.44,1.9,1.9,0,0,1,.6-1.46,2.21,2.21,0,0,1,1.56-.57,2.16,2.16,0,0,1,1.55.57,1.87,1.87,0,0,1,.61,1.46,1.79,1.79,0,0,1-.61,1.44A2.28,2.28,0,0,1,220.54,119.83Z" transform="translate(0 0)"/><path class="cls-1" d="M226.54,126.91a6.07,6.07,0,0,1,.46-2.44,5.43,5.43,0,0,1,1.25-1.8,5.56,5.56,0,0,1,1.78-1.11,5.74,5.74,0,0,1,2.09-.39,5.74,5.74,0,0,1,3.87,1.5,5.43,5.43,0,0,1,1.25,1.8,6.7,6.7,0,0,1,0,4.88,5.43,5.43,0,0,1-1.25,1.8,5.74,5.74,0,0,1-3.87,1.5,5.74,5.74,0,0,1-2.09-.39,5.56,5.56,0,0,1-1.78-1.11,5.43,5.43,0,0,1-1.25-1.8A6.1,6.1,0,0,1,226.54,126.91Zm3.33,0a4.05,4.05,0,0,0,.56,2.27,2.12,2.12,0,0,0,3.38,0,4.88,4.88,0,0,0,0-4.54,2.12,2.12,0,0,0-3.38,0A4.05,4.05,0,0,0,229.87,126.91Z" transform="translate(0 0)"/><path class="cls-1" d="M239.66,121.44h2.65l.24,1.45h.09a7.29,7.29,0,0,1,1.62-1.21,4.37,4.37,0,0,1,2.16-.51,3.13,3.13,0,0,1,2.71,1.19,5.54,5.54,0,0,1,.86,3.27v6.75h-3.24v-6.33a2.82,2.82,0,0,0-.36-1.61,1.41,1.41,0,0,0-1.25-.51,2.27,2.27,0,0,0-1.16.29,5.36,5.36,0,0,0-1.07.86v7.3h-3.25Z" transform="translate(0 0)"/><path class="cls-2" d="M247.59,1.67H199a29.24,29.24,0,0,0-29.24,29.24V56.25a29.26,29.26,0,0,0-27.57-19.5H118.78a5.85,5.85,0,1,1,0-11.69h40.91a2.41,2.41,0,0,0,2.23-1.49L169.61,5a2.41,2.41,0,0,0-2.22-3.33H118.78A29.23,29.23,0,0,0,90.34,24.13a48.44,48.44,0,1,0,6.52,26.12,29.18,29.18,0,0,0,21.92,9.89h23.39a5.85,5.85,0,1,1,0,11.7H101.25A2.43,2.43,0,0,0,99,73.33L91.33,91.9a2.41,2.41,0,0,0,2.23,3.33h48.61a29.24,29.24,0,0,0,27.57-19.5V92.82a2.41,2.41,0,0,0,2.41,2.41h18.57a2.41,2.41,0,0,0,2.41-2.41V60.14h32.23a2.4,2.4,0,0,0,2.23-1.48l7.69-18.58a2.41,2.41,0,0,0-2.22-3.33H193.13V30.91A5.85,5.85,0,0,1,199,25.06H239.9a2.41,2.41,0,0,0,2.22-1.49L249.81,5A2.4,2.4,0,0,0,247.59,1.67ZM48.45,71.84A23.39,23.39,0,1,1,71.84,48.45,23.39,23.39,0,0,1,48.45,71.84Z" transform="translate(0 0)"/></svg>