<svg xmlns="http://www.w3.org/2000/svg" xmlns:xlink="http://www.w3.org/1999/xlink" viewBox="0 0 484 484"><defs><style>.cls-1{fill:none;}.cls-2{isolation:isolate;}.cls-3{fill:#1aa5de;}.cls-4{clip-path:url(#clip-path);}.cls-5{opacity:0.07;mix-blend-mode:multiply;}.cls-6{fill:#00365b;}.cls-7{fill:#fff;}</style><clipPath id="clip-path"><rect class="cls-1" x="540" width="484" height="484"/></clipPath></defs><g class="cls-2"><g id="Layer_1" data-name="Layer 1"><rect class="cls-3" width="484" height="484"/><g class="cls-5"><path class="cls-6" d="M132.83,309A642.59,642.59,0,0,0,73.62,199.86,647.29,647.29,0,0,0,0,109.68v22a631.17,631.17,0,0,1,61.05,76.71,627.62,627.62,0,0,1,57.81,106.51,623.46,623.46,0,0,1,36.53,117.68c3.48,17,6.24,34.16,8.29,51.46H179q-3.19-27.5-8.71-54.5A638.83,638.83,0,0,0,132.83,309Z"/><path class="cls-6" d="M160.77,297.14a673.37,673.37,0,0,0-62-114.23A677.45,677.45,0,0,0,16.65,83.39Q8.48,75.2,0,67.3v22C1.82,91,3.62,92.83,5.42,94.62A661.9,661.9,0,0,1,85.6,191.8a657,657,0,0,1,60.54,111.53A653.27,653.27,0,0,1,184.4,426.57Q190.21,455,193.5,484h16q-3.39-30.58-9.52-60.61A668,668,0,0,0,160.77,297.14Z"/><path class="cls-6" d="M104.88,320.75A612,612,0,0,0,48.47,216.82,615.69,615.69,0,0,0,0,154.22V176.4a601.43,601.43,0,0,1,36.5,48.51A597.66,597.66,0,0,1,91.58,326.38a594.46,594.46,0,0,1,34.81,112.13Q131,461,133.86,484h14.55q-3-24.4-7.87-48.39A608.36,608.36,0,0,0,104.88,320.75Z"/><path class="cls-6" d="M216.66,273.53A733.52,733.52,0,0,0,149.06,149,738,738,0,0,0,59.54,40.5Q38.44,19.38,15.6,0H0V9.52Q24.6,30.09,47.29,52.75a721.46,721.46,0,0,1,87.41,106,715.52,715.52,0,0,1,66,121.58,712.22,712.22,0,0,1,41.71,134.36c4.67,22.84,8.22,46,10.65,69.36h17.43a732.44,732.44,0,0,0-11.1-72.84A729.65,729.65,0,0,0,216.66,273.53Z"/><path class="cls-6" d="M188.72,285.34A702.27,702.27,0,0,0,123.91,166a707.42,707.42,0,0,0-85.81-104Q19.73,43.58,0,26.56V48.71q13.5,12.15,26.35,25a690.52,690.52,0,0,1,83.8,101.56,686.12,686.12,0,0,1,63.27,116.56,682.87,682.87,0,0,1,40,128.8c4.28,20.88,7.57,42.06,9.88,63.39H240c-2.38-22.45-5.81-44.74-10.31-66.72A699.43,699.43,0,0,0,188.72,285.34Z"/><path class="cls-6" d="M244.61,261.73A763.68,763.68,0,0,0,174.21,132,768.61,768.61,0,0,0,81,19.05Q71.3,9.36,61.24,0H34.35Q51.78,15.39,68.22,31.82a750.52,750.52,0,0,1,91,110.32A746.18,746.18,0,0,1,228,268.76a741.68,741.68,0,0,1,43.43,139.91A743.25,743.25,0,0,1,282.83,484H301a762.74,762.74,0,0,0-11.86-78.95A759.17,759.17,0,0,0,244.61,261.73Z"/><path class="cls-6" d="M76.94,332.56a581.4,581.4,0,0,0-53.62-98.78Q12.24,217.37,0,201.69v22.77q6.14,8.4,12,17A568.56,568.56,0,0,1,64.3,337.9,564.83,564.83,0,0,1,97.38,444.47q4,19.59,6.63,39.53h13.84q-2.75-21.31-7-42.28A579.22,579.22,0,0,0,76.94,332.56Z"/><path class="cls-6" d="M0,385.19v36q6.11,20.35,10.37,41.16,2.21,10.75,3.9,21.63H26q-1.84-12-4.28-23.94A488.52,488.52,0,0,0,0,385.19Z"/><path class="cls-6" d="M21.05,356.17Q11.59,333.79,0,312.3v27.07Q5.13,350.05,9.74,361a505.3,505.3,0,0,1,29.63,95.46q2.81,13.69,4.85,27.59H56.63Q54.46,468.87,51.41,454A518.3,518.3,0,0,0,21.05,356.17Z"/><path class="cls-6" d="M49,344.36A551.8,551.8,0,0,0,0,253.48v24.11a538.19,538.19,0,0,1,37,71.84,535.79,535.79,0,0,1,31.36,101q3.41,16.63,5.76,33.56H87.25q-2.46-18.22-6.13-36.17A549.45,549.45,0,0,0,49,344.36Z"/><path class="cls-6" d="M384.76,0A1011.62,1011.62,0,0,1,473.5,165.05q5.43,12.84,10.5,25.86V128A1039.07,1039.07,0,0,0,414.09,0Z"/><path class="cls-6" d="M377.81,0H349q3.36,4.85,6.65,9.72a982.31,982.31,0,0,1,90.57,166.85A975.33,975.33,0,0,1,484,282.66v-75.5q-7.5-20.11-15.84-39.87A1006.11,1006.11,0,0,0,377.81,0Z"/><path class="cls-6" d="M350.25,13.34c-3-4.47-6.1-8.91-9.19-13.34H312.69q9.42,13,18.41,26.27a952.82,952.82,0,0,1,87.84,161.82A948.61,948.61,0,0,1,474.45,366.9q5.58,27.32,9.55,55V306.81a971,971,0,0,0-43.78-127.72A976.12,976.12,0,0,0,350.25,13.34Z"/><path class="cls-6" d="M484,50.34V0H455Q470.17,24.78,484,50.34Z"/><path class="cls-6" d="M420.08,0A1042.55,1042.55,0,0,1,484,116V59.55Q467.92,29.24,449.9,0Z"/><path class="cls-6" d="M412.27,190.9A944.5,944.5,0,0,0,325.1,30.3Q314.74,15,303.74,0H275.79q16,21,30.76,42.83a923,923,0,0,1,85.11,156.79,918.52,918.52,0,0,1,53.78,173.25A925,925,0,0,1,461.17,484h22.46a946.35,946.35,0,0,0-16.26-115.62A940.1,940.1,0,0,0,412.27,190.9Z"/><path class="cls-6" d="M300.5,238.12a824.86,824.86,0,0,0-76-140A829.72,829.72,0,0,0,146.76,0H120a810.19,810.19,0,0,1,88.4,109,804.68,804.68,0,0,1,74.19,136.67,800.63,800.63,0,0,1,46.88,151A802.56,802.56,0,0,1,342.3,484h19.59a824,824,0,0,0-13.37-91.17A820.24,820.24,0,0,0,300.5,238.12Z"/><path class="cls-6" d="M272.55,249.92a793.85,793.85,0,0,0-73.19-134.84A799.31,799.31,0,0,0,104.8,0H78q5.61,5.39,11.12,10.88A781.46,781.46,0,0,1,183.8,125.59a775.29,775.29,0,0,1,71.46,131.65,771.31,771.31,0,0,1,45.16,145.47A774.28,774.28,0,0,1,312.56,484h18.86a792.5,792.5,0,0,0-12.61-85.06A790,790,0,0,0,272.55,249.92Z"/><path class="cls-6" d="M328.44,226.31A854.56,854.56,0,0,0,249.66,81.17,861.32,861.32,0,0,0,187.45,0h-27A839,839,0,0,1,232.9,92.49a833.79,833.79,0,0,1,76.92,141.7,830.84,830.84,0,0,1,48.61,156.58A834.44,834.44,0,0,1,372,484h20.3a856.76,856.76,0,0,0-14.1-97.28A850.36,850.36,0,0,0,328.44,226.31Z"/><path class="cls-6" d="M384.33,202.7A915.41,915.41,0,0,0,300,47.25Q283.65,23.13,265.77,0H238.2Q261.33,28.82,282,59.38a893.15,893.15,0,0,1,82.38,151.76,889.07,889.07,0,0,1,52.06,167.7,894.51,894.51,0,0,1,15,105.16H453.2a916.43,916.43,0,0,0-15.54-109.5A910.93,910.93,0,0,0,384.33,202.7Z"/><path class="cls-6" d="M356.39,214.51a885.19,885.19,0,0,0-81.58-150.3Q252.44,31.11,227,0H199.8a866.9,866.9,0,0,1,57.65,75.93A863.75,863.75,0,0,1,337.1,222.67,859.12,859.12,0,0,1,387.43,384.8,862.94,862.94,0,0,1,401.76,484h21A888.31,888.31,0,0,0,408,380.61,881.06,881.06,0,0,0,356.39,214.51Z"/></g><rect class="cls-1" width="484" height="484"/><path class="cls-7" d="M131.11,226.68a7.22,7.22,0,0,0-6.19,3q-2.19,3-2.19,8.37,0,11.17,8.38,11.17a26.26,26.26,0,0,0,8.52-1.76v5.94a23.69,23.69,0,0,1-9.18,1.72q-7.29,0-11.15-4.42T115.44,238a20.75,20.75,0,0,1,1.89-9.12,13.73,13.73,0,0,1,5.45-6,16.18,16.18,0,0,1,8.33-2.09,22.49,22.49,0,0,1,9.78,2.35l-2.29,5.76a37.87,37.87,0,0,0-3.77-1.55A11,11,0,0,0,131.11,226.68Z"/><path class="cls-7" d="M170.23,254.67h-7V239.75c0-3.68-1.37-5.53-4.11-5.53a4.65,4.65,0,0,0-4.22,2q-1.31,2-1.31,6.44v12h-7V219.12h7v7.24c0,.57-.05,1.89-.16,4l-.16,2h.37q2.33-3.73,7.4-3.74,4.5,0,6.83,2.42c1.56,1.61,2.33,3.93,2.33,6.94Z"/><path class="cls-7" d="M189.43,255.13q-6.17,0-9.64-3.41t-3.47-9.64q0-6.42,3.21-9.93t8.88-3.5q5.42,0,8.43,3.08t3,8.52v3.38H183.38a6.71,6.71,0,0,0,1.76,4.64,6.19,6.19,0,0,0,4.61,1.67,19.19,19.19,0,0,0,4.37-.48,21.8,21.8,0,0,0,4.29-1.53v5.39a16.53,16.53,0,0,1-3.9,1.36A24.47,24.47,0,0,1,189.43,255.13Zm-1-21.52A4.4,4.4,0,0,0,185,235a6.5,6.5,0,0,0-1.44,4h9.78a5.82,5.82,0,0,0-1.35-4A4.55,4.55,0,0,0,188.45,233.61Z"/><path class="cls-7" d="M216.36,255.13q-11.93,0-11.93-13.09,0-6.53,3.25-9.95t9.29-3.44a17.79,17.79,0,0,1,7.95,1.73l-2,5.4c-1.1-.45-2.12-.81-3.06-1.09a10,10,0,0,0-2.84-.42q-5.43,0-5.43,7.72,0,7.5,5.43,7.49a12.69,12.69,0,0,0,3.73-.53,13.53,13.53,0,0,0,3.42-1.68v6a10.91,10.91,0,0,1-3.41,1.48A18.81,18.81,0,0,1,216.36,255.13Z"/><path class="cls-7" d="M237.2,240.78l3-3.88,7.15-7.77h7.86l-10.14,11.08,10.76,14.46h-8l-7.36-10.35-3,2.4v7.95h-7V219.12h7V235l-.37,5.8Z"/><path class="cls-7" d="M303.48,237.92q0,8.29-4.12,12.75t-11.78,4.46q-7.68,0-11.79-4.46t-4.11-12.79q0-8.34,4.12-12.74t11.82-4.4q7.69,0,11.78,4.44T303.48,237.92Zm-24.38,0q0,5.6,2.12,8.43a7.45,7.45,0,0,0,6.36,2.84q8.48,0,8.47-11.27t-8.43-11.28a7.49,7.49,0,0,0-6.37,2.84Q279.11,232.33,279.1,237.92Z"/><path class="cls-7" d="M328.41,254.67l-.93-3.27h-.37a7.32,7.32,0,0,1-3.18,2.75,10.79,10.79,0,0,1-4.68,1c-3,0-5.26-.81-6.78-2.41s-2.29-3.92-2.29-6.94V229.13h7v14.92a7.19,7.19,0,0,0,1,4.14,3.58,3.58,0,0,0,3.13,1.38,4.72,4.72,0,0,0,4.23-1.95q1.31-2,1.3-6.48v-12h7v25.54Z"/><path class="cls-7" d="M352.3,249.57a14.85,14.85,0,0,0,4.38-.8V254a15.56,15.56,0,0,1-6.39,1.17q-4.19,0-6.09-2.12t-1.91-6.34V234.36H339v-3l3.83-2.33,2-5.39h4.46v5.44h7.15v5.23h-7.15v12.31a2.76,2.76,0,0,0,.83,2.2A3.31,3.31,0,0,0,352.3,249.57Z"/><path class="cls-7" d="M160.31,306.15a15.25,15.25,0,0,0,4.39-.8v5.18a15.6,15.6,0,0,1-6.4,1.17q-4.17,0-6.09-2.12c-1.27-1.4-1.9-3.52-1.9-6.34V290.93H147V288l3.84-2.33,2-5.39h4.45v5.44h7.15v5.23h-7.15v12.31a2.72,2.72,0,0,0,.84,2.2A3.29,3.29,0,0,0,160.31,306.15Z"/><path class="cls-7" d="M193.91,311.24h-7V296.32c0-3.68-1.37-5.53-4.11-5.53a4.7,4.7,0,0,0-4.23,2c-.87,1.33-1.3,3.47-1.3,6.44v12h-7V275.69h7v7.24c0,.57-.06,1.89-.16,4L177,289h.36c1.56-2.5,4-3.75,7.41-3.75,3,0,5.27.81,6.83,2.42s2.33,3.93,2.33,6.95Z"/><path class="cls-7" d="M213.11,311.7q-6.17,0-9.64-3.41T200,298.65q0-6.42,3.21-9.92t8.88-3.51q5.41,0,8.43,3.08t3,8.53v3.38H207.05a6.73,6.73,0,0,0,1.76,4.63,6.18,6.18,0,0,0,4.62,1.67,19.1,19.1,0,0,0,4.36-.48,22.1,22.1,0,0,0,4.3-1.53v5.39a16.17,16.17,0,0,1-3.91,1.36A24.44,24.44,0,0,1,213.11,311.7Zm-1-21.52a4.45,4.45,0,0,0-3.47,1.4,6.5,6.5,0,0,0-1.44,4H217a5.82,5.82,0,0,0-1.35-4A4.59,4.59,0,0,0,212.12,290.18Z"/><path class="cls-7" d="M249.8,311.24h-7v-33.4H262v5.8H249.8v8.62h11.33V298H249.8Z"/><path class="cls-7" d="M286.52,311.24l-.94-3.27h-.36a7.41,7.41,0,0,1-3.18,2.76,10.94,10.94,0,0,1-4.68,1c-3,0-5.26-.81-6.79-2.41s-2.28-3.92-2.28-6.94V285.7h7v14.92a7.11,7.11,0,0,0,1,4.14,3.55,3.55,0,0,0,3.13,1.39,4.69,4.69,0,0,0,4.22-2q1.31-1.95,1.31-6.47v-12h7v25.54Z"/><path class="cls-7" d="M306.61,311.24h-7V275.69h7Z"/><path class="cls-7" d="M321.36,311.24h-7V275.69h7Z"/><path class="cls-7" d="M152.49,358.54a8.62,8.62,0,0,1-3.26,7.12q-3.25,2.61-9.06,2.61a21.25,21.25,0,0,1-9.45-2v-6.58a39.2,39.2,0,0,0,5.72,2.12,17,17,0,0,0,4.28.62,6.12,6.12,0,0,0,3.58-.89,3.05,3.05,0,0,0,1.24-2.65,2.89,2.89,0,0,0-.55-1.75,6,6,0,0,0-1.61-1.47,39.8,39.8,0,0,0-4.33-2.26,20.27,20.27,0,0,1-4.59-2.77,10.36,10.36,0,0,1-2.44-3.08,8.8,8.8,0,0,1-.92-4.11,8.64,8.64,0,0,1,3-7q3-2.54,8.3-2.54a19.62,19.62,0,0,1,5,.62,33.46,33.46,0,0,1,5,1.74l-2.29,5.5a33.31,33.31,0,0,0-4.42-1.53,14.15,14.15,0,0,0-3.44-.43,4.57,4.57,0,0,0-3.08.93,3.09,3.09,0,0,0-1.07,2.45,3,3,0,0,0,.43,1.63,4.81,4.81,0,0,0,1.38,1.35,45.42,45.42,0,0,0,4.49,2.34q4.68,2.24,6.42,4.49A8.75,8.75,0,0,1,152.49,358.54Z"/><path class="cls-7" d="M168.83,368.27q-11.93,0-11.92-13.09,0-6.51,3.24-9.95t9.3-3.44a17.72,17.72,0,0,1,8,1.74l-2.06,5.39c-1.09-.44-2.11-.8-3.06-1.09a9.9,9.9,0,0,0-2.83-.42q-5.43,0-5.44,7.72,0,7.5,5.44,7.5a12.3,12.3,0,0,0,3.72-.54,13.43,13.43,0,0,0,3.43-1.68v6a11.4,11.4,0,0,1-3.41,1.49A19.54,19.54,0,0,1,168.83,368.27Z"/><path class="cls-7" d="M206.56,367.81h-7V352.89q0-5.52-4.11-5.52a4.66,4.66,0,0,0-4.22,2q-1.31,2-1.31,6.44v12h-7V332.26h7v7.25c0,.56,0,1.88-.16,4l-.16,2.06H190q2.33-3.75,7.4-3.75,4.5,0,6.83,2.42c1.56,1.62,2.33,3.93,2.33,7Z"/><path class="cls-7" d="M225.76,368.27q-6.16,0-9.64-3.41t-3.47-9.64q0-6.42,3.21-9.92t8.88-3.51q5.4,0,8.43,3.09t3,8.52v3.38H219.71a6.73,6.73,0,0,0,1.76,4.64,6.17,6.17,0,0,0,4.61,1.66,19.19,19.19,0,0,0,4.37-.48,21.8,21.8,0,0,0,4.29-1.53v5.39a16,16,0,0,1-3.91,1.36A24.3,24.3,0,0,1,225.76,368.27Zm-1-21.52a4.43,4.43,0,0,0-3.47,1.4,6.5,6.5,0,0,0-1.44,4h9.78a5.82,5.82,0,0,0-1.35-4A4.59,4.59,0,0,0,224.78,346.75Z"/><path class="cls-7" d="M250.4,368.27a8.3,8.3,0,0,1-7.07-3.5q-2.57-3.5-2.57-9.68t2.62-9.79a8.48,8.48,0,0,1,7.2-3.51,8.33,8.33,0,0,1,7.36,3.75h.23a28.6,28.6,0,0,1-.53-5.1v-8.18h7v35.55h-5.34l-1.35-3.31h-.3A8,8,0,0,1,250.4,368.27Zm2.45-5.55a4.7,4.7,0,0,0,3.91-1.56c.83-1,1.29-2.79,1.36-5.27v-.76q0-4.11-1.26-5.89a4.71,4.71,0,0,0-4.13-1.78,4.1,4.1,0,0,0-3.62,2,10.58,10.58,0,0,0-1.29,5.75,10,10,0,0,0,1.3,5.65A4.26,4.26,0,0,0,252.85,362.72Z"/><path class="cls-7" d="M290.48,367.81l-.93-3.27h-.37A7.38,7.38,0,0,1,286,367.3a11,11,0,0,1-4.69,1c-3,0-5.26-.81-6.78-2.41s-2.29-3.92-2.29-6.94V342.27h7v14.92a7.19,7.19,0,0,0,1,4.14,3.57,3.57,0,0,0,3.13,1.39,4.7,4.7,0,0,0,4.23-2q1.31-2,1.3-6.47v-12h7v25.54Z"/><path class="cls-7" d="M310.58,367.81h-7V332.26h7Z"/><path class="cls-7" d="M329.91,368.27q-6.17,0-9.64-3.41t-3.47-9.64q0-6.42,3.21-9.92t8.88-3.51q5.42,0,8.43,3.09t3,8.52v3.38H323.86a6.73,6.73,0,0,0,1.76,4.64,6.19,6.19,0,0,0,4.61,1.66,19.19,19.19,0,0,0,4.37-.48,21.8,21.8,0,0,0,4.29-1.53v5.39a16.09,16.09,0,0,1-3.9,1.36A24.47,24.47,0,0,1,329.91,368.27Zm-1-21.52a4.43,4.43,0,0,0-3.47,1.4,6.5,6.5,0,0,0-1.44,4h9.78a5.82,5.82,0,0,0-1.35-4A4.59,4.59,0,0,0,328.93,346.75Z"/><path class="cls-7" d="M272.22,95.78H211.78a1.71,1.71,0,0,1-1.71-1.71V88.94a6.84,6.84,0,0,1,6.84-6.84h6.85V74.69A1.7,1.7,0,0,1,225.47,73h5.7a1.71,1.71,0,0,1,1.71,1.71V82.1h18.24V74.69A1.71,1.71,0,0,1,252.83,73h5.7a1.7,1.7,0,0,1,1.71,1.71V82.1h6.85a6.84,6.84,0,0,1,6.84,6.84v5.13A1.71,1.71,0,0,1,272.22,95.78Zm-60.44,4.57h60.44a1.71,1.71,0,0,1,1.71,1.71v37.06a6.84,6.84,0,0,1-6.84,6.84H216.91a6.84,6.84,0,0,1-6.84-6.84V102.06A1.71,1.71,0,0,1,211.78,100.35ZM259.29,114l-4-4a1.71,1.71,0,0,0-2.41,0l-15.12,15-6.55-6.61a1.72,1.72,0,0,0-2.42,0l-4.05,4a1.71,1.71,0,0,0,0,2.41l11.77,11.87a1.71,1.71,0,0,0,2.42,0l20.38-20.21a1.72,1.72,0,0,0,0-2.42Z"/></g></g></svg>