<?xml version="1.0" standalone="no"?>
<!DOCTYPE svg PUBLIC "-//W3C//DTD SVG 20010904//EN"
 "http://www.w3.org/TR/2001/REC-SVG-20010904/DTD/svg10.dtd">
<svg version="1.0" xmlns="http://www.w3.org/2000/svg"
 width="193.000000pt" height="193.000000pt" viewBox="0 0 193.000000 193.000000"
 preserveAspectRatio="xMidYMid meet">
<metadata>
Created by potrace 1.14, written by Peter Selinger 2001-2017
</metadata>
<g transform="translate(0.000000,193.000000) scale(0.100000,-0.100000)"
fill="#000000" stroke="none">
<path d="M491 1631 c-15 -13 -294 -686 -332 -801 -7 -19 -15 -39 -20 -45 -13
-17 -4 -92 15 -121 10 -16 36 -46 58 -66 39 -37 40 -39 33 -85 -15 -92 -15
-105 -1 -136 43 -100 126 -122 238 -64 l64 33 63 -33 c73 -38 120 -42 171 -15
43 23 82 94 76 137 -20 125 -20 121 19 156 97 88 108 189 30 258 -23 20 -50
31 -87 37 -29 5 -57 9 -63 10 -5 1 -15 2 -21 3 -6 0 -21 23 -33 50 -42 98
-105 142 -185 127 -49 -9 -87 -44 -121 -113 -16 -32 -29 -59 -30 -61 -5 -8
-65 -9 -65 -2 0 5 7 24 15 42 8 18 65 157 126 308 61 151 114 279 118 283 5 4
48 9 96 9 72 2 92 5 107 20 13 13 17 26 13 41 -12 40 -31 46 -152 45 -90 0
-118 -4 -132 -17z"/>
<path d="M1166 1631 c-21 -23 -20 -47 3 -70 16 -16 34 -19 106 -19 48 0 91 -4
95 -9 4 -4 47 -107 95 -228 49 -121 106 -262 127 -312 21 -51 38 -95 38 -97 0
-2 -12 -3 -26 -2 -22 1 -32 12 -60 68 -40 79 -78 110 -141 113 -66 3 -115 -33
-153 -111 -32 -66 -32 -66 -125 -80 -80 -11 -138 -73 -138 -148 0 -49 28 -98
81 -144 l39 -33 -12 -62 c-15 -79 -10 -114 21 -154 53 -70 118 -80 210 -33 32
16 64 30 70 30 6 0 37 -13 69 -30 70 -36 113 -38 166 -8 67 37 84 93 65 210
-8 47 -8 48 38 93 77 75 90 129 49 210 -23 45 -85 196 -233 560 -55 138 -108
255 -116 262 -10 7 -59 11 -134 11 -100 0 -121 -3 -134 -17z"/>
</g>
</svg>
